<svg xmlns="http://www.w3.org/2000/svg" viewBox="0 0 474.12 967.1"><title>funkturm</title><path d="M123.24,530.32a17.63,17.63,0,0,0,4,0c7.79-1.84,15.56-3.73,23.31-5.75,4.43-1.16,8.77-2.64,13.18-3.89,8.29-2.35,16.62-4.55,24.88-7,5.33-1.56,10.54-3.57,15.89-5,1.37-.38,3.13.43,4.6,1,.22.09,0,1.89-.35,2.73s-1.77,1.27-1.77,1.88A111.47,111.47,0,0,0,208.39,533l1.18-2.27a11,11,0,0,0,.32,2.46,20.32,20.32,0,0,0,1.42,2.48,10.92,10.92,0,0,0,1.52-2.55,49.57,49.57,0,0,1,2.28-7.56l.59,8.42,1.13.73c1-1.07,2.48-2,3-3.26.61-1.47.41-3.28.57-4.94l1.13.13a21.23,21.23,0,0,0,.06,4,22.78,22.78,0,0,0,1.47,3.85l3-1.76,1.95,3.1c.36-2,.85-4,1-6,.06-.74-.68-1.55-1.05-2.32l1.32.1.89-5.79-1.07,0c-.06-.64-.42-1.53-.13-1.89,2.24-2.77,1.89-6.12-.79-8.58-.36-.33.29-2.6.5-2.6a63,63,0,0,1,11.2.29c2.11.34,3.9,2.34,6,3.06,1.11.38,2.61-.4,3.29-.54,3.6,5,8,1.1,12.07,2l-2.53,1.75c3.61.74,6.69,1.63,9.84,1.95,5.6.58,11.23.81,16.95,1.19l.56,2.36c1.89-1.08,3.31-2.57,5,.51.76,1.42,3.62,1.82,5.61,2.44,3.14,1,6.34,1.73,9.51,2.58l.37-1.23-8.17-2.56.24-.89,10.58,3.07,0,0-1.07,1.76a14.15,14.15,0,0,0,3.63.93c.72,0,1.44-.93,2.24-1.51l.24,2.85c.65-.54,1.24-1.4,2-1.56a8.34,8.34,0,0,1,3.42.1c3.62.78,7.23,1.62,10.81,2.59a4,4,0,0,1,2,1.57c1.73,2.57,12.34,5.58,15.08,4.16.21-.11.34-.35.71-.74l-5.1-2.05,0,0,13,2.48-.14.9-4.7-.62-.12.73c2.79.45,5.7,1.63,8.33,1.17,3.59-.64,5.14,2.27,7.76,3.13.85.28,1.55,1.07,2.4,1.25q15.19,3.38,30.41,6.64c8.65,1.86,17.31,3.67,25.94,5.58.65.14,1.15,1,1.91,1.65l2.89-2.34v10.17l-3.7-6.11c.53,5.64,5.6,10.68,2,17.78l-.68-10.36-1,0v12.23l2.2-.92v8.36l-.52,0v-6l-1.52.32L426.59,597l.76.2,1.81-2.3.63,11-.92.1-.48-4.11c-1.36,1.22-3.15,13.3-2.14,14.7.4.55,1.58.54,2.26.75.14-2.13.14-3.75.4-5.34A7.21,7.21,0,0,1,430,610c.52.79,1.44,1.55,1.48,2.36.14,2.35-.11,4.72-.13,7.08,0,3,1.85,4.19,4.61,3.07,5.67-2.3,7.88-7.78,5.12-13.21-.39-.76-1.87-1-3-1.52.27-4,3-5.81,7.84-5.36a53.64,53.64,0,0,0,12.1.16c2.73-.37,5.28-1.87,5.28-5.8,0-19.25.21-38.49.35-57.74a5.08,5.08,0,0,1,.68-3c0,1.74,0,3.48,0,5.21q-.07,27.61-.13,55.22c0,5.26,1.19,6.34,6.51,6.11a3.39,3.39,0,0,1,3.22,4.45c-.14.37-.42.89-.71,1-3.43.75-6.9,1.3-10.29,2.17a6,6,0,0,0-3.13,2.06c-5.88,7.94-11.63,16-17.43,24a2.53,2.53,0,0,1-2.29,1.19L459.72,610c-3.88.2-7.1.24-10.27.63-.57.07-1.21,1.5-1.41,2.4-2.52,11.3-7.13,15.06-18.74,15.19-2.28,0-4.56,0-6.84,0-1.88,0-4,.55-4.68-2.22-.07-.29-1.62-.46-2.42-.31q-26,5-51.9,10.19c-10.33,2-20.66,4.15-31,6.06-3,.55-4.26,1.63-4,5,1.9,22.11,3.61,44.24,5.37,66.36.19,2.35.37,4.71.4,7.07a14.41,14.41,0,0,1-.56,3c-.78-.56-1.6-1.08-2.33-1.71a6,6,0,0,1-.88-1.24l3-2.32-4.73-3.75-1.18,1,2.89,5.14a7.62,7.62,0,0,0-1.73.26c-1,.41-2,.95-3.06,1.43l-1.06-4.28-2.38-.23c.24,2.87.52,5.74.71,8.63.48,7.23,1,14.46,1.32,21.69.11,2.4,1.14,3.16,3.38,3.42a3.29,3.29,0,0,1,2.14,2.28c.41,3.59.47,7.22.66,10.84l0,0-1.36-10.11-.8-.26c-.84,1.53-1.82,3-2.5,4.6-6.89,16.24-13.71,32.51-20.61,48.75-6.79,16-13.67,32-20.46,48Q270.66,888.66,256.65,922a7.92,7.92,0,0,0-.52,2.95c-.06,8.42-.16,16.85,0,25.26,0,1.54,1.19,3.05,2.58,4.14l-.87,5.27a31.49,31.49,0,0,0,5.79.71c.88-.05,2.39-1.18,2.42-1.89.12-2.4,1.45-3.18,3.24-2.44.77.31.93,2.24,1.26,3.46.09.33-.22.76-.52,1.68,5.06.45,9.87.86,14.68,1.31a40.7,40.7,0,0,1,5.47.68c.67.15,1.15,1.12,1.71,1.71-.76.57-1.5,1.62-2.27,1.63-5.91.14-11.82,0-17.73.11-2.09,0-4.19.31-6.28.48H243.33c-1.35-2.69-2.7-1.87-4.05,0H233.2a12.59,12.59,0,0,1-.39-1.47c-1.07-7.57.31-8.67,7.84-7.4,5.06.85,10.25,1,15.38,1.39.55-5.52-1.07-7-6.11-5.67a3.53,3.53,0,0,1-1.63.18c-2.52-.64-5-1.37-8-2.19l1,3.25c-1.6-.91-5.77,1.54-4-3l-12.8-2c1.95-.44,3.79,0,5.64,0,.91,0,2.57-.58,2.62-1a60.6,60.6,0,0,0,.12-6.79l-4.39-1.62L227.16,944a10.28,10.28,0,0,1-.7-2.41c.25-3.33.8-6.64.84-10,.09-7.5-.17-15-.1-22.51s.29-14.94.59-22.41c.13-3.14.77-6.32-4.49-7,4.58-1.43,4.5-4.72,4.56-7.78q.38-20.37.58-40.74.31-35.19.49-70.38.11-18,.14-36c0-1.88.05-3.33,2.76-2.87,1.09.18,2.46-.77,3.54-1.46.18-.11-.44-1.5-.8-2.65,1.54.27,3,.54,4.45.78s2.79.43,4.43.67c1.38,3.39,6,6.25,7.89,4.07,2.34-2.76,4.84-1.36,7.19-2l0,0c1.18,1,2.4,2,3.54,3,.9.82,1.62,2.33,2.58,2.48a8.27,8.27,0,0,0,5-.76c.58-.32.1-2.56.1-3.91,5.32,1,11.16,2.19,17.06,3,4,.57,8.39.29,7.36,6.44a3.73,3.73,0,0,0,.18,1c-.95-.1-1.7-.15-2.44-.27-10.65-1.82-21.29-3.67-31.95-5.4-.69-.11-1.54.7-2.31,1.08.87,1.77,1,3.89,3.87,4.24,6.61.79,13.19,1.94,19.74,3.16,1,.18,1.69,1.58,2.6,2.33s1.81,1.81,2.77,1.87c1.64.11,3.31-.51,5-.73,3.13-.41,6.26-.61,6.86-4.8a50,50,0,0,1,1.94-6.55l4.69,2.3L302.9,734c1.18,3.21,4.27,2.1,7.36,1.7a19.68,19.68,0,0,1,5.75.52c6,1.05,6.15,1.08,5.8-5-.26-4.61.16-9.64-1.53-13.73-5.13-12.39-11.13-24.42-16.87-36.55-.27-.57-1.75-1.24-1.94-1.07-3.49,3.23-5.5.41-7.5-1.87a2.57,2.57,0,0,1-.09-2.48c3-3.47,3.65-7.23,1.77-11.3-1.35-2.91-2.55-5.91-4.16-8.67a4.17,4.17,0,0,0-3.26-1.7c-8.91.76-17.78,1.9-26.69,2.59-2.74.21-3.53,1-3.54,3.73-.08,19-.31,38-.5,57,0,1-.09,2-.12,2.44-3.33,1.86-6.88-3-9.55,1.51-2.49-2.38-4.29-4.47-4.19-8.28.43-16.54.42-33.09.57-49.64,0-1,0-2,0-3-2.86.11-3.87,1.24-3.83,4,.16,11.57.07,23.13.12,34.7q0,7.85.23,15.7c.05,2.13-.69,2.87-2.87,2.4-3.07-.67-6.19-1.1-8.53-1.5-.54-1.63-.6-3.53-1.47-4-1.48-.84-3.46-.78-5.22-1.1V714L215,716.17c0-8.3,0-16.27,0-24.24.06-9.43.26-18.87.25-28.3,0-4.6-4.09-2.55-6.34-3.34-.32-.11-2,1.86-2,2.92-.83,15.76-1.45,31.53-2.24,47.29-.3,5.89-.45,5.88,4.76,6.11l-3.68,2c5.78,3.93,6.65,3.84,7.14-1.16l1.72,3.26-6.16,3h11.4c.12,1.8.47,4.37.44,6.94,0,3-1.21,6.27-.43,9,1.25,4.34-1.68,7.28-1.93,11.64l3,2.72v12.28l-1.65,2.3,2.06-.31c0,3.5.05,6.82,0,10.15a5.74,5.74,0,0,1-.82,2.47,16.44,16.44,0,0,1-1.68,2.16l1.86.91a62.26,62.26,0,0,1,.77,6.83c0,12.3-.14,24.6-.06,36.89,0,5.61.65,11.21.69,16.82,0,6-.35,12.05-.41,18.08-.17,15.17-.19,30.35-.43,45.53-.24,15.4-.63,30.79-1.05,46.18,0,.92-.86,1.81-1.32,2.72l-1.08-.26c.06.31.11.63.17.94l1.64,7.92c-2,.3-4,.64-6,.87a9.11,9.11,0,0,1-3-.07c-.61-.14-1.58-.85-1.56-1.26.16-3-1.86-3.12-4-3.3s-4.38-.35-6.54-.68c-3.34-.52-6.17-.57-5.52,4.19.07.53-.58,1.15-.9,1.73H183c-.92-1.15-1.89-3.3-2.77-3.26-3,.12-6.84-3.21-9,1.78-.26.61-1.86.92-2.8.86-.48,0-.79-1.3-1.34-1.83-.91-.88-2-2.37-2.92-2.31-6.31.39-13.37-.49-18.71,2.1-7.93,3.84-15.62,1.64-23.36,2.09-8.08.47-16.2,0-24.31.08-2.4,0-3-1-3-3.19q.53-19.49.87-39a22.38,22.38,0,0,0-1-4.81,51.4,51.4,0,0,0,1.43-7.34c1-18.37,1.82-36.74,2.72-55.12.32-6.55.64-13.1,1.48-19.65,0,3.22.07,6.44,0,9.65-.3,12.21-.56,24.42-1,36.63-.32,8.85-.94,17.69-1.29,26.53,0,1.12.73,2.26,1.13,3.4.67-1.07,1.87-2.12,1.92-3.22.56-12.31.87-24.62,1.38-36.93.46-11.12,1.17-22.23,1.59-33.35s.59-22.08.89-33.12c.15-5.39.5-10.79.41-16.17,0-1.13-1.59-2.22-2.45-3.34-.55.95-1.54,1.88-1.57,2.85-.25,8.85-.37,17.7-.46,26.55-.06,5.86,0,11.73,0,17.6l-1.31,0,3.91-194.47c-2.4.5-5.89,1.21-9.36,2-3.14.67-6.26,1.38-9.4,2.08-4.49,1-7.54-1.19-7.17-5.8s-3.41-5-5.79-5.45c-11.56-2.4-23.24-4.28-34.89-6.2-.64-.11-1.87.86-2.17,1.6-1,2.42-2.2,3.19-5,2.42-3-.83-6.32-.73-9.5-1-8.07-.61-15-9.56-13.37-17.51C7,611.41,9,610.48,10,610.56A3.32,3.32,0,0,1,12.2,613c-.08,3.59.08,7,3.2,9.4.2.16.36.43.58.48,2,.52,4,1,5.93,1.51.33-1.55,1.1-3.17.89-4.65-.3-2.11-1.32-4.13-2-6.18a6.17,6.17,0,0,1-.7-2.12c.24-3.69-2.12-4.13-4.87-4-3.79.23-7.57.77-11.35.78-.94,0-2.68-1.47-2.72-2.32C.61,595.26.38,584.54,0,573.83c-.08-2.28.47-3.67,3.06-4,.7-.07,1.73-1.43,1.8-2.27.22-2.5-.07-5.05.13-7.56,0-.51,1.64-1.49,2-1.3,3.88,2.16,7.66,4.5,12.17,7.22,0-4,0-7.55,0-11.07a43.36,43.36,0,0,1,.28-7.77c.16-.86,2.12-1.38,3.8-2.38,0-5.43.11-11.8,0-18.16-.14-6.65-.76-13.3-.74-19.95,0-7.18,3.34-10.78,10.21-12.7,13.47-3.77,26.9-7.71,40.33-11.63,6.34-1.85,12.6-4,19-5.66,3.31-.85,6.88-.64,10.25-1.33,2.5-.52,4.81-1.94,7.3-2.58,7.16-1.82,14.4-3.33,21.54-5.22,2-.54,3.86-2,5.78-3l-.4-.92c-4.56,1.33-9.06,3-13.71,3.87-3.16.56-6.55,0-9.8-.35a3.18,3.18,0,0,1-2.15-2.26,3.24,3.24,0,0,1,2.14-2.34c5.57-.69,11.54-2.56,16.7-1.29,9.23,2.27,17.25-.46,25.58-3,4.67-1.42,9.38-2.71,14-4.35,1.46-.52,2.55-2,3.88-3a2.76,2.76,0,0,1,1.13-.38,39.89,39.89,0,0,1-1-15.45c.45-2.93-.22-6-.27-9.05-.07-4.09,0-8.19,0-13.32l1.76,3.05v-8l-1,3.15c-.76-2.51-1.74-5.33-2.4-8.22a4.59,4.59,0,0,1,.73-3c1.65-2.7.9-6.82-.81-9.5-1.24-2-1.43-4.67-1.72-7.1-.19-1.53.45-3.14.45-4.72q0-70.3,0-140.6,0-48,.07-96c0-1.81.22-3.62.34-5.43l1.07,0,1.6,4.81-.79.32a51.63,51.63,0,0,1,1.2,5.09c.42,3.09.68,6.2.93,9.31.11,1.36,0,2.73,0,5.06l2.75-3.27.68,1.5.78,0,2-31.24c3.54,1.16,3.35-1.4,3.32-3.76,0-1.59-.19-3.18-.16-4.77,0-.54.42-1.55.6-1.54,5.51.31,1.31-3.17,1.84-4.76a10.38,10.38,0,0,0-.09-2.71c4.9,4.79,3.38,10.42,3.89,16l2.32-2.44-4,12.33-.55-.13-.26-3-.58,0c-.44,2.46-.78,5-1.36,7.38-.27,1.15-1.48,2.21-1.42,3.27.09,1.73,1.36,3.46,1.26,5.14a91.37,91.37,0,0,1-1.61,10.85c-.12.64-.94,1.14-1.37,2,2.78-1.39,3.57-.29,3.39,2.22-.27,3.86-.57,7.73-.71,11.6,0,1,.52,1.94,1.14,4l-1.34,7.1-1.94-3.48-1.06-.27-2.15,8.73c3.34,2.88-1.33,3.78-1.87,5.78a13.09,13.09,0,0,0-.73,2.11c-.25,3.1-.12,6.26-.65,9.31-.86,4.94-2.2,9.8-3.1,14.74-.11.6,1.26,1.47,1.33,1.55-.46,2.7-.56,5.46-1.44,7.95-1.46,4.14,1.69,8.4-.67,12.47-.35.61.24,1.83.52,2.73.73,2.3,2.11,4.63-1.57,7.17,2.73.45,4.64.73,6.53,1.12.47.1,1.27.64,1.23.88-.23,1.5-.21,3.36-1.1,4.36-1.71,1.93-1.93,7.19-.68,9.31.88,1.5.46,3.77.62,5.69l-1.37.15a27,27,0,0,0-.58-3.55,6.51,6.51,0,0,0-1.24-1.74c-.32.64-.91,1.28-.92,1.93,0,1.41-.2,3.09.48,4.16s2.29,1.37,3.49,2l.52-.93,1.16,8.33c-1.43.87-2.17,2.47.87,4.27a3.59,3.59,0,0,1-.85,2.49,18,18,0,0,1-4.12,1.49l1.54,3.36-3.43,2.5.3,1,3.8-.3c-.46.84-.93,1.71-1.42,2.58s-.91,1.57-1.36,2.36h3c0,.11.22.84,0,1.1-2.92,3-1.33,6.18-.55,9.41A116.78,116.78,0,0,1,179.69,329c.13,1-.63,2.72-1.41,3-4,1.54-3.21,5.45-4.11,8.27a38.2,38.2,0,0,0-1.5,11.34c0,4.85.12,9.89,4.52,13.39l-4.51,5.87,1.24-.3,2.09,4.87.78.21c0-1.78-.05-3.56,0-5.33a1.66,1.66,0,0,1,.88-1.11c.25-.12.77.22,1.13.43,5.06,3,5,2.82,10.8,1.17,2-.57,4.25-.13,6.34-.43s4.15-1,6.23-1.46c.67-.15,1.59-.42,2.06-.11,3.37,2.22,9.21,1.95,12.52-.61a2.22,2.22,0,0,1,2-.3c4.52,2.72,8.94,2.72,13.42-.1a2,2,0,0,1,1.8.07c4.08,2.89,8.51,2.47,13.05,1.62a3,3,0,0,1,2.06.65c2.06,1.52,10.19,2.25,12.29,1,3,3,9.91,4.79,11.42,3,3.26,4.58,6.13,5.87,7.73,4.14l4.83,4.86c.16.89.82,2.5.6,4s-1.3,2.95-2.21,4.85c-.53-.82-.85-1.08-.84-1.32.26-6.8-5.94-9.94-11-11.6-2.29-.76-2.75.75-2.75,2.64q0,11.27-.07,22.55c-.05,13.5.5,27-.46,40.48-.37,5.21,1.63,6.2,5.25,7.61,2.42.94,4.58,2.56,6.85,3.88l-.46,1-44.4-11,.14-.94c3.43.24,6.87.39,10.29.76,2.36.25,3.12-.65,3.14-3,0-3.54.56-7.07.47-10.6,0-.93-1.37-2.24-2.39-2.64-1.52-.6-3.36-.37-4.95-.86-.78-.24-1.32-1.28-2.33-2.33l6.38-.69.85,2.35,4.39-6.18v19.22h.74V376.62l-1.07,0v26.73l-1.27,0a38.58,38.58,0,0,0,0-4.69c-.22-1.81.86-4.15-1.94-5.13a2.91,2.91,0,0,1-.19-2.5c3.45-2.9,1.15-6.77,1.88-10.09a20.17,20.17,0,0,0,0-2.27c.36-3.76-1.3-5-5-4.92-9.06.24-18.14-.28-27.17.27a147.09,147.09,0,0,0-22.43,3.25c-2.62.57-5.6,2.77-5.16,6.59.39,3.42,1.24,6.83,1.29,10.25,0,2.74-1.12,5.49-1.18,8.25-.19,8-.87,16,.13,23.89.81,6.36-1.47,12.54.12,18.82.51,2,1,2.62,2.88,2.12,3.8-1,7.61-2,11.42-2.94l0,0,1.47,6.57c-5.91.46-11,.39-15.37,3l.26,1.27a25.72,25.72,0,0,0,3.52-.45c2.62-.7,3.42.4,3.08,2.84-.22,1.57-.5,3.14-.58,4.72a9.48,9.48,0,0,0,.46,2.35l1.13-.05.61-12.06.79-.17,1.13,4.75,1.8-1.2c-.41,3.71-.82,7.29-1.18,10.88,0,.27.28.57,1,1.82l4-16.09.74-.08,1.75,10.32-.8.24-1.38-2c0,2.91,0,5.48,0,8.05,0,1.9,0,3.8.13,5.69s.62,3.83.68,5.75c0,1.46-.49,2.93-.54,4.41-.21,6.15-.2,12.3-.59,18.43a4.26,4.26,0,0,1-2.59,2.92c-15.5,4.37-31,8.56-46.58,12.8l-30.17,8.23a6,6,0,0,0-2.19,1l7.4-1.12.17.62-9.68,2.73h-3.6c.51-1.46,1.52-3,1.35-4.37-.1-.81-2-1.76-3.21-2q-41.36-8.77-82.75-17.37c-4.46-.93-6.36.14-7.38,4.49a27,27,0,0,0-.51,5.51c-.11,5.1.14,10.23-.3,15.3-.3,3.43-1.57,6.76-2.31,10.16a5.43,5.43,0,0,0,.29,1.89l.64,0,2.17-7.77c.29,5.22.62,9.44.74,13.67.08,2.67,1.32,3.49,3.74,2.84,4.39-1.17,8.77-2.42,13.16-3.57,15.37-4,30.71-8.22,46.15-12,5.85-1.43,12-1.64,17.88-2.92,3.56-.77,6.91-2.53,10.35-3.85C120.88,532.66,122.06,531.74,123.24,530.32ZM25.41,570.39l1-3-1-.15v3.15c.19,4.26-2,9,2.56,12.48-.54-3.44-1-6.74-1.59-10A12.28,12.28,0,0,0,25.41,570.39Zm253.92,54.66.43,1.3.41-.23-.87-1c-.14-2.78-.09-5.58-.5-8.32-.28-1.91,0-4.77-3.68-4.18C274.47,617.45,276.71,621.31,279.33,625.05ZM268.2,378.86a31.79,31.79,0,0,0-1,5.49c-.1,17-.09,33.91-.11,50.86q0,4.39,0,8.78h1.05q0-32.57,0-65.15l.09-1.5-.66.08ZM152.12,733.53l-1-1.29-.38.45,1.44.82c-.42,3.54,1.32,4.71,4.69,5a80,80,0,0,1,12.71,1.93c3.88.94,5.38-.18,4.65-4-.26-1.35-.7-3.47-1.58-3.78C165.72,730.13,158.92,732.26,152.12,733.53Zm111.53-160.1c-2.08-.26-4.18-.38-6.22-.82-4.1-.87-8.73-1.08-12-3.26-1.58-1.05-.57-6-.73-9.15a4.71,4.71,0,0,0,0-.5c-.1-.61-.2-1.22-.31-1.83a19,19,0,0,0-.53,4.63c-.36,2.89-1.44,5.79-1.25,8.61a51.59,51.59,0,0,0,2.32,10.58,3.45,3.45,0,0,0,2.35,2.11c5.92.38,11.85.47,17.78.71,4.2.16,4.94-.93,3.13-5l-1.7,3c-.35-2.1-1.07-3.54-.64-4.45,1.26-2.69,0-3.81-2.21-4.68l-.16-1.48-.62.18Zm13.18,276.84a23.77,23.77,0,0,1,1-2.8c3.06-5.92,6.35-11.74,9.21-17.76,1.82-3.84,2.76-8.11,4.63-11.92,1.52-3.09,4.06-5.65,5.76-8.67,4.11-7.34,8.06-14.78,11.94-22.24,4.83-9.28,9.69-18.54,14.16-28,1.32-2.78,4.67-6.52-1-9a13.66,13.66,0,0,0-1,1.4Q309.27,775.09,297,798.88q-10,19.31-19.77,38.69a4.74,4.74,0,0,0-.05,2.23c.07,1.1.67,2.44.23,3.24-1.62,3-3.65,5.71-5.36,8.63a3.56,3.56,0,0,0-.35,2.86c1.26,2.49.71,7.13-1.53,7.89-5.1,1.73-6.73,5.45-7,10.37,0,.75-1,1.57-1.67,2.15-1.22,1-2.93,1.62-3.78,2.85-1.21,1.76-1.69,4-2.72,5.9-2.91,5.38-6,10.63-8.89,16-3.58,6.8-7,13.7-10.41,20.58-2,4-4,8-5.67,12.13-.46,1.12-.16,3.65.43,3.88,1.81.7,3-.26,3.82-2.38a82.39,82.39,0,0,1,4.53-9l.87.28v12.22l1.05.15c.64-3,1.5-5.92,1.88-8.92.66-5.16-1-10.46,2-15.53,3.43-5.88,6.09-12.2,9.14-18.3.61-1.21,1.47-2.3,2.71-4.22v8.1c.67-1.19,1-1.72,1.29-2.3q6.58-15.5,13.11-31c2-4.89,4-9.82,6-14.73A1.7,1.7,0,0,1,276.83,850.27ZM162,832.51l.92-.86-.6-.3-.35,1.24c.55,1.55,1.18,3.08,1.63,4.66.8,2.78,2.11,4.24,5.22,2.74.37-.18,1.65.7,2,1.35q6.12,12.78,12.07,25.64Q195,893.27,207.1,919.59c1,2.08,2.14,4.06,3.16,6,3.39-1.37,3.62-3.8,3.63-6.66q.13-41.28.5-82.55c0-2,.74-3.92,1.19-6.14l-1-.36a12.36,12.36,0,0,0,2.14-2.09c.21-.35-.14-1.55-.42-1.62-2.94-.74-1.49-1.56-.47-3.11s.91-3.48,1.1-5.29c0-.24-1.14-.62-1.9-1,0-4.75.13-9.73-.06-14.7-.08-2.13,2-3.6.43-6.52-1.42-2.56-.06-6.68.12-10.11.16-3,.6-6,.56-9-.09-6-.42-12-.64-18a1.86,1.86,0,0,1,.21-.72c.93-2.22-.19-3.15-2.22-3.47-2.58-.41-5.2-.67-7.75-1.25s-3.25.55-3.34,2.71c-.39,8.85-.81,17.69-1.13,26.54a4,4,0,0,0,.89,2.14c.58.83,2,1.7,1.88,2.27-.32,1.34-1.4,2.49-2.08,3.76a13.37,13.37,0,0,0-1.46,3.31c-.45,2.06-.65,4.18-.91,6.28-.15,1.17-.14,2.36-.35,3.51a7.54,7.54,0,0,1-.82,1.77,7,7,0,0,1-1.58-1,4.92,4.92,0,0,1-.65-1.51l-1.33.38c.67,2,1.27,4,2.06,5.94a15.73,15.73,0,0,0,1.6,2.18c1.47,2.31.58,5.25.72,7.5.36,6.09,1.52,13.28-5.34,17.79l2.86,1.08v21.9c.16.3,1,1.17,1,2-.13,7.17-.4,14.33-.67,21.5,0,1-.31,2.07-.59,3.83-3.45-7-6.56-13.35-9.64-19.69a4,4,0,0,1-.36-1.95c.55-7.54,1.35-15.07,1.66-22.62.33-7.9.12-7.91-7.72-9.12l-.25,0c-2.07-.43-3.18.06-3.08,2.53s-.22,4.82-.36,7.23l-.91.08-4.52-11.9c.65-1.06,2-2.23,2-3.46q.55-12.89.55-25.81a3.93,3.93,0,0,0-2.4-2.9c-4.88-.94-9.83-1.5-14.77-2.12-.56-.07-1.59.22-1.68.54a3.35,3.35,0,0,0,.3,2.13c2.26,4.79,4.74,9.47,6.85,14.32,2.7,6.22,5.16,12.56,7.61,18.89a47.51,47.51,0,0,1,1.4,5.75C168.23,835.71,163.48,836.55,162,832.51ZM71.55,602.29l-1.63.72c3.21,1.09,5.37,5.5,9.44,1.65-.34,1.12-.66,1.91-1.24,2.23C76.09,608,74,609,71.9,610a8.36,8.36,0,0,0-1.38,1.14c.55.25,1.2.83,1.64.7,9.34-2.76,19.69-2.39,28-8.82l.63,2c2.72-.57,5.29-1,7.83-1.65q34.18-8.23,68.34-16.53c5-1.23,10-2.86,15-4.11,3.82-.95,7.74-1.53,11.58-2.4.8-.18,2.14-.89,2.13-1.33-.09-3.56-.45-7.11-.74-10.89-7,1.6-13.64,3.18-20.32,4.6-2,.43-4.66-.31-6,.75-2.74,2.15-5.31,2.38-8.47,1.72-.63-.13-1.62,1.41-2.43,2.2-.58.57-1.14,1.16-1.71,1.75a25.08,25.08,0,0,1-1.7-2c-.63-.91-.95-2.52-1.73-2.76-6.67-2.07-12.19-5.49-16.22-11.43-.85-1.26-3.59-1.4-5.5-1.6-.3,0-1.09,2.35-1.25,3.67-.44,3.68-.5,7.42-1,11.08-.44,3,.34,4.69,3.59,4.91.9.06,1.77.62,3.44,1.25-5.23,1.32-9.59,2.46-14,3.45-.34.08-1.33-.86-1.28-1.23.33-2.64-1.37-3.06-3.34-3.44q-18.15-3.48-36.29-7Q61.64,568.3,32.58,562.5c-2.78-.55-3.61.55-3,3.14a7.6,7.6,0,0,1,.11,1.49c.21,13.9.4,27.8.71,41.7A2.22,2.22,0,0,0,32,610.16c8.23-1.79,16.43-3.73,24.65-5.61,3.52-.8,7.06-1.54,10.59-2.3,1.59.83,1.93-3.64,4.25.07Zm191.53-57.76c-2.38-.54-3.22.46-2.95,2.8a8.21,8.21,0,0,1-.09,3.5c-.87,2.53.31,3.36,2.51,3.8,4.14.82,8.24,1.83,12.39,2.61,2,.37,3,1.24,2.8,3.36-.24,2.43.94,2.84,3.1,2.31q8.73-2.15,17.52-4.05c5.89-1.29,11.81-2.46,17.72-3.69l-.07,1,2-3.8,3.51,4.13-.65,1c-1.88,0-3.77-.05-5.64,0-.33,0-.6.69-1,1-.82.7-1.57,1.74-2.52,2-7,1.73-14.13,3.31-21.21,4.93-3.87.88-7.76,1.65-11.59,2.68-2,.53-3.74,1.89-5.71,2.22a45.34,45.34,0,0,1-7.34.09c1.58,3.84,3.27,6.82,4,10s.93,5.67,5.33,4.17a18,18,0,0,1-3.59,1.08,13.72,13.72,0,0,0-2.48,1.36c.75.57,1.45,1.55,2.26,1.65,3.85.49,7.73.73,12.76,1.16a34.61,34.61,0,0,1-3.52-1.61,24.14,24.14,0,0,1-2.29-1.86,34.82,34.82,0,0,1,9.11,1.1c.11,0,.05.63.19.69a32,32,0,0,0,4.82,1.71c.34.08,1-1.16,1.47-1.8l-.64-2.68-.67.28,1.35,2.42-3.44-1,1.74-7.25c3.65,1.82,3.25,5,3.25,7.73s1.12,3.58,3.44,4.06c4.61,1,9.18,2.1,13.78,3.15,20.17,4.58,40.36,9.09,60.51,13.79,3.16.74,4.37.15,3.67-3.11-.36-1.71-.87-3.4-1.28-5.1-.15-.62-.21-1.26-.3-1.89l1.05-.28a33.57,33.57,0,0,1,1.64,5.24c.55,3.75.59,7.73,6.14,7.14.13,0,.32.53.48.82l-3,.5.43,1.09,2.52-1.62c2.06.64,4.1,1.39,6.2,1.89,4.73,1.14,9.49,2.16,14.24,3.22l13.54,3c0-3.53,0-6.55,0-9.57,0-2,.86-2.67,2.68-2,2.58.91,3.47.05,3.49-2.65q.11-20.75.47-41.49c0-2.31-.59-3-2.92-2.43-12.09,2.78-24.21,5.45-36.32,8.16-19.93,4.47-39.86,9-59.82,13.33-.89.2-2-.63-3-1,.75-.77,1.39-2,2.28-2.24,12.08-2.83,24.2-5.48,36.3-8.23Q390.94,564.76,420,558a39.52,39.52,0,0,0,4.92-1.83,28.77,28.77,0,0,0-5-2.17q-51.35-11.74-102.73-23.34c-5.5-1.25-5.4-1.24-4.67,4.35.63,4.9,1,9.83,1.46,14.75a84,84,0,0,1-2.18-16.23c-.13-2.79-1.11-3.18-3.62-2.55-13,3.27-26.05,6.48-39.13,9.5-2.31.53-4.86.08-7.3.08v-1.4l44.34-10.83a10.74,10.74,0,0,0-1.66-.86c-14.11-3.42-28.15-7.22-42.39-10-4.13-.8-8.84,1.4-14,2.35a36.67,36.67,0,0,1,10.5,18.9c-3.82-.41-6.73-.62-8.21-4.66a212.06,212.06,0,0,0-8.53-19.74c-.77-1.59-3.07-2.45-4.66-3.64l-.93,1,10.27,24.51c-4.9-1.12-8.55-2.1-12.27-2.71-1-.17-2.26.74-3.4,1.16.84,1,1.5,2.6,2.55,2.92,3.72,1.14,7.58,1.86,11.38,2.73l18.21,4.16Zm-6.59,323.81.72.16c.62-1.08,1.29-2.14,1.86-3.24q15.37-29.95,30.73-59.9c8.18-15.91,16.34-31.84,24.66-47.68,2.44-4.65,5.42-9,8.09-13.54a2.08,2.08,0,0,0,.08-1.87,2.44,2.44,0,0,0-1.93-.64c-3.68.51-7.32,1.25-11,1.73-3.86.51-7.51,1.79-11.45,2.25-12.73,1.5-25.32,4.08-38,6.09-2.44.39-3.2,1.35-3.21,3.76-.06,17.39-.29,34.78-.38,52.17-.1,19.34-.12,38.67-.17,58C256.49,866.54,256.49,867.44,256.49,868.34ZM127.13,913.25v-.36c.51,0,1,0,1.52,0,3.09-.07,7.43,1,8.93-.54,1.72-1.81.79-6,1.25-9.17.4-2.75-.9-3.56-3.31-3.78-4.7-.45-9.38-1.12-14.09-1.51-2-.17-2.92-.8-2.77-2.92s.65-3.66,3.25-3.38c4.44.49,8.91.78,13.32,1.44,3.05.46,4.33-.31,4.17-3.59-.17-3.62.06-7.25.21-10.88.43-10.79.87-21.58,1.39-32.36.11-2.24-.66-3.17-2.91-3.4-4.86-.5-9.69-1.34-14.56-1.81-2.56-.25-2.69-1.9-2.22-3.54.29-1,1.62-2.47,2.41-2.43,5,.27,10.06,1,15.1,1.32a3.36,3.36,0,0,0,2.52-2.12c.66-12.55,1.09-25.11,1.67-37.66.13-2.78-1-3.68-3.7-3.78A120.29,120.29,0,0,1,124,791.61c-3.72-.63-4.7.76-4.72,3.95,0,.51-.06,1-.08,1.52q-.78,26.81-1.56,53.61c-.25,8.43-.49,16.85-.84,25.28-.47,11.54-1.1,23.08-1.45,34.63,0,.86,1.53,2.44,2.48,2.54A89,89,0,0,0,127.13,913.25ZM28.3,557.73A32.63,32.63,0,0,0,32,559.18q6,1.29,12,2.44,19.09,3.64,38.19,7.23c6.46,1.21,12.94,2.3,19.39,3.54q13.26,2.55,26.5,5.25c2.09.43,2.62-.39,2.79-2.33.88-10.5,2-21,2.74-31.49a3.94,3.94,0,0,0-2.18-3c-2.53-.85-5.31-1-7.89-1.71a3.28,3.28,0,0,1-1.94-2.4c.08-2.88-.87-3.44-3.6-2.72q-43.21,11.38-86.46,22.6C30.89,556.75,30.22,557,28.3,557.73Zm96.07-82.25-.33-1.22c-2.59-.28-5.41-1.35-7.74-.71-19.29,5.31-38.5,10.91-57.71,16.5-8.83,2.57-17.67,5.17-26.38,8.11-2,.66-3.41,2.81-5.1,4.28,3.39.71,6.14.26,8.68.79,16.6,3.42,33.15,7.05,49.72,10.61,10.78,2.32,21.61,4.44,32.31,7.05,3,.74,3.51.15,3.44-2.6-.31-12.41-.46-24.82-.77-37.23C120.42,478.26,120.32,475.7,124.37,475.48Zm201,236a6.45,6.45,0,0,0,.35-1.17c-1.64-21.26-3.27-42.52-5-63.76a3,3,0,0,0-2.35-1.68c-5.49.87-10.93,2.08-16.41,3-2.56.43-2.93,1.41-1.93,3.74,4.79,11.07,9.43,22.19,14.13,33.3ZM170.84,871.62h-.07a19.14,19.14,0,0,0,.19-4c-.12-.81-.91-2.09-1.54-2.18q-10-1.45-20.06-2.48c-.69-.07-2.13,1-2.17,1.6-.49,8.66-.85,17.32-1,26a3.27,3.27,0,0,0,2,2.43q9.49,1.33,19,2.12a3.21,3.21,0,0,0,2.43-2C170.19,885.93,170.48,878.77,170.84,871.62Zm-56.22,82h-1a32.83,32.83,0,0,1,0,4c-.38,3,1.21,3.68,3.75,3.42,5.34-.55,10.7-1,16-1.71,1.07-.14,2-1.18,3-1.81-1-.63-2-1.67-3.09-1.81-4.59-.6-9.21-1-13.83-1.35-2.31-.18-3.39-1.44-2.69-3.46.38-1.1,2-2.57,3-2.55,4.87.14,9.73.82,14.61,1,.83,0,2.43-1.17,2.48-1.9.5-6.47.68-13,1.06-19.43.12-2.1-.49-3-2.76-3.14-6.22-.28-12.42-.84-18.64-1.11-.58,0-1.74,1.27-1.75,2C114.59,935.1,114.63,944.36,114.63,953.62Zm-9.3-304.71c-.1.85-.23,1.51-.25,2.17-.35,13.74-.73,27.49-1,41.23-.31,15-.45,30-.83,45-.33,13.07-.89,26.13-1.28,39.19a3.36,3.36,0,0,0,.9,2,6,6,0,0,0,3-1.29c.58-.64.59-1.9.64-2.9q1-23.36,2-46.73,1.51-35.9,3-71.79C111.7,650.21,111.52,650.12,105.33,648.91Zm49.09,32.56c-.19,4-.45,6.68-.35,9.37a2.86,2.86,0,0,0,1.69,2.13q8.7,1.6,17.47,2.75a2.64,2.64,0,0,0,2-1.6q1-13.73,1.68-27.49a3.05,3.05,0,0,0-1.87-2.25c-4.1-.92-8.26-1.64-12.43-2.19a3.33,3.33,0,0,0-2.7,1.32C156.55,669.45,153.31,675.5,154.41,681.47Zm-9.9,272.46-1.86.8c1.1,1.22,2.17,3.44,3.3,3.48a32.74,32.74,0,0,0,9.46-1.3c1.87-.51,4.76-1.88,4.91-3.14.37-3.06,1.56-3.49,4-2.87,2.76.69,3.51-.54,3.49-3.17,0-5,.34-10,.27-14.93a3.33,3.33,0,0,0-2.1-2.44c-6.18-.82-12.41-1.32-18.61-2-2.15-.25-2.93.54-2.92,2.6C144.54,938.59,144.52,946.26,144.52,953.93Zm21.78-229.21c3.51-1.44,7-2.17,6.08-6.54a.49.49,0,0,1,.23-.42c3.19-.64,2-3.19,2.14-5.07.22-4,.32-8.09.25-12.13a2.85,2.85,0,0,0-1.67-2.14q-8.82-1.6-17.72-2.76c-.56-.07-1.82,1.06-1.85,1.68-.45,8.75-.7,17.51-1.11,26.27-.14,2.91.9,3.72,3.74,3.1,3.56-.78,7.14-2.35,10.87-.41.56.29,1.49-.14,2.25-.24l0-.75Zm72.62,178,1.3.23c.84-2.42,2.38-4.83,2.42-7.26.31-24.39.39-48.79.51-73.19q.16-32.55.24-65.09c0-.84-.74-1.68-1.13-2.53-.66.85-1.87,1.68-1.9,2.55-.56,15.26-1.25,30.53-1.38,45.8-.22,25.58-.06,51.16-.05,76.74Q238.91,891.33,238.91,902.7Zm-90.82-48c-.17,2.27-1.92,5.52,2.41,5.95,5.61.55,11.2,1.34,16.81,2,4,.45,5.63-1.66,4-5.45-3.51-8-7.14-16-10.8-24a4.06,4.06,0,0,0-2.14-2.21,42.31,42.31,0,0,0-8-1,2.94,2.94,0,0,0-2.16,1.9C148,839.44,148.09,847.05,148.09,854.67Zm16.48-66.86v.39a70.19,70.19,0,0,0,7.31-.49c.87-.14,2.23-1.26,2.26-2q.33-8.83.12-17.67a3.16,3.16,0,0,0-2-2.29c-6.31-1.08-12.65-2-19-2.72-.79-.09-2.47,1.43-2.52,2.28-.4,6.73-.57,13.47-.6,20.21a3,3,0,0,0,2.05,2.16C156.31,787.91,160.45,787.8,164.57,787.8Zm-7.14,131.9V920c2.87,0,5.75.15,8.61-.09a3.08,3.08,0,0,0,2.22-1.94q.72-9,.93-17.95a3,3,0,0,0-1.92-2.19c-6.44-.86-12.9-1.54-19.37-2.12a2.45,2.45,0,0,0-1.83,1.55c-.43,6.56-.78,13.14-.87,19.72a3.61,3.61,0,0,0,2.37,2.61C150.84,919.9,154.15,919.71,157.44,919.71Zm38-245.06c-.17-6.75-.17-6.75-6.77-7.9a26.29,26.29,0,0,1-3.73-.68c-2.8-.92-3.59.35-3.72,2.91-.45,8.59-1,17.17-1.42,25.76a3,3,0,0,0,1.78,2.31c2.94.71,6,1,9,1.58,1.9.39,2.94-.09,3.1-2.09Q194.49,685.59,195.4,674.64Zm-16-149.87c0,2.27.08,4.55,0,6.82s1,3.21,3.19,3.6c3.21.58,6.33,1.86,9.55,2.13,1.58.13,4.15-.93,4.79-2.19a119.86,119.86,0,0,0,5.69-14.07,3,3,0,0,0-1.37-2.66,63.53,63.53,0,0,0-11.33-2.56,24.48,24.48,0,0,0-8.33,1c-4.54,1.18-1.61,4.89-2.18,7.43A2.18,2.18,0,0,0,179.35,524.77Zm17.11,388.87-1.1.32c.53,1.83.49,4.48,1.69,5.31,2.82,1.92,1.69,5,.67,5.51-3.9,1.91-2.75,5.26-3,8.08-.5,6.13-.59,12.3-.92,18.44-.09,1.79-.79,2.92-3,2.16a2.54,2.54,0,0,0-1.86.59c-.21.15-.11,1.28.06,1.34a4,4,0,0,0,2,.17c5.14-1.19,10.27-2.41,15.38-3.71.79-.2,2.1-.87,2.09-1.3-.09-4.08.3-8.38-.86-12.18-1.61-5.28-4.43-10.2-6.76-15.26C199.48,919.94,198,916.8,196.46,913.64ZM174.54,757.21c-.19-2.44-.26-4.89-.66-7.29a2.91,2.91,0,0,0-1.78-2q-9.1-1.61-18.26-2.81a2.69,2.69,0,0,0-2.11,1.58c-.37,3.94-.55,7.91-.54,11.87A2.88,2.88,0,0,0,153,760.7q7.47,1.34,15,2.26C174.33,763.74,174.34,763.67,174.54,757.21Zm3.45,66.9c-.43,7.74-2,6.81,6.52,7.7.5.05,1.14.32,1.48.1,1-.59,2.48-1.32,2.55-2.1.52-6.46.9-12.94,1.06-19.42.23-9.28.14-9.33-9.23-10.07a3.13,3.13,0,0,0-2.28,2.06C177.92,809.63,178,816.87,178,824.11Zm-8.67-274.46c.28,4.46.4,7.75.77,11a2.67,2.67,0,0,0,1.62,1.82c3.68.91,7.4,1.74,11.15,2.28a3.38,3.38,0,0,0,2.83-1.57c1.64-4.94,3-10,4.38-15a1.79,1.79,0,0,0-.42-1.51c-1.88-1.62-8-.93-9.87.46a7,7,0,0,1-4.79,1.22C172.82,548,169.33,549.12,169.32,549.65ZM111.21,751.82l.84.12c1.32-7.39,3.24-14.74,3.81-22.19.85-11.09.67-22.25,1.05-33.38.47-13.74,1.09-27.47,1.54-41.21,0-.87-.8-1.76-1.24-2.64-.46.82-1.29,1.62-1.33,2.46-.62,13.56-1.08,27.14-1.7,40.7-.58,12.63-1.29,25.26-2,37.89C111.9,739.65,111.55,745.74,111.21,751.82ZM143,772.47l.74-.11a15.55,15.55,0,0,0,.28-1.9c.18-7.08.11-14.18.59-21.24.28-4.16-.66-6.37-5.23-6.31a43.3,43.3,0,0,1-7-.9c-3-.46-2.91,1.29-2.1,3.17,1.29,3,2.84,5.92,4.2,8.9,1.81,4,2.21,8.46,5.47,11.89C141.46,767.61,142,770.27,143,772.47Zm34.17,126.29c-2.44-.78-3.16.53-3.14,3.15,0,3.53-.37,7.07-.44,10.61-.15,7.09-.11,7.08,6.89,7,.58,0,1.32.45,1.71.22.9-.52,2.24-1.26,2.32-2,.4-3.59.46-7.23.59-10.85C185.34,899.22,185.32,899.22,177.13,898.76Zm5.4-276.53c1.72.45,2.49.7,3.29.86,7.93,1.56,15.86,3.12,23.79,4.63,6.78,1.29,5.71,1.45,5.75-4.85,0-8,0-8-7.84-6.25C199.5,618.41,191.48,620.23,182.53,622.23ZM173,946.33c-.62,5.75-.62,5.75,5.2,6.08a12.21,12.21,0,0,1,2.26.19c2.08.52,2.78-.52,2.84-2.36.11-3.28.19-6.57.29-9.85.28-8.61.29-8.67-8.28-9.25a3.1,3.1,0,0,0-2.21,2.08C172.86,937.58,173,942,173,946.33ZM179,711.11c-.17,7.83-.17,7.83,7,8.65.08,0,.2.06.25,0,1-.66,2.52-1.18,2.74-2,1.21-4.74,2.16-9.55,3-14.37a2.6,2.6,0,0,0-1.43-2.1,47.08,47.08,0,0,0-8.47-1.4,3.39,3.39,0,0,0-2.52,2.15C179.16,705,179.19,708.07,179,711.11Zm-33.61-19c-3.89,7.69-8.17,16.08-12.32,24.53-.21.43.62,2,1.19,2.09a86.54,86.54,0,0,0,9.19,1.65c.59.08,1.86-.73,1.86-1.14C145.45,710,145.43,700.73,145.43,692.06Zm30.42,176.18c-.18,1.38-.31,2-.35,2.64-.33,6.38-.61,12.77-1,19.15-.36,6.07-.35,6.12,5.71,6.5,5.21.32,7.09-2.3,5.32-7.45-.3-.87-.7-1.71-1.08-2.56q-3.6-7.93-7.23-15.86C177,870,176.55,869.46,175.85,868.24Zm82.67-251.6a54,54,0,0,0,.09,6.32c.08.64,1.34,1.74,1.89,1.64,4.16-.7,8.28-1.6,12.39-2.58a2.34,2.34,0,0,0,1.47-1.58c.34-4.6-3.93-10-8.28-10.59C258.48,608.74,258.48,608.74,258.52,616.64ZM126.81,707.89l1,.27c.35-.74.75-1.47,1.05-2.23,4.55-11.51,9.13-23,13.55-34.56.36-.94-.33-2.27-.54-3.42-2.13.47-5.25-2.92-6.36,1.62-1.67,6.87-3.45,13.72-5,20.61C129.14,696.05,128,702,126.81,707.89ZM216.14,735c-.59-.76-1.31-2.57-2.52-3a30,30,0,0,0-7.44-1.28c-.72-.07-2.14.54-2.17.93-.38,4.5-.55,9-.77,13.54l9.26,2c.25.05.59.18.74.07.62-.46,1.61-.93,1.7-1.52C215.43,742.53,215.69,739.27,216.14,735Zm-36.15,52c3-.29,5.38-.68,7.71-.7s3.14-1.06,3.19-3.2c.11-4.37.44-8.73.29-13.09,0-.72-1.92-1.79-3.07-2-1.43-.22-4.17,0-4.3.56C182.34,774.59,181.27,780.59,180,787.06Zm-45.57-11.49c-3.24-7.16-6.16-13.66-9.15-20.12-.19-.41-.9-.59-1.37-.87-.33.55-.89,1.07-.95,1.64-.63,6-1.23,12-1.65,18.07,0,.7,1.1,2.15,1.66,2.13C126.54,776.34,130.11,775.94,134.42,775.57Zm38.34-318.66-23.92,7v.75l23.06,4.87Zm-65.69,385,.57,0c.63-4.25,1.79-8.51,1.7-12.74A7.49,7.49,0,0,1,111.7,823c.62-.62.85-2.76.4-3.13-2.46-2-1.58-4.47-1.83-6.94-.66-6.67,3.37-12.12,4.32-18.34.3-1.94-2.66-5.36-4.49-4.91A2,2,0,0,0,109,791a36.09,36.09,0,0,0-.47,4.77q-.76,20.34-1.46,40.68C107,838.29,107.07,840.09,107.07,841.89Zm134-263.79-1.07-.23c0-2.54.29-5.13-.16-7.6-.16-.86-2.05-1.64-3.28-2a3.18,3.18,0,0,0-2.78.66c-1.79,2.39-.4,9.93,2.11,11.87a5.19,5.19,0,0,0-1.32.17c-.74.32-1.45.74-2.17,1.13a7.21,7.21,0,0,0,2.17,1,42,42,0,0,0,6.53.15c.73-.05,2-1,2-1.53a68.09,68.09,0,0,0-.93-7.32Zm92.05,57.76L377,627.48c-2.19-3.07-16.81,0-18.08,2.42-1.62-.18-3-.64-4.22-.42-4.89.89-9.75,2-14.61,3-3.9.84-7.79,1.72-11.68,2.58v1.06l5.51,1.23ZM109.44,923.62l-.91-.1a12.77,12.77,0,0,0-.44,1.81c-1.1,11.39-2.22,22.78-3.16,34.18-.07.82,1.27,1.75,2,2.63.58-.78,1.61-1.53,1.65-2.34q.6-10.84.87-21.7C109.54,933.28,109.44,928.45,109.44,923.62Zm79.8-157c.78-.71,2.16-1.36,2.24-2.15a77.77,77.77,0,0,0,.5-11.33c0-.9-1.67-2.09-2.8-2.45-.6-.19-2.2,1-2.43,1.79-.8,2.74-1,5.65-1.78,8.39C183.95,764.38,184.36,766.52,189.25,766.6ZM150,810l-1.48.18c0,4.82,0,9.64,0,14.45,0,.84.52,2.3,1,2.39a75.93,75.93,0,0,0,7.91.8,2.34,2.34,0,0,0,.1-1.14C155.06,821.15,152.52,815.6,150,810ZM261.67,560.87c-2.32-5.39-4.37-10.71-7-15.77-.54-1.06-3-1.11-5.19-1.82,1.82,4.37,3.34,7.73,4.62,11.19S256.81,561,261.67,560.87Zm-73.2,230.6c-3.4.51-5.8.62-8,1.3a3.77,3.77,0,0,0-2.28,2.7c0,.91,1.36,2.29,2.38,2.6,2.06.62,4.31.56,6.45,1,4.9.89,2.79-3,3.17-4.92C190.35,793.3,189,792.16,188.47,791.47Zm-24.54-219c.55-5.57-5.57-9.33-14.76-9.3C152.89,568.54,157.85,571.15,163.93,572.52Zm41.87,12.14c-1,3.53-2.39,5.29-6.06,3.74-.22-.09-.72.46-1.09.72.38.51.66,1.32,1.15,1.47a47.82,47.82,0,0,0,7.54,1.94c3.31.45,6.67.48,10,.61.39,0,.8-.53,1-.68l-10.4-5-.69,2.11ZM97.11,957.21c.83-9.67,1.86-21.38,2.79-33.1.06-.77-.61-1.6-.94-2.41-.48.77-1.31,1.52-1.38,2.33-.28,3.43-.42,6.89-.45,10.34C97.07,942.65,97.11,950.94,97.11,957.21ZM265.43,443.44h.3V377.56h-.3ZM177.76,736.9l.9.54c-.9,3.59.77,5.31,4,4.76,3.71-.63,1.75-4.39,2.92-6.49-1.62-.71-3.25-2-4.84-1.92C179.72,733.83,178.76,735.8,177.76,736.9Zm.29,25.92,1.16,1.71c.49-.67,1.26-1.28,1.43-2,.74-3.28,1.28-6.6,2-9.89.35-1.7.61-3.09-1.83-3.46s-2.62,1.31-2.68,2.87C178,755.36,178.05,758.72,178.05,762.82Zm-26.58,31.42c7.48,1,13.75,1.94,20,2.65.74.08,1.6-.95,2.41-1.46-.8-.71-1.58-2-2.39-2-5.71-.14-11.43,0-17.15,0A16.79,16.79,0,0,0,151.47,794.24ZM263.75,377.07l-.36.07v65.8h.36Zm6.54,188.21.06-.75c-2.55-.62-5.09-1.36-7.67-1.83a29.85,29.85,0,0,0-4.8,0c.57,1.47,1.33,3.61,2.24,5.68.3.69,1.13,1.77,1.47,1.69a8.11,8.11,0,0,0,2.65-1.57,23.42,23.42,0,0,1,2.74-2.28A14.58,14.58,0,0,1,270.29,565.28Zm2.61,176.66v-.57c-4.39-.71-8.77-1.43-13.16-2.11-2.38-.37-2.59,1.34-2.2,2.84.23.88,1.53,2.23,2.18,2.14C264.15,743.66,268.51,742.74,272.9,741.94ZM257.26,375.56l-.43.06v66.24h.43Zm4.45,3.2-.44,0v63.68h.44ZM157.31,559.56c-1.4-7-1.4-7-7.46-5.48a9.34,9.34,0,0,0-1.94.49,9.36,9.36,0,0,0-1.6,1.27c.47.53.85,1.39,1.41,1.53C150.78,558.17,153.88,558.79,157.31,559.56ZM147,652.47c1-1.76,2.32-2.91,2.21-3.92-.4-3.94-4.09-2.05-6.23-2.89-.36-.14-1.67,2.13-2.55,3.29Zm-32.6,106.47H114c-1.17,5.52-2.39,11-3.42,16.56-.1.51,1,1.24,1.47,1.87,1-1.91,2.45-3.72,3-5.76.39-1.4-.54-3.11-.61-4.7C114.32,764.27,114.41,761.6,114.41,758.94Zm30.23-30.26,0-.81c-3.87-.63-7.73-1.39-11.63-1.75-.5,0-1.4,1.88-1.67,3-.11.46,1.07,1.79,1.51,1.72C136.78,730.25,140.7,729.43,144.63,728.68Zm32.77-70.31H162.76A3.24,3.24,0,0,0,165,660c3,.55,6,.82,9,1.57C177.26,662.43,177.9,661.07,177.41,658.38ZM145.19,546.8c1,1.3,1.95,3.08,2.28,3a71.61,71.61,0,0,0,7-3.08,61,61,0,0,0-6.92-2.68C147.13,543.89,146.2,545.57,145.19,546.8ZM259.2,442h.42V375.78h-.42Zm-18.71,300h-.06a20.69,20.69,0,0,0,.05,3.52,6.94,6.94,0,0,0,1.18,2c.65-.62,1.8-1.19,1.86-1.85a44.82,44.82,0,0,0,0-7.55c0-.6-1.16-1.11-1.78-1.66-.42.57-1.1,1.1-1.19,1.72A25.1,25.1,0,0,0,240.48,741.91ZM196.15,474.78c.48.6.87,1.39,1.11,1.35,2.82-.51,5.62-1.09,8.4-1.78.38-.09.59-.86.88-1.32-.46-.29-.95-.87-1.37-.83-3.85.39-7.69.85-11.52,1.41-.44.06-.78.86-1.16,1.32.62.27,1.26.8,1.85.75A5.21,5.21,0,0,0,196.15,474.78ZM55,614.73c1.93-.27,3.78-.59,5.65-.79,1.58-.17,3.17-.2,4.76-.3,3-.18,3.32-2,2.81-5-2.07,1.11-3.79,2.06-5.54,2.93a2,2,0,0,1-1.39,0C58.26,610.6,55.58,612.13,55,614.73Zm242.19,2.34-.09-.78L285,613.86l-.82,1c1.16,1.35,2.32,3.84,3.49,3.85C290.88,618.73,294.06,617.69,297.24,617.07ZM254.62,441.36h.47V377.26h-.47ZM121.27,752.29c-6.87,1.83-7.72,3.59-4.45,9.79-.44-3-.23-4.74,2.6-3.23.2.11,1.22-.66,1.3-1.12C121,756.06,121.08,754.34,121.27,752.29Zm4.41-108c-1.38-.9-2.14-1.79-2.68-1.67-2.26.51-4.45,1.33-6.67,2a43.82,43.82,0,0,0,6.45,2.62C123.33,647.45,124.35,645.74,125.67,644.33Zm14.26,12.27c-.32.34-1.28.93-1.47,1.71-.11.45.9,1.53,1.6,1.76a14.76,14.76,0,0,0,4.92.9c.81,0,1.59-1.17,2.38-1.81-.56-.64-1-1.68-1.71-1.86A42.2,42.2,0,0,0,139.93,656.6ZM176.4,926.2l-.25-.81a17.36,17.36,0,0,0-2.55,1.52c-.17.14.2,1.45.4,1.47,3,.29,6.06.54,9.1.55.36,0,.89-1.43,1-2.24,0-.26-1.08-.94-1.66-.93C180.41,925.78,178.41,926,176.4,926.2Zm5.15-267.7c.44,1.52.55,4.13,1.37,4.37a70.26,70.26,0,0,0,11.11,2c.44.06,1-1.09,1.55-1.67-.62-.4-1.24-1.13-1.86-1.14a11.27,11.27,0,0,0-3.7.64C185.64,664.25,183.74,661.64,181.55,658.5ZM185,732.64c.81-1.42,1.63-2.33,1.78-3.33.08-.56-1.12-1.93-1.46-1.84-2.23.59-4.39,1.47-6.57,2.26Zm32-163.92c-2.24,5.2-.31,11.61,3.89,11.75Zm12.58,5.84h1.27v-14h-1.27Zm-205,42.71,1.5,1.73a11,11,0,0,0,1.28-2.72,50.72,50.72,0,0,0,.62-6.39c0-.57-.52-1.16-.81-1.74-.52.44-1.4.81-1.51,1.33C25.26,611.73,25,614,24.61,617.26ZM192.53,737.63l-1.11-2.34c-.59,1.05-1.19,2.1-1.76,3.16a1.22,1.22,0,0,0-.15.73c.26,1.46.57,2.9.86,4.36.72-1.34,1.45-2.67,2.14-4A8.31,8.31,0,0,0,192.53,737.63Zm-70.72-.09,2.39,8.72.51-.22-.94-11.67a20.43,20.43,0,0,0-2.89,1.65c-.42.31-.39,1.21-.68,2.23Zm22-190.47h0a6,6,0,0,0,0-1.74,14.87,14.87,0,0,0-1.07-2.17,8,8,0,0,0-1.24,2.08,14.4,14.4,0,0,0-.43,4c0,.72.65,1.42,1,2.13a9.32,9.32,0,0,0,1.66-2A6,6,0,0,0,143.82,547.06Zm32.76,24.8c-1.62-1.2-3.08-2.37-4.63-3.38a8.09,8.09,0,0,0-2.17-.67c.06.94-.25,2.19.24,2.76C171.65,572.5,173.72,573.52,176.58,571.86Zm-67.67,341,1.3.09.94-19-.69,0Zm58.88,14.74,0-1.27H153.56v.4Zm42.77,32.26a44.5,44.5,0,0,0,5.2-.08c.49-.06,1.18-1,1.23-1.57a2.65,2.65,0,0,0-.74-2.16C214.73,955.1,210.56,958.3,210.56,959.82ZM134.19,787.13l.05-.42c-2.65-.37-5.33-.64-8-1.17a7.33,7.33,0,0,1-2.54-1.58c-.7-.52-1.31-1.15-2-1.74-.49.59-1.51,1.48-1.39,1.7.47.81,1.26,1.87,2,2C126.34,786.47,130.27,786.75,134.19,787.13Zm42.4-59.23a22.73,22.73,0,0,1,.14-2.29,19.45,19.45,0,0,1,.57-2.2,21.55,21.55,0,0,0-2.39.08,6.76,6.76,0,0,0-2.16.6,8.16,8.16,0,0,0-1.53,1.34,10.6,10.6,0,0,0,1.72,1.15C174.12,727.1,175.37,727.47,176.59,727.9Zm15-5.09c1-.93,1.91-2.38,2.94-2.49,1.69-.19,3.46.57,5.22.78a10.18,10.18,0,0,0,2.42-.29c-.17-.48-.36-1.38-.52-1.38-3.82.08-7.63.26-12.29.45Zm-59.85-75,2.33,1.83a23.29,23.29,0,0,0,1.9-3.89c.12-.4-1-1.15-1.51-1.74Zm28.53-87.3,1.32-.53c-.57-2.34-1.1-4.69-1.74-7a1.37,1.37,0,0,0-1-.82c-.35,0-1,.67-1,.88C158.65,555.49,159.49,558,160.31,560.46Zm16,91.54c-3.34-.26-6.74-3.25-10-1.18l0,1.18Zm-8.93-91.19,1.58-.13-1-10.41-1,.1Zm-5.22-9.26c-1,4,.7,8.61,3.29,9.2ZM28.36,607.38l-.85-8-1.37-.12a52,52,0,0,0-.13,5.93C26.07,605.81,27.14,606.3,28.36,607.38Zm214.8,7.71-1.47,0v8l1,.06ZM56.48,607.63l-.23-1.53L48.47,608l.29,1.36ZM242.59,728.78l1.47-.75-1.46-4-1.89.83ZM226.77,563.37c-1.11-1-1.94-2-2.23-1.88a9.85,9.85,0,0,0-2.26,1.93c.72.54,1.38,1.35,2.17,1.52C225,565,225.65,564.17,226.77,563.37ZM183.12,174h-1v7.63h1Zm33.16,390-3-2.51c-.44.55-1.36,1.31-1.23,1.62a4.63,4.63,0,0,0,1.83,2.09C214.2,565.36,215.07,564.61,216.27,564Zm-29.46-152h.14v-19h-.14ZM192.89,870l1,.09v-5.41h-1ZM110.4,783.23v.61a14,14,0,0,0,3,.6,6.36,6.36,0,0,0,2.44-.85,1.91,1.91,0,0,0-.13-1.05,9.13,9.13,0,0,0-2.29,0C112.42,782.69,111.41,783,110.4,783.23Zm4,46.29,1,.06.44-7.27-1.12-.07Zm92.86-257.46.64.07V561.66l-.64,0ZM128,754.91c1.8,0,2.65,0,3.51,0a1.62,1.62,0,0,0,1.08-.34c.18-.23.13-1,0-1.06a6.32,6.32,0,0,0-2.94-.78C129,752.81,128.62,754,128,754.91ZM156.36,651l1.14,1.21,3-2.89-1.14-1.21Zm12,76.61-.59,1.11c.65.5,1.34,1.45,1.93,1.39.75-.08,1.42-1,2.12-1.51ZM25.93,592.16l-1.11.41,1.62,4.58,1.24-.45ZM321.55,710l.95-1.11-2.77-2.44c-.18.48-.65,1.21-.49,1.41A20.86,20.86,0,0,0,321.55,710Zm-51.21-63.15.15,1.05,6.42-1.48-.16-.85ZM183.23,166.65l-1.23.15c0,1.2-.05,2.4,0,3.59,0,.3.45.66.78.82.16.08.75-.27.74-.41C183.49,169.41,183.35,168,183.23,166.65ZM300.25,642l-.42-1.19-3.19,1.07.48,1.29ZM194.13,848.39l-.58.05v4.5l.93,0Zm3-377.34.17.93,4.74-.75-.19-1.05Zm.39,125.6.18-1.39h-3.34l-.14.92Zm45.06,16.14,1.14-.14-.55-3.86-1.07.13ZM191.06,732.45l1.3.22.28-3.55-1-.13ZM36,615.5l-1.38.25.63,3,1.12-.21ZM25.54,526.36l-1.17,0,.31,3.35.86,0Zm290.63,112.2.16.84,3.24-.66-.35-1ZM123.07,746.22l-1.19,0c.09,1,.16,1.9.3,2.85a4.14,4.14,0,0,0,.85,0C123.08,748.13,123.07,747.17,123.07,746.22Zm73.72-157.7-.28-1.2L193,588l.09.75ZM187.7,126.3l-1.4-.06c0,.87,0,1.73,0,2.59a3.88,3.88,0,0,0,1.06,0C187.56,128,187.62,127.16,187.7,126.3Zm-55.78,532,1.27.2c.06-.86.14-1.71.15-2.57a3,3,0,0,0-.84-.1C132.27,656.65,132.1,657.48,131.92,658.31Zm33.51-107.69-1,.18.78,3.59.63-.11Zm76.23-4.29.9.23v-4.84l-.19,0Zm-24.31,42.44-.39.75,2.77,1.46.42-.8ZM282,644.18l-.14.91,3.62.7.16-.79Zm-102.3-73.84.25-.94-3.52-.83-.17.68Zm-.06,196.78-.87-.1v3.82l.36,0Zm142.92-52.18.95,0v-2.79a9,9,0,0,0-.91,0C322.51,713.12,322.52,714,322.52,714.93Zm-209,126.29.78.11.36-3.69-.77-.08Zm73.25-452.06H187v-6.39h-.14ZM11,621.78l-.6.87,1.68,1,.49-.73ZM107.54,780.4l-1-.38-.45,2.18.82.22Zm79-658,.87-.22-.59-2.3-.74.19Zm.24,308.74H187v-5.92h-.15Zm0-10.65H187v-5.41h-.14ZM179.42,960.7l0,.47h2.66v-.47ZM180,591.56l-.15.75,2.47.52.15-.75ZM142,735.49l0,.48h2.6l-.06-.76Zm-4.78-192.26.25-.91-2.28-.5-.16.57ZM125.4,742.84l.8.41.77-1.66-.76-.35Zm78.49-272.78.15.9,1.68-.3-.11-.77ZM166.4,575.24l-.8.05.2,2,.6,0Zm-8.86-27.64.86-1a3.43,3.43,0,0,0-.9-.66c-.14,0-.63.38-.6.53A4,4,0,0,0,157.54,547.6Zm130.37,43.57-.19.67,2.44.45.12-.47ZM26.11,550.82l-.72-.81-.71.71c.21.21.4.53.64.59S25.76,551,26.11,550.82Zm148.8-154.41-.4-.13L174,399l.64,0Zm-.7,49.66.46,0v-2.66h-.27ZM33.44,616.72l-.64-.09.09,2,.56,0ZM187,438.43h-.15v3.39H187Zm-67.47,323.2c-.49-.22-.79-.48-1-.42s-.35.43-.52.67c.24.16.49.46.73.45S119.12,762,119.51,761.63ZM150.31,926l.06-.23h-3V926Zm66.13-199.83-.65-.09v1.57l.44,0Zm-97.89,64.5-.5-.17-.45,1.3.54.18Zm75.95,83.09c-.32-.28-.52-.57-.62-.54a2.68,2.68,0,0,0-.7.47c.14.16.29.46.43.45A3.12,3.12,0,0,0,194.5,873.73Zm11.81,83,.75-.11-.34-1.81-.62.13ZM304.36,730.6l-.68-.46L303,731.4l.52.35ZM422.84,612.77c.2-.55.43-.85.36-1.06s-.44-.32-.7-.36c-.08,0-.34.38-.3.53S422.5,612.32,422.84,612.77ZM117.36,795.46l.63.12.09-1.33-.44-.06Zm167.3-67.62-.6-.06v1.68l.33,0Zm33.77-175a8.21,8.21,0,0,0-.5,1.58,5.94,5.94,0,0,0,1,.52ZM27.77,507c-.23-.19-.39-.43-.58-.45s-.3.26-.45.4l.6.58Zm275,135.5.23.55,1.4-.5-.13-.45ZM126.12,751l-.18-.54-1.16.44.1.33ZM217,565.62c-.17.31-.37.51-.36.69s.26.3.41.46c.13-.18.35-.35.36-.54S217.24,565.89,217,565.62Zm-49.31,2.58.56-.39-.84-1-.43.34Zm-1.31,4.67.35-.52c-.31-.17-.61-.34-.93-.48a1.19,1.19,0,0,0-.21.36C165.87,572.45,166.15,572.65,166.42,572.86Zm10.87-113.4-.35-.54c-.27.25-.56.49-.81.76a1.19,1.19,0,0,0,.25.34C176.69,459.85,177,459.65,177.29,459.46Zm48,123c0-.16,0-.36-.07-.36-.47,0-.94-.06-1.42-.09v.34Zm-2,7.51,0,.5h1.57l0-.33Zm20.21,62.84-.06-.38-1.83.32.05.31Zm64.67-12,.08.38,1.25-.26-.09-.41ZM242.63,627l-.54-.27-.51,1.08.36.2ZM174.73,390h-.37l.09,1.93h.28ZM384.61,623.55c-.42-.28-.64-.52-.87-.53s-.48.35-.45.47a2.37,2.37,0,0,0,.48.72ZM220.7,771.15l-.36-.31-.3.53c.14.06.3.18.42.15S220.62,771.28,220.7,771.15ZM25.76,511.9c-.12.11-.31.2-.32.31s.13.26.21.39l.46-.38Zm118,44.6.07-.45-1.12-.17-.07.44ZM26.1,564.41l-.58-.6a1.85,1.85,0,0,0-.31.54c0,.1.18.35.28.35S25.83,564.55,26.1,564.41Zm352.07,59.68.36.25.67-1-.35-.24ZM240.31,587.35l.34-.25a2.94,2.94,0,0,0-.51-.29s-.15.21-.23.33Zm-36,6.72c1,.68,1.2.87,1.27.84a2.68,2.68,0,0,0,.53-.45Zm-43.06,1.24c-1-.69-1.22-.89-1.3-.85a2.67,2.67,0,0,0-.53.45Zm92.28,282.77ZM231.37,587.66Zm-59.19,8.06c-.12-.1-.29-.29-.32-.26a2.2,2.2,0,0,0-.37.39c.13.06.27.18.39.16S172.08,595.83,172.18,595.72Zm13.73,2.56a2.53,2.53,0,0,0-.8-.25c-.1,0-.18.3-.26.46.14.06.29.18.42.15A2.82,2.82,0,0,0,185.92,598.29Zm58.75,26.63c-.18.41-.29.54-.27.66a6.22,6.22,0,0,0,.17.79ZM231,938.44l.29.28c0-.06.15-.16.14-.18a2.56,2.56,0,0,0-.27-.3Zm8.29-428.09.35-.26c-.1-.1-.2-.26-.31-.28s-.22.13-.33.21ZM174.82,466l-.39,0-.16.76.3.07ZM191,565.15c-.32.41-.51.59-.48.63a3.92,3.92,0,0,0,.48.55ZM215,589.41l-.32.29c.11.09.22.25.32.25s.21-.16.32-.25ZM186.79,435.5H187l-.09-.83c-.05,0-.15,0-.15.08C186.78,435,186.79,435.25,186.79,435.5ZM40,619.57c-.12-.09-.23-.24-.34-.24s-.22.15-.32.24c.11.08.21.23.32.23S39.86,619.66,40,619.57ZM313.06,639.7c.54-.23.27-.12,0,0C313.32,639.77,313.58,639.85,313.06,639.7ZM261.32,376.06l-.28-.3a2.07,2.07,0,0,0-.21.32s.1.17.12.16A2.61,2.61,0,0,0,261.32,376.06Zm-8.12-1.83c-.1.12-.26.23-.25.34s.16.23.26.34l.35-.43ZM242.09,721.57l.2-.14a2.48,2.48,0,0,0-.27-.28s-.12.08-.18.12Zm-43.54.12c-.11.12-.28.23-.29.35s.18.21.28.31c.11-.1.28-.2.3-.32S198.67,721.83,198.55,721.69ZM171.64,249.16l-.34.2c.08.11.15.28.26.33s.22-.11.34-.17Zm4.53-86.93L176,162a3.14,3.14,0,0,0-.32.2.68.68,0,0,0,.1.18A3.14,3.14,0,0,0,176.16,162.23Z" fill="#328ecd"/><path d="M314.77,967.1l-2.81-.78v-.56h11.78v.65l-4.4.69Z" fill="#328ecd"/><path d="M285,484.54l-1.83-.1-.15.64c2.35.68,4.67,1.45,7.05,2,10.51,2.46,21.05,4.83,31.56,7.32a9.56,9.56,0,0,1,2.56,1.6,19.19,19.19,0,0,1-2.55,1.66,33.72,33.72,0,0,1-5.35,2.06c-.87.23-1.93-.25-3-.12h-3.69l1.25,14.66-.55.06a32.78,32.78,0,0,1-.54-5.74c.28-3.69-1.29-4-4.36-3.16-11,2.95-22,5.76-33.1,8.5a10.88,10.88,0,0,1-4.93.14c-7.72-1.82-15.39-3.85-23.08-5.79-5.34-1.35-8.2-4.85-8.25-10.47-.05-4.81.09-9.62.12-14.44,0-1.44,0-2.22-2.18-2.29a6.76,6.76,0,0,1-4.9-3.49c-.8-1.83-.86-5.42.28-6.32,1.59-1.25,4.59-.72,7-.28l-5.08.24-.16,1.12c15.23,3.5,30.07,8.63,45.56,10.26l-1.07.36,0,.49h9.39Zm-42.43-1.19-.27.54a25.28,25.28,0,0,0-3.48-1.47c-.31-.09-.88.74-1.33,1.14.32.32.59.82,1,.93,4,1.13,7.92,2.27,11.91,3.26,9.23,2.27,18.54,4.29,27.73,6.73,9,2.39,18.26,3.5,27.16,6.27a16,16,0,0,0,2.29.37l.51-1c-1.19-.8-2.29-2-3.6-2.32-5.07-1.41-10.22-2.54-15.33-3.82-6.31-1.58-12.6-3.29-18.93-4.81-6.76-1.63-13.54-3.14-20.33-4.62C247.5,484,245,483.74,242.6,483.35Z" fill="#328ecd"/><path d="M346.07,965l-9.75-120.14c.36,3.49,3.17,2.94,5.32,3.64,1.17.38,2.75,1.78,2.84,2.83,2,23.77,3.86,47.56,5.78,71.34.9,11.17,1.89,22.34,2.87,33.51.26,2.94.92,5.81-3.85,5.58C348.18,961.73,347,964.05,346.07,965Z" fill="#328ecd"/><path d="M351.24,476.6c7.39,2.42,14.67,5.25,22.19,7.14,7.06,1.77,14.4,2.43,21.57,3.83,2,.39,3.76,1.7,5.65,2.56A9.69,9.69,0,0,0,403,491c4.38.72,8.77,1.4,13.17,2a22,22,0,0,0,3.25,0,23.5,23.5,0,0,1,3.17,2,11.49,11.49,0,0,1,2.86,3.29c4,8.44,2.69,17.36,2.3,26.23-.29,6.55,0,13.13.07,19.7a30.39,30.39,0,0,1-.3,3.09l1.54.11-.66,2.66,1.33.62c-.1,4-3.1,1.13-4.52,1.78.23-2.67.58-5,.59-7.31q.1-18.09,0-36.18c0-4.29-1.73-5.75-5.91-4.76q-37.94,9-75.84,18.13c-6.4,1.54-12.76,3.25-19.2,4.61-1.76.37-3.73-.28-5.6-.46l0-1.34L422.85,500l.23-1.16c-1.56-.93-3-2.29-4.71-2.73-13.07-3.41-26.18-6.63-39.28-9.91q-33.77-8.46-67.54-16.91-15.2-3.79-30.44-7.44c-.41-.1-1.33.67-1.51,1.2-.26.79-.07,1.72-.07,3.81a15,15,0,0,1-1.07-2.89c-.16-3-1.29-4.31-4.36-2.93a2.43,2.43,0,0,1-1.45-.1c-5.56-1.49-11.13-3-16.68-4.55a47.32,47.32,0,0,1-4.64-1.94l.69,14.1h-3.64c.71-1.94,1.65-3.51,1.84-5.18,1-8.51.65-8.94-7.56-11.18-3.43-.94-6.9-1.74-10.35-2.6l.19-1.2c4,.53,8,.74,11.91,1.68,5.32,1.29,10.51,3.12,15.76,4.73,3.86,1.19,7.67,2.52,11.56,3.56,4.7,1.25,9.45,2.28,14.19,3.38,6.7,1.56,13.44,3,20.11,4.66,8.14,2,16.2,4.37,24.34,6.4,5.45,1.36,11,2.49,16.46,3.62a29.35,29.35,0,0,0,4.44.25l-.09.06Z" fill="#328ecd"/><path d="M229.49,0c.14,2.71.38,5.42.41,8.13q.23,23.65.39,47.29a4.39,4.39,0,0,0,4,4.74,5.17,5.17,0,0,1,2.87,1.36c-1.73,0-3.47-.1-5.19,0a8.86,8.86,0,0,0-3.82.85c-1,.61-1.59,1.93-2.36,2.93,1,.25,2.06.48,3.08.76,5,1.38,10.16,2.33,14.9,4.31,4,1.65,4.33,5.4,1.44,7.37-5-8.12-18.78-8.42-24.89-.8-1.24,1.55-4.92,3.29-5.6,2.71a11.73,11.73,0,0,1-3.36-6.39c-.93-4.6,1.29-8.73,2.95-12.89,1.2-3,3.08-3,5.52-1.21,1.4,1.05,4.16,1.11,5.94.52,1.12-.37,2.19-2.75,2.23-4.25.22-9.53.15-19.06.17-28.6,0-8,0-16,0-24A27.32,27.32,0,0,1,228.45,0ZM216,61.14l.75.65a14,14,0,0,0,1-1.27,2.57,2.57,0,0,0-.58-.54C216.77,60.34,216.41,60.75,216,61.14Z" fill="#328ecd"/><path d="M211.5,469l-1.38-9.23,1.3-.34a11.4,11.4,0,0,1,1.11,3.14c.16,3.41,2.33,4.28,5.16,4.44,1.18.07,2.36,0,3.54,0,3.93,0,4.51.88,3.64,4.71-.2.89.38,1.94.3,2.89a16.72,16.72,0,0,1-.76,3.35c-.41,1.39-1.22,2.74-1.28,4.14-.14,3-1.66,3.82-4.38,4.17-1,.13-1.7,2.05-2.66,3s-2,1.72-3.73,3.2l4.21,4.37-1.82,1.94,1.29,0,.79,10.78h3.68c-4.37,1.88-2.65,5.71-3.36,8.85l4.46.51c-6.74,3-2.86,8.53-5.09,12.66l-1.27-13.16-.5,2.23-.82.1-1-7.63a8.45,8.45,0,0,1-.87-2.49c-.07-2.6.34-5.25,0-7.8-.18-1.41-1.45-2.69-2.27-4.1l2.17-4-3.94,1.3,3.26-7.59L207.63,490c4-6.09.77-13.22,5.19-18.3l-1.21-.42.06-.49c2.72,0,5.45,0,8.17,0a14.91,14.91,0,0,0,2.75.17c.59-.11,1.08-.82,1.61-1.26a5.73,5.73,0,0,0-1.8-.69C218.58,468.92,214.77,469,211.5,469Z" fill="#328ecd"/><path d="M170.29,120.93c-4.3-10.72-1.54-20,7.63-24.91,5.45-2.91,11.51-4.71,17.34-6.88a4.1,4.1,0,0,1,2.51.42,11.79,11.79,0,0,1,2.07,1.31l.32-2.86a88.33,88.33,0,0,0,9.65,1.18c4.16.08,8.32-.55,12.48-.56,20.63,0,41.11.83,59.38,12.21,5.23,3.26,7.14,6.85,6.53,11.91-1.31-8.42-7.12-12.11-13.56-14.89-13.31-5.73-27.39-7.89-41.77-7.48-10.3.29-20.73.59-30.81,2.45-8.12,1.5-15.91,5.1-23.62,8.33-2.14.9-3.21,4.06-5.17,5.72C168.85,110.63,171,115.67,170.29,120.93Z" fill="#328ecd"/><path d="M204.84,444.21c.13-6.36.12-6.54,6.18-7,6.22-.42,12.46-.55,18.69-.51,1,0,2.88,1.75,2.76,2.37-.25,1.28-1.5,3.27-2.49,3.36-8.37.77-16.78,1.18-25.18,1.7Z" fill="#328ecd"/><path d="M207.92,446l21.39-1,.4,1.52c-2.57.93-5.08,2.26-7.73,2.69a49.29,49.29,0,0,1-10.56.47c-1.39-.08-2.7-1.46-4-2.25Z" fill="#328ecd"/><path d="M228.93,467c2.23,0,4.46.06,6.68,0,.77,0,1.88-.26,2.18-.78s-.36-1.45-.61-2.2-.93-1.68-.71-2.26a9,9,0,0,1,2-2.33,17.85,17.85,0,0,1,.72,1.95c.48,2,.91,3.95,1.36,5.93l1.41.32,4.08-9.74c.35,3,.78,6.3,1.09,9.65,0,.31-.7,1-1.09,1-5.33,0-10.65,0-16,0-.42,0-.83-.37-1.25-.57Z" fill="#328ecd"/><path d="M240.61,413.67c-2.86-.86-6.09.9-5.83-3.14.1-1.49.57-4.2.94-4.22a22.77,22.77,0,0,1,7.89.87c.67.22,1.12,3.38.5,4.57S241.39,413.29,240.61,413.67Z" fill="#328ecd"/><path d="M210.49,455.5c-.65-1.85.25-2.91,2.58-3s4.71-.29,7.07-.33c5.62-.11,6,.41,5.29,6.8C221.55,451.74,215.52,458,210.49,455.5Z" fill="#328ecd"/><path d="M214.88,379.84a4.34,4.34,0,0,1-1.74,0,13.37,13.37,0,0,1-2.11-1.57c.63-.63,1.22-1.72,1.91-1.8a97.31,97.31,0,0,1,10.28-.56c.76,0,1.52,1,2.28,1.59-.7.63-1.35,1.7-2.11,1.8-2.82.34-5.67.36-8.51.5Z" fill="#328ecd"/><path d="M182.31,208.58c-.68,2.6-1.71,5.17-2,7.82-.27,3,.24,6,.25,9a7.43,7.43,0,0,1-.84,2.73c-.06.15-1,.13-1.06.05a12.72,12.72,0,0,1-.56-3.06c0-1,.77-2.12.46-2.89-2.14-5.28,1.61-9.29,2.57-13.89Z" fill="#328ecd"/><path d="M240.23,456.63l-1,1.77a15.35,15.35,0,0,0-1.69-1.83,7.37,7.37,0,0,0-2.49-1.49c-1-.27-2.19,0-3.23-.18a21.83,21.83,0,0,1-3.26-1.23,14.7,14.7,0,0,1,3.47-1.44,24.63,24.63,0,0,1,4.78.07C239.93,452.45,240.27,452.83,240.23,456.63Z" fill="#328ecd"/><path d="M335.58,829.75c-.58-6.2-1.23-12.39-1.74-18.6-1.05-12.85-2-25.7-2.35-38.6l4.06,57.22Z" fill="#328ecd"/><path d="M261.68,466.3c-2.11,1.53-3.9,3.34-4.35,3.05-1.5-.94-2.51-2.65-3.71-4.07,1.18-.92,2.48-2.69,3.51-2.55C258.5,462.94,259.66,464.62,261.68,466.3Zm-5.58,2.32,1.57-1c.41-.61,1.27-1.39,1.12-1.78-.26-.68-1.17-1.57-1.77-1.54a2.42,2.42,0,0,0-1.66,1.67C255.24,466.78,255.83,467.73,256.1,468.63Z" fill="#328ecd"/><path d="M243.88,395.14l-3-3.32a24.61,24.61,0,0,1,4.08-2.38c.31-.12,1.9,1.62,1.74,2.1C246.28,392.66,245.19,393.54,243.88,395.14Z" fill="#328ecd"/><path d="M185.9,204.4l.37,8.25C182.48,210.69,182.17,208,185.9,204.4Z" fill="#328ecd"/><path d="M228,503.79c-2.51-.06-3.84-5.83-2.33-11.22Z" fill="#328ecd"/><path d="M235,501.79l-1.31.11-2.43,4-1.35-.71,1.48-5.3,3.77,1.22Z" fill="#328ecd"/><path d="M191.3,141.24,189.2,145c-.42-.72-1.31-1.54-1.18-2.15a23.45,23.45,0,0,1,1.69-4.16Z" fill="#328ecd"/><path d="M189.54,146.13a32.77,32.77,0,0,1,.58,4.76c0,.57-.92,1.13-1.42,1.7-.28-.55-.78-1.09-.81-1.66C187.78,149.21,185.86,146.81,189.54,146.13Z" fill="#328ecd"/><path d="M370.47,538.92l10.89,2.81-.29,1.13-10.9-2.76Z" fill="#328ecd"/><path d="M211.19,517.83l-.8-2.15-.76,4.66-1,.12c-.13-1.35-.58-2.77-.28-4,.18-.74,1.54-1.2,2.37-1.78l1.36,2.47Z" fill="#328ecd"/><path d="M309.18,524.78a9.37,9.37,0,0,0,1.6-2.57c.28-1.19.07-2.5.39-3.84a43.56,43.56,0,0,1,1.41,5.95c.07.66-1.07,1.46-1.66,2.19l-1.71-1.76Z" fill="#328ecd"/><path d="M281.77,463.39l.83,5.39L281,469l-.74-5.32Z" fill="#328ecd"/><path d="M181.3,255.65l2.9-4.16,1.25.84-2.47,4.4Z" fill="#328ecd"/><path d="M184,244c.25,1.46.56,2.91.7,4.38a4.68,4.68,0,0,1-.47,1.62c-.56-.32-1.64-.74-1.6-.93.35-1.7.9-3.36,1.4-5Z" fill="#328ecd"/><path d="M269,474.61l-15.22-2.31.06-.45L269.05,474Z" fill="#328ecd"/><path d="M198.35,134.77l3.55-3.33.71.34a12.85,12.85,0,0,1-.84,3.3C201.61,135.36,200.19,135,198.35,134.77Z" fill="#328ecd"/><path d="M278.08,468.18l1.33,4.31-1.22.48-1.3-4.39Z" fill="#328ecd"/><path d="M429.4,586.92v6.61l-.59,0v-6.6Z" fill="#328ecd"/><path d="M240.2,60.8c.75-.2,1.64-.74,2.23-.52s1.21,1.19,1.28,2.51l-3.48-1.18Z" fill="#328ecd"/><path d="M189.43,256.46l2.7,1.3-.45,1.12-2.87-1.09Z" fill="#328ecd"/><path d="M335.55,829.77l1.3,10.62-.74.06-.54-10.7Z" fill="#328ecd"/><path d="M191.57,318.44l1.27-3c.33.28,1,.67.94.83a25.23,25.23,0,0,1-1.19,2.7Z" fill="#328ecd"/><path d="M233.57,494.66c.55.92,1.12,1.48,1,1.78A5.82,5.82,0,0,1,233.3,498c-.29-.34-.88-.73-.82-1A11.6,11.6,0,0,1,233.57,494.66Z" fill="#328ecd"/><path d="M185.21,274.72l-2.09,1.65c-.19-.48-.65-1.26-.51-1.4a10.93,10.93,0,0,1,2-1.27Z" fill="#328ecd"/><path d="M184.29,202.24l.73-3.38,1.1.26a13.94,13.94,0,0,0-.51,1.65,13.27,13.27,0,0,0-.11,1.69Z" fill="#328ecd"/><path d="M194.32,108.78l1.12-2.47,1,.45-1.13,2.62Z" fill="#328ecd"/><path d="M185.7,292.77l-.33,2.3-1.2,1c-.18-.66-.6-1.37-.47-2a6.65,6.65,0,0,1,1.19-1.92Z" fill="#328ecd"/><path d="M273.52,467.87c.36.59.87,1.13.76,1.31a4.66,4.66,0,0,1-1.22,1c-.22-.4-.63-.82-.59-1.19S273,468.38,273.52,467.87Z" fill="#328ecd"/><path d="M182.93,235.32l1-2,1,.41-.86,2.18Z" fill="#328ecd"/><path d="M184.58,191.51l-.21-2.49a7.72,7.72,0,0,1,1,0c.06.81,0,1.63,0,2.44Z" fill="#328ecd"/><path d="M201.61,138.87l-2.7.48-.12-.85,2.73-.29Z" fill="#328ecd"/><path d="M183.9,220.8l.43,1.73-1.12.24-.14-1.86Z" fill="#328ecd"/><path d="M184.08,244.07l.31-2.64,1.2.59L184,244Z" fill="#328ecd"/><path d="M225.54,510.39l1.06,1.75-.65.45-1.22-1.65Z" fill="#328ecd"/><path d="M187.94,319.24c-.29-.53-.64-.88-.59-1.15s.48-.54.74-.8c.23.27.66.55.64.81S188.33,318.71,187.94,319.24Z" fill="#328ecd"/><path d="M242.52,86.62h-2.8l0-.74,2.79.15Z" fill="#328ecd"/><path d="M180.64,247.6l-.38,1.92-.72-.08.15-2Z" fill="#328ecd"/><path d="M192.77,253.42l-.52,1.94-.79-.21.56-1.93Z" fill="#328ecd"/><path d="M231.18,484.66l-1-2.5.83-.32c.2.89.4,1.78.57,2.68A3.43,3.43,0,0,1,231.18,484.66Z" fill="#328ecd"/><path d="M343.18,532.83l-4.64-.59.16-.84,4.45,1.46Z" fill="#328ecd"/><path d="M226.93,451.46a15.52,15.52,0,0,1-1.4-.82,2.47,2.47,0,0,1,.39-.73,12.78,12.78,0,0,1,1.48.62Z" fill="#328ecd"/><path d="M265.41,477.32l.43,2.4-.85.18-.5-2.43Z" fill="#328ecd"/><path d="M231.29,493.55V489h.24v4.58Z" fill="#328ecd"/><path d="M179.41,230.19l-.34,1.78-.71-.15.36-1.78Z" fill="#328ecd"/><path d="M192.85,222.69,191.56,224l-1-.9,1.15-1.42Z" fill="#328ecd"/><path d="M195.05,252.61l1.38-.83.39.58-1.25,1Z" fill="#328ecd"/><path d="M197.1,435.29l2.49-.2.07.45-2.42.51Z" fill="#328ecd"/><path d="M349.19,964.86l1.14,1.29c-.19.14-.38.32-.42.3-.47-.34-.93-.71-1.39-1.07Z" fill="#328ecd"/><path d="M190.95,251.63l-.48-1.73.82-.2.37,1.75Z" fill="#328ecd"/><path d="M326.94,749.47,326,748l.55-.38,1,1.33Z" fill="#328ecd"/><path d="M177,360.11l.71,1.47c-.29.18-.52.33-.52.32-.32-.44-.63-.9-.94-1.35Z" fill="#328ecd"/><path d="M429.47,518.33l.14-1.44.38,0v1.47Z" fill="#328ecd"/><path d="M247.64,135.89l-.61,1.67-.77-.29.66-1.65Z" fill="#328ecd"/><path d="M181.1,316.67l-1.18-1.34.5-.43,1.15,1.37Z" fill="#328ecd"/><path d="M192.76,134.54c-.29.14-.59.36-.68.3a2.56,2.56,0,0,1-.47-.69c.22-.07.46-.23.65-.18S192.55,134.29,192.76,134.54Z" fill="#328ecd"/><path d="M330.49,764.41l.6,4.26-.58,0q0-2.16,0-4.33Z" fill="#328ecd"/><path d="M195.58,143.23c-.38.34-.56.6-.8.67s-.52-.23-.51-.36a2.44,2.44,0,0,1,.31-.79Z" fill="#328ecd"/><path d="M283.53,411.22v1.91H283v-1.91Z" fill="#328ecd"/><path d="M225.7,528.41l.19,1.23-.42.11-.41-1.23Z" fill="#328ecd"/><path d="M177.16,148l.14,1.37-.43,0-.16-1.37Z" fill="#328ecd"/><path d="M223.46,490.87l-.17,1.61-.42-.05.25-1.59Z" fill="#328ecd"/><path d="M395.12,545.31l1.52.55-.11.36c-.51-.13-1-.25-1.52-.4C395,545.82,395.07,545.57,395.12,545.31Z" fill="#328ecd"/><path d="M255.35,462.17c-.47.13-.9.35-1,.25a3.07,3.07,0,0,1-.43-1c.28-.07.61-.25.83-.17S255.08,461.76,255.35,462.17Z" fill="#328ecd"/><path d="M190.2,261.44c-.32.15-.53.34-.7.31s-.27-.29-.4-.46c.19-.11.37-.31.55-.31S190,261.23,190.2,261.44Z" fill="#328ecd"/><path d="M187.56,163.88c.21-.23.34-.5.49-.51s.37.21.56.32c-.12.17-.21.47-.35.49S187.87,164,187.56,163.88Z" fill="#328ecd"/><path d="M143.75,524.1l1.23-.34.11.36-1.23.37Z" fill="#328ecd"/><path d="M254.9,513.56l-1.54-.31.07-.37,1.54.32Z" fill="#328ecd"/><path d="M335.91,531.32l-1.1-.25.1-.39L336,531Z" fill="#328ecd"/><path d="M250.24,471.92H248.6v-.19h1.64Z" fill="#328ecd"/><path d="M193.6,208.25a2.19,2.19,0,0,1-.67.24c-.1,0-.29-.27-.26-.35a1.89,1.89,0,0,1,.37-.5Z" fill="#328ecd"/><path d="M403,490l-.8-.85.54-.53.84.82Z" fill="#328ecd"/><path d="M225.12,465.75c-.08.13-.13.32-.23.35s-.27-.09-.41-.14l.29-.51Z" fill="#328ecd"/><path d="M183.8,225.88l.48,1.66c-.19.06-.46.21-.56.14a.84.84,0,0,1-.27-.58A5.69,5.69,0,0,1,183.8,225.88Z" fill="#328ecd"/><path d="M189.82,245.5l-.57.38-.29-.49a3.77,3.77,0,0,1,.6-.29S189.71,245.32,189.82,245.5Z" fill="#328ecd"/><path d="M270.64,481.17l-.44-.72.53-.21.26.77Z" fill="#328ecd"/><path d="M209.71,524.77c-.11.09-.23.25-.31.23s-.27-.27-.25-.29a2.11,2.11,0,0,1,.39-.34Z" fill="#328ecd"/><path d="M274.19,475.54l-1.15-.12v-.28h1.13Z" fill="#328ecd"/><path d="M388.6,544.42Z" fill="#328ecd"/><path d="M260.56,957l.06,0,0-.06Z" fill="#328ecd"/><path d="M414.86,550.17c-.12.08-.23.22-.34.22s-.25-.13-.37-.2a2.6,2.6,0,0,1,.44-.34S414.76,550.06,414.86,550.17Z" fill="#328ecd"/><path d="M260.59,956.94l-1.38-.24.17-.45,1.19.73Z" fill="#328ecd"/><path d="M224.26,462.44l.23-.43c.12.09.32.16.34.26s-.12.28-.19.42Z" fill="#328ecd"/><path d="M208.08,87.11c.1-.13.17-.32.29-.35s.28.1.42.16c-.09.12-.16.32-.27.35S208.24,87.18,208.08,87.11Z" fill="#328ecd"/><path d="M195.85,257.71l-.43.2c-.06-.13-.2-.31-.16-.38a.48.48,0,0,1,.39-.19C195.73,257.35,195.78,257.57,195.85,257.71Z" fill="#328ecd"/><path d="M198.43,237.1c-.06.15-.07.35-.17.4s-.28,0-.43-.08l.21-.55Z" fill="#328ecd"/><path d="M233.83,79.61l.38.19a2.52,2.52,0,0,1-.27.31s-.18-.06-.18-.1A2.09,2.09,0,0,1,233.83,79.61Z" fill="#328ecd"/><path d="M212.54,94.59l.36.22c-.08.12-.13.31-.23.34s-.23-.12-.35-.19Z" fill="#328ecd"/><path d="M186.79,107.47l-.28.23c0-.06-.13-.15-.12-.17a2.31,2.31,0,0,1,.26-.25Z" fill="#328ecd"/><path d="M205.34,126.73c-.12.09-.23.26-.33.25s-.22-.17-.32-.27l.43-.35Z" fill="#328ecd"/><path d="M225.57,483.74a1.45,1.45,0,0,1,.2.1,3.38,3.38,0,0,1-.15.35,1,1,0,0,1-.18-.09A3,3,0,0,1,225.57,483.74Z" fill="#328ecd"/><path d="M223.24,498.44c-.15.59-.07.3,0,0C223.34,498.76,223.43,499.08,223.24,498.44Z" fill="#328ecd"/><path d="M279,476.75l-.82-.17,0-.29.82.14Z" fill="#328ecd"/><path d="M209.43,528.64l.1-.81.22,0v.88Z" fill="#328ecd"/><path d="M391.61,545c-.15.06-.29.17-.4.14s-.15-.21-.22-.32c.13-.05.28-.16.39-.14S391.53,544.92,391.61,545Z" fill="#328ecd"/><path d="M198.78,387.06l.89,0,0,.29-.89,0Z" fill="#328ecd"/><path d="M189.33,254.07l-.32.32-.28-.28c.1-.1.19-.26.32-.29S189.23,254,189.33,254.07Z" fill="#328ecd"/><path d="M177.18,249.13c.13.08.3.14.34.24s-.11.23-.17.34c-.12-.07-.3-.12-.34-.23S177.12,249.26,177.18,249.13Z" fill="#328ecd"/><path d="M188.58,193.92l.19.1a3.34,3.34,0,0,1-.15.33,1,1,0,0,1-.18-.09A3,3,0,0,1,188.58,193.92Z" fill="#328ecd"/><path d="M276.82,850.7l-1.4,2.17-.49-.38,1.91-2.23A1.74,1.74,0,0,0,276.82,850.7Z" fill="#328ecd"/><path d="M221.37,717.48l-4.49,2.79,1.47-4Z" fill="#328ecd"/><path d="M229.15,964.37l.56,1.61-.63.31-.71-1.64Z" fill="#328ecd"/><path d="M258.53,721.37l3.33-.93.16.9h-3.52Z" fill="#328ecd"/><path d="M229.65,955.45l-1.19-.71L229,954l1.06,1Z" fill="#328ecd"/><path d="M318.56,732.25v1.42h-.36v-1.42Z" fill="#328ecd"/><path d="M225.92,717.54l.28,1.21-.5.11-.28-1.21Z" fill="#328ecd"/><path d="M226.59,872.82l-1.1.18-.08-.43,1.1-.19Z" fill="#328ecd"/><path d="M253.75,956.32c-.1.13-.17.33-.29.35s-.28-.1-.42-.16c.09-.12.16-.32.27-.35S253.59,956.26,253.75,956.32Z" fill="#328ecd"/><path d="M226.77,714.93l-.84-.26.05-.27.84.09Z" fill="#328ecd"/><path d="M288.87,548.44,284.68,546l.61-1c1.79,1.4,5.37,0,5.5,4.12,0,.53,1.18,1.53,1.6,1.42.84-.21,1.54-1,2.69-1.88l-3.61-.86.45-1.39c3.06,1.06,6.13,2.1,9.17,3.22.61.22,1.4,1.21,1.6,1.08,4.93-3.18,4.6,1.83,7.07,4.4l-43.11-9.45.18-1.11c3.52.56,7.07,1,10.56,1.71,3.78.79,7.51,1.86,11.26,2.81Z" fill="#328ecd"/><path d="M308.48,583.87c2.91-1.2,5.78-1.5,6.74-3s.23-4.37.49-6.65c.24,3,.59,6.06.63,9.09,0,.55-1.22,1.6-1.85,1.58A45.57,45.57,0,0,1,308.48,583.87Z" fill="#328ecd"/><path d="M416.78,615l-3.41-.56.12-.83,3.3.7Z" fill="#328ecd"/><path d="M272.92,542.73l-.45,2.07-.84-.17.41-2.19Z" fill="#328ecd"/><path d="M317.89,542.91l-.52-1.73.82-.23.49,1.74Z" fill="#328ecd"/><path d="M315.24,567.6v3.82H315V567.6Z" fill="#328ecd"/><path d="M403.57,604.83l2.1.55c-.32.22-.44.39-.54.37-.55-.09-1.1-.23-1.64-.37A5.08,5.08,0,0,1,403.57,604.83Z" fill="#328ecd"/><path d="M411.11,611.7l.45,1.71-.46.16-.66-1.68Z" fill="#328ecd"/><path d="M314.4,564.08V562l.24,0,.13,2Z" fill="#328ecd"/><path d="M375.11,605.7c-.26.2-.45.43-.61.42s-.33-.26-.49-.41c.16-.16.3-.43.47-.44S374.83,605.5,375.11,605.7Z" fill="#328ecd"/><path d="M276,543.59l-.44.17-.14-.53c.15,0,.33-.07.45,0S276,543.46,276,543.59Z" fill="#328ecd"/><path d="M244.84,525.15l-.39.22c-.06-.12-.21-.28-.17-.36s.23-.16.35-.23Z" fill="#328ecd"/><path d="M263.06,544.57l.08,0h-.06Z" fill="#328ecd"/><path d="M71.53,602.32c2.35-3.07,5.58-3.51,9.12-3l0,0a33.2,33.2,0,0,1-5,2.92c-1.2.45-2.71.11-4.08.12Z" fill="#328ecd"/><path d="M92.31,601.24l3.42-2.34.59.28A14.25,14.25,0,0,1,94.74,602C94.55,602.18,93.47,601.61,92.31,601.24Z" fill="#328ecd"/><path d="M80.65,599.28l4.44-1.71c-1,4-2.79,2.47-4.42,1.68Z" fill="#328ecd"/><path d="M108.86,602.4l-.41.19-.14-.51c.14,0,.31-.09.42,0S108.82,602.27,108.86,602.4Z" fill="#328ecd"/><path d="M214.88,822l.28-1.15.44.11-.3,1.15Z" fill="#328ecd"/><path d="M108.26,533.11l-1.12.24L107,533l1.13-.45Z" fill="#328ecd"/><path d="M258.74,886.06l-1.38,2.43-.59-.34,1.41-2.49Z" fill="#328ecd"/><path d="M300,795.76l1.65-1.46.42.41-1.43,1.69Z" fill="#328ecd"/><path d="M312.36,775.33l-.4.22c-.06-.13-.21-.28-.17-.37s.23-.15.36-.23Z" fill="#328ecd"/></svg>