<svg xmlns="http://www.w3.org/2000/svg" viewBox="0 0 474.12 967.1"><title>funkturm</title><path d="M123.24 530.32a17.63 17.63 0 0 0 4 0c7.8-1.84 15.56-3.73 23.3-5.75 4.44-1.16 8.78-2.64 13.2-3.9 8.28-2.34 16.6-4.54 24.87-7 5.34-1.55 10.55-3.56 15.9-5 1.37-.37 3.13.44 4.6 1 .22.1 0 1.9-.35 2.74s-1.77 1.28-1.77 1.9a111.47 111.47 0 0 0 1.4 18.7l1.2-2.27a11 11 0 0 0 .3 2.46 20.32 20.32 0 0 0 1.43 2.47 10.92 10.92 0 0 0 1.53-2.55 49.57 49.57 0 0 1 2.28-7.56l.6 8.42 1.13.73c1-1.06 2.48-2 3-3.25.6-1.47.4-3.28.57-4.94l1.13.14a21.23 21.23 0 0 0 .06 4 22.78 22.78 0 0 0 1.46 3.85l3-1.77 1.95 3.1c.37-2 .86-4 1-6 .07-.74-.67-1.55-1.04-2.32l1.32.1.9-5.78h-1.08c-.06-.64-.42-1.53-.13-1.9 2.24-2.76 1.9-6.1-.8-8.57-.35-.33.3-2.6.5-2.6a63 63 0 0 1 11.2.3c2.12.33 3.9 2.33 6 3.05 1.12.38 2.62-.4 3.3-.54 3.6 5 8 1.1 12.07 2l-2.53 1.75c3.62.75 6.7 1.64 9.85 1.96 5.6.58 11.23.8 16.95 1.2l.56 2.35c1.9-1.07 3.3-2.56 5 .52.76 1.42 3.62 1.82 5.6 2.44 3.15 1 6.35 1.73 9.52 2.58l.37-1.23-8.17-2.55.24-.9 10.58 3.08-1.07 1.76a14.15 14.15 0 0 0 3.63.92c.72 0 1.44-.93 2.24-1.5l.24 2.84c.65-.54 1.24-1.4 2-1.56a8.34 8.34 0 0 1 3.42.1c3.62.78 7.23 1.62 10.8 2.6a4 4 0 0 1 2 1.56c1.74 2.57 12.35 5.58 15.1 4.16.2-.1.33-.35.7-.74l-5.1-2.05 13 2.48-.14.9-4.7-.6-.12.72c2.8.45 5.7 1.63 8.33 1.17 3.6-.65 5.14 2.26 7.76 3.12.84.28 1.54 1.07 2.4 1.25q15.18 3.38 30.4 6.64c8.65 1.87 17.3 3.68 25.94 5.6.65.13 1.15 1 1.9 1.64l2.9-2.34v10.17l-3.7-6.1c.53 5.63 5.6 10.67 2 17.77l-.68-10.36h-1v12.23l2.2-.9v8.35h-.52v-6l-1.52.32L426.6 597l.75.2 1.8-2.3.64 11-.93.1-.48-4.1c-1.37 1.2-3.16 13.3-2.15 14.7.4.54 1.58.53 2.26.74.15-2.13.15-3.75.4-5.34a7.2 7.2 0 0 1 1.1-2c.52.8 1.44 1.55 1.48 2.36.14 2.35-.1 4.72-.13 7.08 0 3 1.85 4.2 4.6 3.07 5.68-2.3 7.9-7.77 5.13-13.2-.4-.76-1.87-1-3-1.52.27-4 3-5.8 7.84-5.36a53.64 53.64 0 0 0 12.1.16c2.73-.37 5.28-1.87 5.28-5.8 0-19.25.2-38.5.35-57.74a5.08 5.08 0 0 1 .68-3v5.2l-.13 55.23c0 5.26 1.2 6.34 6.5 6.1a3.4 3.4 0 0 1 3.23 4.46c-.14.37-.42.9-.7 1-3.44.75-6.9 1.3-10.3 2.17a6 6 0 0 0-3.13 2.06c-5.88 7.94-11.63 16-17.43 24a2.53 2.53 0 0 1-2.3 1.2L459.73 610c-3.88.2-7.1.24-10.27.63-.57.07-1.2 1.5-1.4 2.4-2.53 11.3-7.14 15.06-18.75 15.2h-6.84c-1.88 0-4 .54-4.68-2.23-.07-.3-1.62-.46-2.42-.3q-26 5-51.9 10.18c-10.33 2-20.66 4.15-31 6.06-3 .55-4.26 1.63-4 5 1.9 22.1 3.6 44.24 5.37 66.36.2 2.35.37 4.7.4 7.07a14.4 14.4 0 0 1-.56 3c-.78-.56-1.6-1.08-2.33-1.7a6 6 0 0 1-.88-1.25l3-2.32-4.73-3.75-1.18 1 2.9 5.14a7.62 7.62 0 0 0-1.74.25c-1 .4-2 .95-3.05 1.43l-1.06-4.28-2.4-.23c.25 2.87.53 5.74.72 8.63.48 7.23 1 14.46 1.32 21.7.1 2.4 1.14 3.15 3.38 3.4a3.3 3.3 0 0 1 2.14 2.3c.4 3.58.47 7.2.66 10.83l-1.36-10.1-.8-.27c-.84 1.53-1.82 3-2.5 4.6-6.9 16.24-13.7 32.5-20.6 48.75-6.8 16-13.68 32-20.47 48q-14.04 33.16-28.05 66.5a7.92 7.92 0 0 0-.52 2.95c-.06 8.42-.16 16.85 0 25.26 0 1.55 1.2 3.06 2.58 4.15l-.86 5.27a31.5 31.5 0 0 0 5.8.7c.87-.04 2.38-1.17 2.4-1.88.13-2.4 1.46-3.18 3.25-2.44.76.3.92 2.24 1.25 3.46.1.33-.22.76-.52 1.68 5.06.45 9.87.86 14.68 1.3a40.7 40.7 0 0 1 5.48.7c.67.14 1.15 1.1 1.7 1.7-.75.57-1.5 1.62-2.26 1.63-5.9.14-11.82 0-17.73.1-2.1 0-4.2.32-6.3.5h-22.27c-1.35-2.7-2.7-1.88-4.05 0h-6.08a12.6 12.6 0 0 1-.4-1.48c-1.06-7.58.32-8.68 7.85-7.4 5.06.84 10.25 1 15.38 1.38.55-5.52-1.07-7-6.1-5.67a3.53 3.53 0 0 1-1.64.2c-2.53-.65-5-1.38-8-2.2l1 3.25c-1.6-.9-5.78 1.54-4-3l-12.8-2c1.94-.44 3.78 0 5.63 0 .9 0 2.57-.58 2.62-1a60.6 60.6 0 0 0 .12-6.8l-4.4-1.6-1.3 3.25a10.28 10.28 0 0 1-.7-2.4c.24-3.34.8-6.65.83-10 .1-7.5-.17-15-.1-22.52s.3-14.94.6-22.4c.12-3.15.76-6.33-4.5-7 4.58-1.44 4.5-4.73 4.56-7.8q.38-20.36.58-40.73.3-35.2.5-70.38.1-18 .13-36c0-1.88.05-3.33 2.76-2.87 1.1.18 2.46-.77 3.54-1.46.18-.1-.44-1.5-.8-2.65 1.54.26 3 .53 4.45.77s2.8.43 4.43.67c1.38 3.4 6 6.25 7.9 4.07 2.33-2.75 4.83-1.35 7.18-2 1.18 1 2.4 2 3.54 3 .9.83 1.62 2.34 2.58 2.5a8.27 8.27 0 0 0 5-.77c.58-.32.1-2.56.1-3.9 5.32 1 11.16 2.18 17.06 3 4 .56 8.4.28 7.37 6.43a3.73 3.73 0 0 0 .18 1c-.95-.1-1.7-.15-2.44-.27-10.64-1.83-21.28-3.68-31.94-5.4-.7-.12-1.54.7-2.3 1.07.86 1.77 1 3.9 3.86 4.24 6.6.8 13.2 1.95 19.74 3.17 1 .18 1.7 1.58 2.6 2.33s1.8 1.8 2.77 1.87c1.64.1 3.3-.5 5-.73 3.13-.4 6.26-.6 6.86-4.8a50 50 0 0 1 1.93-6.55l4.7 2.3-2.23 4.2c1.18 3.2 4.27 2.1 7.36 1.7a19.68 19.68 0 0 1 5.75.52c6 1.05 6.16 1.08 5.8-5-.25-4.6.17-9.64-1.52-13.73-5.13-12.4-11.13-24.43-16.87-36.56-.26-.57-1.74-1.24-1.93-1.07-3.5 3.23-5.5.4-7.5-1.87a2.57 2.57 0 0 1-.1-2.48c3-3.47 3.66-7.23 1.78-11.3-1.35-2.9-2.55-5.9-4.16-8.67a4.17 4.17 0 0 0-3.27-1.7c-8.9.76-17.78 1.9-26.7 2.6-2.73.2-3.52 1-3.53 3.72-.08 19-.3 38-.5 57 0 1-.1 2-.12 2.44-3.33 1.87-6.88-3-9.55 1.52-2.5-2.38-4.3-4.47-4.2-8.28.44-16.54.43-33.1.58-49.64v-3c-2.85.1-3.86 1.24-3.82 4 .16 11.57.07 23.13.12 34.7q0 7.85.23 15.7c.05 2.13-.7 2.87-2.87 2.4-3.07-.67-6.2-1.1-8.53-1.5-.54-1.63-.6-3.53-1.47-4-1.48-.84-3.46-.78-5.22-1.1v3.6l-7.64 2.17v-24.24c.06-9.43.26-18.87.25-28.3 0-4.6-4.1-2.55-6.34-3.34-.3-.12-2 1.85-2 2.9-.82 15.77-1.44 31.54-2.23 47.3-.3 5.9-.45 5.88 4.76 6.1l-3.68 2c5.78 3.94 6.65 3.85 7.14-1.15l1.7 3.26-6.15 3h11.4c.12 1.8.47 4.38.44 6.95 0 3-1.22 6.27-.44 9 1.25 4.34-1.68 7.28-1.93 11.64l3 2.7v12.3l-1.65 2.3 2.06-.32c0 3.5.05 6.82 0 10.15a5.74 5.74 0 0 1-.82 2.47 16.44 16.44 0 0 1-1.68 2.16l1.86.9a62.26 62.26 0 0 1 .77 6.84c0 12.3-.14 24.6-.06 36.9 0 5.6.66 11.2.7 16.8 0 6-.35 12.06-.4 18.1-.18 15.16-.2 30.34-.44 45.52-.24 15.4-.63 30.8-1.05 46.18 0 .92-.85 1.8-1.3 2.72l-1.1-.26c.07.3.12.63.18.94l1.64 7.92c-2 .3-4 .64-6 .87a9.1 9.1 0 0 1-3-.08c-.6-.14-1.58-.85-1.56-1.26.16-3-1.86-3.12-4-3.3s-4.38-.35-6.54-.68c-3.34-.52-6.17-.57-5.52 4.2.07.52-.58 1.14-.9 1.72H183c-.92-1.15-1.9-3.3-2.77-3.26-3 .12-6.84-3.2-9 1.78-.26.6-1.86.92-2.8.86-.48 0-.8-1.3-1.34-1.83-.92-.88-2-2.37-2.93-2.3-6.3.38-13.37-.5-18.7 2.1-7.94 3.83-15.63 1.63-23.37 2.08-8.08.47-16.2 0-24.3.08-2.4 0-3-1-3-3.18q.52-19.5.86-39a22.38 22.38 0 0 0-1-4.8 51.4 51.4 0 0 0 1.43-7.35c1-18.37 1.8-36.74 2.7-55.12.33-6.55.65-13.1 1.5-19.65 0 3.22.06 6.44 0 9.65-.3 12.2-.57 24.42-1 36.63-.33 8.85-.95 17.7-1.3 26.53 0 1.13.73 2.27 1.13 3.4.67-1.06 1.87-2.1 1.92-3.2.56-12.32.87-24.63 1.38-36.94.46-11.12 1.17-22.23 1.6-33.35s.58-22.07.88-33.1c.16-5.4.5-10.8.42-16.18 0-1.13-1.6-2.22-2.45-3.34-.55.95-1.54 1.88-1.57 2.85-.25 8.85-.37 17.7-.46 26.55-.06 5.86 0 11.73 0 17.6h-1.3l3.9-194.47c-2.4.5-5.9 1.22-9.36 2-3.14.68-6.26 1.4-9.4 2.1-4.5 1-7.54-1.2-7.17-5.8s-3.4-5-5.78-5.46c-11.56-2.4-23.24-4.28-34.9-6.2-.63-.1-1.86.86-2.16 1.6-1 2.42-2.2 3.2-5 2.42-3-.83-6.32-.73-9.5-1-8.07-.6-15-9.56-13.37-17.5.2-.85 2.2-1.78 3.2-1.7a3.32 3.32 0 0 1 2.2 2.44c-.08 3.6.08 7 3.2 9.4.2.16.36.43.58.48 2 .52 4 1 5.93 1.5.34-1.54 1.1-3.16.9-4.64-.3-2.1-1.32-4.13-2-6.18a6.17 6.17 0 0 1-.7-2.12c.24-3.7-2.12-4.13-4.87-4-3.8.23-7.57.77-11.35.78-.94 0-2.68-1.47-2.72-2.32C.6 595.26.38 584.54 0 573.83c-.08-2.28.47-3.67 3.06-4 .7-.07 1.73-1.43 1.8-2.27.22-2.5-.07-5.05.13-7.56 0-.5 1.63-1.5 2-1.3 3.87 2.16 7.65 4.5 12.16 7.22v-11.07a43.36 43.36 0 0 1 .28-7.77c.16-.86 2.12-1.38 3.8-2.38 0-5.43.1-11.8 0-18.16-.14-6.65-.76-13.3-.74-19.95 0-7.2 3.34-10.8 10.2-12.7 13.48-3.78 26.9-7.72 40.34-11.64 6.34-1.85 12.6-4 19-5.66 3.3-.85 6.88-.64 10.25-1.33 2.5-.52 4.8-1.94 7.3-2.58 7.15-1.83 14.4-3.34 21.53-5.23 2-.54 3.86-2 5.78-3l-.4-.92c-4.55 1.33-9.05 3-13.7 3.87-3.16.56-6.55 0-9.8-.35a3.18 3.18 0 0 1-2.15-2.26 3.24 3.24 0 0 1 2.14-2.33c5.56-.7 11.53-2.56 16.7-1.3 9.22 2.28 17.24-.45 25.57-3 4.67-1.4 9.38-2.7 14-4.34 1.46-.52 2.55-2 3.88-3a2.76 2.76 0 0 1 1.13-.38 39.9 39.9 0 0 1-1-15.45c.45-2.93-.22-6-.27-9.05-.06-4.1 0-8.2 0-13.32l1.77 3.05v-8l-1 3.15c-.76-2.5-1.74-5.33-2.4-8.22a4.6 4.6 0 0 1 .73-3c1.65-2.7.9-6.8-.8-9.5-1.25-2-1.44-4.66-1.73-7.1-.2-1.52.45-3.13.45-4.7V237.7q0-48 .07-96c0-1.82.2-3.63.33-5.44h1.07l1.6 4.8-.8.33a51.63 51.63 0 0 1 1.2 5.08c.43 3.1.7 6.2.94 9.3.1 1.37 0 2.74 0 5.07l2.75-3.27.67 1.5h.78l2-31.24c3.54 1.16 3.35-1.4 3.32-3.76 0-1.6-.2-3.18-.16-4.77 0-.53.43-1.54.6-1.53 5.52.3 1.32-3.17 1.85-4.76a10.38 10.38 0 0 0-.1-2.7c4.9 4.8 3.4 10.42 3.9 16l2.32-2.44-4 12.33-.55-.14-.26-3h-.58c-.44 2.46-.78 5-1.36 7.38-.27 1.15-1.48 2.2-1.42 3.27.1 1.74 1.36 3.47 1.26 5.15a91.37 91.37 0 0 1-1.6 10.85c-.13.64-.95 1.14-1.38 2 2.78-1.4 3.57-.3 3.4 2.22-.28 3.86-.58 7.73-.72 11.6 0 1 .52 1.94 1.14 4l-1.34 7.1-1.94-3.48-1.06-.27-2.15 8.73c3.35 2.88-1.32 3.78-1.86 5.78a13.1 13.1 0 0 0-.73 2.1c-.24 3.1-.1 6.27-.64 9.32-.86 4.94-2.2 9.8-3.1 14.74-.1.6 1.26 1.47 1.33 1.55-.47 2.7-.57 5.45-1.45 7.94-1.46 4.14 1.7 8.4-.67 12.47-.35.62.24 1.84.52 2.74.73 2.3 2.1 4.63-1.57 7.17 2.73.46 4.64.74 6.53 1.13.47.1 1.27.64 1.23.88-.24 1.5-.22 3.37-1.1 4.37-1.72 1.93-1.94 7.2-.7 9.3.9 1.5.47 3.78.63 5.7l-1.37.15a27 27 0 0 0-.58-3.55 6.5 6.5 0 0 0-1.24-1.74c-.32.64-.9 1.28-.92 1.93 0 1.4-.2 3.1.48 4.16s2.3 1.37 3.5 2l.5-.93 1.17 8.32c-1.43.87-2.17 2.47.87 4.27a3.6 3.6 0 0 1-.85 2.48 18 18 0 0 1-4.13 1.5l1.54 3.35-3.42 2.5.3 1 3.8-.3-1.42 2.58-1.36 2.37h3c0 .1.22.84 0 1.1-2.92 3-1.33 6.18-.55 9.4A116.78 116.78 0 0 1 179.7 329c.12 1-.64 2.72-1.42 3-4 1.54-3.2 5.45-4.1 8.27a38.2 38.2 0 0 0-1.5 11.34c0 4.86.1 9.9 4.5 13.4l-4.5 5.87 1.24-.3 2.1 4.87.77.2c0-1.77-.06-3.55 0-5.32a1.66 1.66 0 0 1 .87-1.1c.25-.13.77.2 1.13.42 5.06 3 5 2.82 10.8 1.17 2-.56 4.25-.12 6.34-.42s4.15-1 6.23-1.46c.67-.15 1.6-.42 2.06-.1 3.37 2.2 9.2 1.94 12.52-.62a2.22 2.22 0 0 1 2-.3c4.52 2.72 8.94 2.72 13.42-.1a2 2 0 0 1 1.8.07c4.08 2.9 8.5 2.47 13.05 1.62a3 3 0 0 1 2.06.64c2.06 1.52 10.2 2.25 12.3 1 3 3 9.9 4.8 11.4 3 3.27 4.58 6.14 5.87 7.74 4.14l4.83 4.86c.16.9.82 2.5.6 4s-1.3 2.95-2.2 4.85c-.54-.83-.86-1.1-.85-1.33.26-6.8-5.94-9.94-11-11.6-2.3-.76-2.75.75-2.75 2.64q0 11.28-.07 22.56c-.05 13.5.5 27-.46 40.48-.37 5.2 1.63 6.2 5.25 7.6 2.42.95 4.58 2.57 6.85 3.9l-.46 1-44.4-11 .14-.95c3.43.23 6.87.38 10.3.75 2.35.25 3.1-.65 3.13-3 0-3.54.56-7.07.47-10.6 0-.93-1.37-2.24-2.4-2.64-1.5-.6-3.35-.36-4.94-.85-.78-.24-1.32-1.28-2.33-2.33l6.38-.7.86 2.36 4.4-6.18v19.22h.73v-64.7h-1.08v26.73h-1.27a38.58 38.58 0 0 0 0-4.7c-.22-1.8.86-4.14-1.94-5.12a2.9 2.9 0 0 1-.18-2.5c3.45-2.9 1.15-6.77 1.88-10.1a20.17 20.17 0 0 0 0-2.26c.36-3.76-1.3-5-5-4.92-9.06.24-18.14-.28-27.17.27a147.1 147.1 0 0 0-22.43 3.25c-2.62.57-5.6 2.77-5.16 6.6.4 3.4 1.24 6.82 1.3 10.24 0 2.75-1.13 5.5-1.2 8.26-.18 8-.86 16 .14 23.9.8 6.35-1.47 12.53.12 18.8.5 2 1 2.63 2.88 2.13 3.8-1 7.6-2 11.42-2.95l1.47 6.57c-5.9.46-11 .4-15.37 3l.26 1.27a25.72 25.72 0 0 0 3.52-.46c2.62-.7 3.42.4 3.08 2.84-.22 1.57-.5 3.14-.58 4.72a9.48 9.48 0 0 0 .46 2.35l1.13-.05.6-12.06.8-.17 1.13 4.75 1.8-1.2c-.4 3.7-.82 7.3-1.18 10.88 0 .27.28.57 1 1.82l4-16.1.74-.07 1.75 10.32-.8.24-1.37-2v8.06c0 1.9 0 3.8.13 5.7s.62 3.82.68 5.74c0 1.46-.5 2.93-.54 4.4-.2 6.16-.2 12.3-.6 18.44a4.26 4.26 0 0 1-2.58 2.92c-15.5 4.37-31 8.56-46.58 12.8l-30.17 8.23a6 6 0 0 0-2.2 1l7.4-1.13.18.62-9.68 2.72h-3.6c.5-1.46 1.52-3 1.35-4.37-.1-.8-2-1.76-3.2-2q-41.37-8.77-82.76-17.37c-4.46-.93-6.36.14-7.38 4.5a27 27 0 0 0-.5 5.5c-.12 5.1.13 10.23-.3 15.3-.3 3.43-1.58 6.76-2.32 10.16a5.43 5.43 0 0 0 .3 1.9h.63l2.16-7.78c.3 5.22.62 9.44.74 13.67.08 2.67 1.32 3.5 3.74 2.84 4.4-1.17 8.77-2.42 13.16-3.57 15.37-4 30.7-8.22 46.15-12 5.85-1.43 12-1.64 17.88-2.92 3.56-.77 6.9-2.53 10.35-3.85 1.1 2.23 2.28 1.3 3.46-.1zM25.4 570.4l1-3-1-.16v3.15c.2 4.25-2 9 2.57 12.47-.54-3.44-1-6.74-1.6-10a12.28 12.28 0 0 0-.96-2.48zm253.93 54.65l.43 1.3.4-.23-.86-1c-.14-2.78-.1-5.58-.5-8.32-.28-1.9 0-4.77-3.68-4.18-.65 4.83 1.6 8.7 4.2 12.43zm-11.13-246.2a31.8 31.8 0 0 0-1 5.5c-.1 17-.1 33.9-.1 50.86v8.8h1.04v-65.16l.1-1.5-.67.08zM152.12 733.54l-1-1.3-.38.46 1.44.8c-.42 3.55 1.32 4.72 4.7 5a80 80 0 0 1 12.7 1.94c3.88.94 5.38-.18 4.65-4-.26-1.35-.7-3.47-1.58-3.78-6.93-2.53-13.73-.4-20.53.87zm111.53-160.1c-2.08-.26-4.18-.38-6.22-.82-4.1-.86-8.73-1.07-12-3.25-1.58-1.05-.57-6-.73-9.15a4.7 4.7 0 0 0 0-.5l-.3-1.83a19 19 0 0 0-.54 4.63c-.36 2.9-1.44 5.8-1.25 8.6a51.6 51.6 0 0 0 2.33 10.6 3.45 3.45 0 0 0 2.35 2.1c5.92.38 11.85.47 17.78.7 4.2.17 4.94-.92 3.13-5l-1.7 3c-.36-2.1-1.08-3.53-.65-4.44 1.26-2.7 0-3.8-2.2-4.68l-.17-1.48-.62.18zm13.18 276.84a23.77 23.77 0 0 1 1-2.8c3.06-5.92 6.35-11.74 9.2-17.76 1.83-3.83 2.77-8.1 4.64-11.9 1.52-3.1 4.06-5.66 5.76-8.68 4.1-7.34 8.06-14.78 11.94-22.24 4.83-9.28 9.7-18.54 14.16-28 1.32-2.78 4.67-6.52-1-9a13.66 13.66 0 0 0-1 1.4L297 798.88q-10 19.3-19.77 38.7a4.74 4.74 0 0 0-.05 2.22c.07 1.1.67 2.44.23 3.24-1.6 3-3.64 5.7-5.35 8.63a3.56 3.56 0 0 0-.35 2.86c1.26 2.5.7 7.13-1.53 7.9-5.1 1.72-6.73 5.44-7 10.36 0 .74-1 1.56-1.67 2.14-1.22 1-2.93 1.62-3.78 2.85-1.2 1.75-1.7 4-2.72 5.9-2.9 5.37-6 10.62-8.9 16-3.57 6.8-7 13.7-10.4 20.57-2 4-4 8-5.67 12.13-.46 1.12-.16 3.65.43 3.88 1.8.7 3-.26 3.82-2.38a82.4 82.4 0 0 1 4.53-9l.88.28v12.22l1.05.15c.64-3 1.5-5.92 1.88-8.92.67-5.16-1-10.46 2-15.53 3.44-5.88 6.1-12.2 9.15-18.3.6-1.2 1.47-2.3 2.7-4.22v8.1c.68-1.2 1-1.72 1.3-2.3q6.58-15.5 13.1-31l6-14.73a1.7 1.7 0 0 1-.02-.38zM162 832.5l.92-.85-.6-.3-.35 1.24c.55 1.54 1.18 3.07 1.63 4.65.8 2.78 2.1 4.24 5.22 2.74.37-.2 1.65.7 2 1.34q6.12 12.78 12.07 25.64l24.2 52.6c1 2.1 2.14 4.07 3.16 6 3.4-1.36 3.62-3.8 3.63-6.65q.12-41.28.5-82.55c0-2 .73-3.92 1.18-6.14l-1-.36a12.36 12.36 0 0 0 2.14-2.1c.2-.34-.14-1.54-.42-1.6-2.94-.75-1.5-1.57-.47-3.12s.9-3.48 1.1-5.3c0-.23-1.14-.6-1.9-1 0-4.74.13-9.72-.06-14.7-.08-2.12 2-3.6.43-6.5-1.42-2.57-.06-6.7.12-10.12.16-3 .6-6 .56-9-.1-6-.42-12-.64-18a1.86 1.86 0 0 1 .2-.72c.94-2.22-.18-3.15-2.2-3.47-2.6-.4-5.2-.67-7.76-1.25s-3.25.55-3.34 2.7c-.4 8.86-.8 17.7-1.13 26.55a4 4 0 0 0 .9 2.14c.58.82 2 1.7 1.88 2.26-.32 1.34-1.4 2.5-2.08 3.76a13.37 13.37 0 0 0-1.46 3.3c-.45 2.07-.65 4.2-.9 6.3-.16 1.16-.15 2.35-.36 3.5a7.54 7.54 0 0 1-.82 1.77 7 7 0 0 1-1.58-1 4.92 4.92 0 0 1-.65-1.52l-1.33.38c.67 2 1.27 4 2.06 5.94a15.73 15.73 0 0 0 1.6 2.18c1.47 2.3.58 5.25.72 7.5.36 6.1 1.52 13.28-5.34 17.8l2.86 1.07v21.9c.16.3 1 1.17 1 2-.13 7.17-.4 14.33-.67 21.5 0 1-.3 2.07-.6 3.83-3.44-7-6.55-13.35-9.63-19.7a4 4 0 0 1-.36-1.94c.55-7.54 1.35-15.07 1.66-22.62.33-7.9.12-7.9-7.72-9.12h-.25c-2.07-.43-3.18.06-3.08 2.53s-.22 4.82-.36 7.23l-.92.08-4.52-11.9c.65-1.06 2-2.23 2-3.46q.55-12.9.55-25.8a3.93 3.93 0 0 0-2.4-2.9c-4.87-.95-9.82-1.5-14.76-2.13-.56-.07-1.6.22-1.68.54a3.35 3.35 0 0 0 .3 2.12c2.26 4.8 4.74 9.47 6.85 14.32 2.7 6.22 5.17 12.56 7.62 18.9a47.5 47.5 0 0 1 1.4 5.74c-2.9-3.07-7.64-2.23-9.12-6.27zM71.55 602.3l-1.63.7c3.2 1.1 5.37 5.5 9.44 1.66-.34 1.12-.66 1.9-1.24 2.23C76.1 608 74 609 71.9 610a8.36 8.36 0 0 0-1.38 1.14c.55.25 1.2.83 1.64.7 9.34-2.76 19.7-2.4 28-8.82l.63 2c2.7-.57 5.28-1 7.82-1.65q34.18-8.23 68.34-16.53c5-1.23 10-2.86 15-4.1 3.82-.96 7.74-1.54 11.58-2.4.8-.2 2.14-.9 2.13-1.34-.1-3.56-.45-7.1-.74-10.9-7 1.6-13.64 3.2-20.32 4.6-2 .44-4.65-.3-6 .76-2.73 2.15-5.3 2.38-8.46 1.72-.63-.13-1.62 1.4-2.43 2.2-.57.57-1.13 1.16-1.7 1.75a25.08 25.08 0 0 1-1.7-2c-.63-.9-.95-2.52-1.73-2.76-6.67-2.07-12.2-5.5-16.22-11.43-.85-1.26-3.6-1.4-5.5-1.6-.3 0-1.1 2.35-1.25 3.67-.44 3.7-.5 7.43-1 11.1-.44 3 .34 4.68 3.6 4.9.9.06 1.76.62 3.43 1.25-5.23 1.32-9.6 2.46-14 3.45-.34.08-1.33-.86-1.28-1.23.33-2.64-1.37-3.06-3.34-3.44q-18.14-3.48-36.28-7-29.08-5.73-58.14-11.53c-2.78-.55-3.6.55-3 3.14a7.6 7.6 0 0 1 .1 1.5c.22 13.9.4 27.8.72 41.7a2.22 2.22 0 0 0 1.6 1.32c8.23-1.8 16.43-3.73 24.65-5.6 3.52-.8 7.06-1.55 10.6-2.3 1.58.82 1.92-3.65 4.24.06zm191.53-57.77c-2.38-.54-3.22.46-2.95 2.8a8.2 8.2 0 0 1-.1 3.5c-.86 2.53.32 3.36 2.52 3.8 4.14.82 8.24 1.83 12.4 2.6 2 .38 3 1.25 2.8 3.37-.25 2.43.93 2.84 3.1 2.3q8.72-2.14 17.5-4.04c5.9-1.3 11.82-2.46 17.73-3.7l-.07 1 2-3.8 3.52 4.14-.65 1c-1.88 0-3.77-.05-5.64 0-.33 0-.6.7-1 1-.82.7-1.57 1.74-2.52 2-7 1.73-14.12 3.3-21.2 4.93-3.87.88-7.76 1.65-11.6 2.68-2 .54-3.73 1.9-5.7 2.23a45.34 45.34 0 0 1-7.34.1c1.58 3.83 3.27 6.8 4 10s.93 5.66 5.33 4.16a18 18 0 0 1-3.6 1.07 13.72 13.72 0 0 0-2.48 1.36c.75.57 1.45 1.55 2.26 1.65 3.85.5 7.73.73 12.76 1.16a34.6 34.6 0 0 1-3.52-1.6 24.14 24.14 0 0 1-2.3-1.87 34.82 34.82 0 0 1 9.12 1.1c.1 0 .05.63.2.7a32 32 0 0 0 4.8 1.7c.35.08 1-1.16 1.48-1.8l-.64-2.68-.67.27 1.36 2.42-3.44-1 1.74-7.26c3.65 1.82 3.25 5 3.25 7.73s1.13 3.58 3.45 4.06c4.6 1 9.18 2.1 13.78 3.15 20.17 4.58 40.36 9.1 60.5 13.8 3.17.73 4.38.14 3.68-3.12-.35-1.7-.86-3.4-1.27-5.1-.15-.62-.2-1.26-.3-1.9l1.05-.27a33.57 33.57 0 0 1 1.64 5.23c.55 3.75.6 7.73 6.14 7.14.13 0 .32.53.48.82l-3 .5.43 1.08 2.52-1.62c2.05.64 4.1 1.4 6.2 1.9 4.72 1.13 9.48 2.15 14.23 3.2l13.54 3v-9.56c0-2 .86-2.67 2.68-2 2.58.9 3.47.05 3.5-2.65q.1-20.75.46-41.5c0-2.3-.58-3-2.9-2.42-12.1 2.78-24.22 5.45-36.33 8.16-19.93 4.46-39.86 9-59.82 13.32-.9.2-2-.63-3-1 .75-.77 1.4-2 2.28-2.24 12.08-2.83 24.2-5.48 36.3-8.23q29.2-6.6 58.27-13.35a39.52 39.52 0 0 0 4.92-1.83 28.77 28.77 0 0 0-5-2.17q-51.35-11.74-102.73-23.34c-5.5-1.25-5.4-1.24-4.68 4.35.63 4.9 1 9.84 1.46 14.76a84 84 0 0 1-2.18-16.23c-.13-2.8-1.1-3.18-3.62-2.55-13 3.27-26.05 6.48-39.13 9.5-2.3.53-4.86.08-7.3.08v-1.4l44.34-10.83a10.74 10.74 0 0 0-1.67-.86c-14.1-3.42-28.15-7.22-42.4-10-4.12-.8-8.83 1.4-14 2.35a36.67 36.67 0 0 1 10.5 18.9c-3.8-.4-6.72-.62-8.2-4.66a212.06 212.06 0 0 0-8.53-19.74c-.77-1.6-3.07-2.45-4.66-3.64l-.93 1 10.28 24.5c-4.9-1.1-8.55-2.1-12.27-2.7-1-.17-2.25.74-3.4 1.16.85 1 1.5 2.6 2.56 2.92 3.72 1.14 7.58 1.86 11.38 2.73l18.2 4.15zm-6.6 323.8l.73.17c.63-1.08 1.3-2.14 1.87-3.24l30.73-59.9c8.18-15.9 16.34-31.84 24.66-47.68 2.44-4.65 5.42-9 8.1-13.54a2.08 2.08 0 0 0 .07-1.87 2.44 2.44 0 0 0-1.93-.64c-3.68.5-7.32 1.25-11 1.73-3.86.5-7.5 1.8-11.45 2.25-12.73 1.5-25.32 4.1-38 6.1-2.44.4-3.2 1.35-3.2 3.76-.07 17.4-.3 34.78-.4 52.17-.1 19.34-.1 38.67-.16 58v2.7zm-129.35 44.92v-.36h1.52c3.1-.08 7.43 1 8.93-.55 1.72-1.8.8-6 1.25-9.17.4-2.75-.9-3.56-3.3-3.78-4.7-.45-9.4-1.12-14.1-1.5-2-.18-2.92-.8-2.77-2.93s.65-3.66 3.25-3.38c4.45.48 8.92.77 13.33 1.43 3.05.46 4.33-.3 4.17-3.6-.17-3.6.06-7.24.2-10.87.44-10.8.88-21.58 1.4-32.36.1-2.24-.66-3.17-2.9-3.4-4.87-.5-9.7-1.34-14.57-1.8-2.56-.26-2.7-1.9-2.22-3.55.3-1 1.63-2.47 2.42-2.43 5 .27 10.06 1 15.1 1.32a3.36 3.36 0 0 0 2.52-2.12c.66-12.55 1.1-25.1 1.67-37.66.14-2.78-1-3.68-3.7-3.78a120.3 120.3 0 0 1-15.3-1.17c-3.72-.62-4.7.77-4.72 3.96 0 .5-.06 1-.08 1.52l-1.56 53.6c-.25 8.44-.5 16.86-.84 25.3-.47 11.53-1.1 23.07-1.45 34.62 0 .86 1.53 2.44 2.48 2.54a89 89 0 0 0 9.3.1zM28.3 557.73a32.63 32.63 0 0 0 3.7 1.45q6 1.3 12 2.44 19.1 3.64 38.2 7.23c6.45 1.2 12.93 2.3 19.38 3.54q13.26 2.54 26.5 5.24c2.1.43 2.62-.4 2.8-2.33.87-10.5 2-21 2.73-31.48a3.94 3.94 0 0 0-2.17-3c-2.53-.85-5.3-1-7.9-1.7a3.28 3.28 0 0 1-1.93-2.4c.08-2.9-.87-3.45-3.6-2.73q-43.2 11.37-86.46 22.6c-.65.15-1.32.4-3.24 1.13zm96.07-82.25l-.33-1.22c-2.6-.28-5.4-1.35-7.74-.7-19.3 5.3-38.5 10.9-57.7 16.5-8.84 2.56-17.68 5.16-26.4 8.1-2 .66-3.4 2.8-5.1 4.28 3.4.7 6.15.26 8.7.8 16.6 3.4 33.14 7.04 49.7 10.6 10.8 2.32 21.62 4.44 32.32 7.05 3 .73 3.5.14 3.44-2.6-.3-12.42-.46-24.83-.77-37.24-.08-2.8-.18-5.36 3.87-5.58zm201 236a6.45 6.45 0 0 0 .35-1.17c-1.64-21.25-3.27-42.5-5-63.75a3 3 0 0 0-2.35-1.68c-5.5.87-10.93 2.08-16.4 3-2.57.43-2.94 1.4-1.94 3.74 4.8 11.08 9.43 22.2 14.13 33.3zM170.84 871.62h-.07a19.14 19.14 0 0 0 .2-4c-.13-.8-.92-2.1-1.55-2.18q-10-1.45-20.06-2.48c-.7-.07-2.13 1-2.17 1.6-.5 8.66-.86 17.32-1 26a3.27 3.27 0 0 0 2 2.43q9.48 1.32 19 2.1a3.2 3.2 0 0 0 2.42-2c.57-7.17.86-14.33 1.22-21.48zm-56.22 82h-1a32.83 32.83 0 0 1 0 4c-.38 3 1.2 3.68 3.75 3.42 5.34-.55 10.7-1 16-1.7 1.07-.15 2-1.2 3-1.82-1-.63-2-1.67-3.1-1.8-4.58-.6-9.2-1-13.82-1.36-2.3-.18-3.4-1.44-2.7-3.46.4-1.1 2-2.57 3-2.55 4.88.14 9.74.82 14.62 1 .83 0 2.43-1.17 2.48-1.9.5-6.47.68-13 1.06-19.43.13-2.1-.48-3-2.75-3.14-6.22-.28-12.42-.84-18.64-1.1-.57 0-1.73 1.26-1.74 2-.17 9.32-.13 18.58-.13 27.84zm-9.3-304.7c-.1.84-.23 1.5-.25 2.16-.35 13.74-.73 27.5-1 41.23-.3 15-.45 30-.83 45-.33 13.08-.9 26.14-1.28 39.2a3.36 3.36 0 0 0 .9 2 6 6 0 0 0 3-1.3c.58-.63.6-1.9.64-2.9l2-46.72 3-71.8c.2-5.57.02-5.66-6.17-6.87zm49.1 32.55c-.2 4-.46 6.68-.36 9.37a2.86 2.86 0 0 0 1.7 2.13q8.7 1.6 17.46 2.75a2.64 2.64 0 0 0 2-1.6q1-13.73 1.68-27.5a3.05 3.05 0 0 0-1.87-2.24c-4.1-.92-8.26-1.64-12.43-2.2a3.33 3.33 0 0 0-2.7 1.33c-3.35 5.95-6.6 12-5.5 17.97zm-9.9 272.46l-1.87.8c1.1 1.22 2.17 3.44 3.3 3.48a32.74 32.74 0 0 0 9.46-1.3c1.88-.5 4.77-1.87 4.92-3.13.37-3.06 1.56-3.5 4-2.87 2.76.7 3.5-.54 3.5-3.17 0-5 .33-10 .26-14.93a3.33 3.33 0 0 0-2.1-2.44c-6.18-.82-12.4-1.32-18.6-2-2.16-.25-2.94.54-2.93 2.6.1 7.63.07 15.3.07 22.97zm21.77-229.2c3.5-1.45 7-2.18 6.07-6.55a.5.5 0 0 1 .23-.42c3.2-.64 2-3.2 2.14-5.07.22-4 .32-8.1.25-12.14a2.85 2.85 0 0 0-1.68-2.14q-8.82-1.6-17.72-2.76c-.56-.07-1.82 1.06-1.85 1.68-.45 8.75-.7 17.5-1.1 26.27-.15 2.92.9 3.73 3.73 3.1 3.56-.77 7.14-2.34 10.87-.4.56.3 1.5-.14 2.25-.24v-.75zm72.6 178l1.3.22c.85-2.42 2.4-4.83 2.43-7.26.3-24.4.4-48.8.5-73.2q.17-32.55.25-65.1c0-.83-.74-1.67-1.13-2.52-.66.85-1.87 1.68-1.9 2.55-.56 15.26-1.25 30.53-1.38 45.8-.22 25.58-.06 51.16-.05 76.74v22.73zm-90.8-48c-.18 2.26-1.93 5.5 2.4 5.94 5.6.55 11.2 1.34 16.8 2 4 .45 5.64-1.66 4-5.45-3.5-8-7.13-16-10.8-24a4.06 4.06 0 0 0-2.13-2.2 42.3 42.3 0 0 0-8-1 2.94 2.94 0 0 0-2.16 1.9c-.2 7.52-.1 15.13-.1 22.75zm16.47-66.87v.4a70.2 70.2 0 0 0 7.3-.5c.88-.14 2.24-1.26 2.27-2q.33-8.83.12-17.67a3.16 3.16 0 0 0-2-2.3c-6.3-1.08-12.65-2-19-2.72-.8-.1-2.47 1.43-2.52 2.28-.4 6.73-.57 13.47-.6 20.2a3 3 0 0 0 2.05 2.17c4.1.18 8.25.07 12.37.07zm-7.14 131.9v.24c2.87 0 5.75.15 8.6-.1a3.08 3.08 0 0 0 2.23-1.93q.72-9 .93-17.95a3 3 0 0 0-1.93-2.2c-6.44-.85-12.9-1.53-19.37-2.1a2.45 2.45 0 0 0-1.83 1.54c-.43 6.56-.78 13.14-.87 19.72a3.6 3.6 0 0 0 2.37 2.6c3.27.32 6.58.13 9.87.13zm38-245.06c-.17-6.75-.17-6.75-6.77-7.9a26.3 26.3 0 0 1-3.73-.68c-2.8-.92-3.6.35-3.72 2.9-.44 8.6-1 17.18-1.4 25.77a3 3 0 0 0 1.77 2.3c2.94.7 6 1 9 1.58 1.9.4 2.94-.1 3.1-2.1q.82-11 1.73-21.94zm-16-149.87c0 2.27.08 4.55 0 6.82s1 3.2 3.2 3.6c3.2.58 6.32 1.86 9.54 2.13 1.58.13 4.15-.93 4.8-2.2a119.86 119.86 0 0 0 5.68-14.06 3 3 0 0 0-1.37-2.66 63.53 63.53 0 0 0-11.33-2.56 24.48 24.48 0 0 0-8.33 1c-4.54 1.18-1.6 4.9-2.18 7.43a2.18 2.18 0 0 0-.1.44zm17.1 388.87l-1.1.32c.54 1.83.5 4.48 1.7 5.3 2.82 1.93 1.7 5 .67 5.52-3.9 1.9-2.75 5.26-3 8.08-.5 6.13-.6 12.3-.92 18.44-.1 1.8-.8 2.92-3 2.16a2.54 2.54 0 0 0-1.86.6c-.2.14-.1 1.27.06 1.33a4 4 0 0 0 2 .17c5.14-1.2 10.27-2.4 15.38-3.7.8-.2 2.1-.88 2.1-1.3-.1-4.1.3-8.4-.87-12.2-1.62-5.27-4.44-10.2-6.77-15.25-1.45-3.23-2.93-6.37-4.47-9.53zm-22-156.5c-.18-2.43-.25-4.88-.65-7.28a2.9 2.9 0 0 0-1.78-2q-9.1-1.6-18.26-2.8a2.7 2.7 0 0 0-2.1 1.57c-.38 3.93-.56 7.9-.55 11.86a2.88 2.88 0 0 0 1.8 2.14q7.47 1.34 15 2.26c6.33.78 6.34.7 6.54-5.75zm3.46 66.9c-.44 7.75-2 6.82 6.5 7.7.5.06 1.15.33 1.5.1 1-.58 2.47-1.3 2.54-2.1.52-6.45.9-12.93 1.06-19.4.23-9.3.14-9.34-9.23-10.08a3.13 3.13 0 0 0-2.28 2.06c-.18 7.25-.1 14.5-.1 21.73zm-8.68-274.45c.28 4.46.4 7.75.77 11a2.67 2.67 0 0 0 1.6 1.82c3.7.9 7.4 1.74 11.16 2.28a3.38 3.38 0 0 0 2.83-1.57c1.63-4.94 3-10 4.37-15a1.8 1.8 0 0 0-.42-1.5c-1.88-1.63-8-.94-9.87.45a7 7 0 0 1-4.8 1.22c-2.16-.35-5.65.77-5.66 1.3zm-58.1 202.17l.83.12c1.32-7.4 3.24-14.74 3.8-22.2.86-11.08.68-22.24 1.06-33.37.48-13.74 1.1-27.47 1.55-41.2 0-.88-.8-1.77-1.24-2.65-.45.82-1.28 1.62-1.32 2.46-.62 13.56-1.08 27.14-1.7 40.7-.58 12.63-1.3 25.26-2 37.9-.28 6.07-.63 12.16-.97 18.24zM143 772.47l.74-.1a15.55 15.55 0 0 0 .28-1.9c.18-7.1.1-14.2.6-21.25.27-4.16-.67-6.37-5.24-6.3a43.3 43.3 0 0 1-7-.9c-3-.47-2.9 1.28-2.1 3.16 1.3 3 2.84 5.92 4.2 8.9 1.8 4 2.2 8.46 5.47 11.9 1.5 1.63 2.05 4.3 3.05 6.5zm34.17 126.3c-2.44-.8-3.16.52-3.14 3.14 0 3.54-.37 7.08-.44 10.62-.16 7.1-.12 7.08 6.88 7 .58 0 1.32.45 1.7.22.9-.52 2.25-1.26 2.33-2 .4-3.6.47-7.23.6-10.85.24-7.68.22-7.68-7.97-8.14zm5.4-276.54c1.72.45 2.5.7 3.3.86 7.92 1.55 15.85 3.1 23.78 4.62 6.78 1.3 5.7 1.45 5.75-4.85 0-8 0-8-7.84-6.25l-25.03 5.6zM173 946.33c-.62 5.75-.62 5.75 5.2 6.08a12.2 12.2 0 0 1 2.26.2c2.08.52 2.78-.52 2.84-2.36l.3-9.85c.27-8.62.28-8.68-8.3-9.26a3.1 3.1 0 0 0-2.2 2.08c-.24 4.36-.1 8.78-.1 13.1zm6-235.22c-.17 7.84-.17 7.84 7 8.66.08 0 .2.06.25 0 1-.66 2.52-1.18 2.74-2 1.2-4.74 2.15-9.55 3-14.37a2.6 2.6 0 0 0-1.44-2.1 47.08 47.08 0 0 0-8.47-1.4 3.4 3.4 0 0 0-2.53 2.14c-.4 2.96-.38 6.03-.57 9.07zm-33.6-19c-3.9 7.7-8.18 16.1-12.33 24.54-.2.43.62 2 1.2 2.1a86.54 86.54 0 0 0 9.18 1.64c.6.08 1.86-.73 1.86-1.14.15-9.24.13-18.5.13-27.18zm30.4 176.2c-.17 1.37-.3 2-.34 2.63-.33 6.38-.6 12.77-1 19.15-.36 6.07-.35 6.12 5.7 6.5 5.22.32 7.1-2.3 5.33-7.45-.3-.87-.7-1.7-1.1-2.56l-7.22-15.86c-.18-.7-.63-1.24-1.33-2.46zm82.68-251.6a54 54 0 0 0 .1 6.3c.07.65 1.33 1.75 1.88 1.65 4.16-.7 8.28-1.6 12.4-2.58a2.34 2.34 0 0 0 1.46-1.58c.34-4.6-3.93-10-8.28-10.6-7.56-1.16-7.56-1.16-7.52 6.74zM126.8 707.9l1 .26c.36-.74.76-1.47 1.06-2.23 4.55-11.5 9.13-23 13.55-34.56.37-.94-.32-2.27-.53-3.42-2.13.47-5.25-2.92-6.36 1.62-1.66 6.87-3.44 13.72-5 20.6-1.36 5.88-2.5 11.83-3.7 17.72zm89.34 27.1c-.6-.76-1.3-2.57-2.52-3a30 30 0 0 0-7.44-1.28c-.72-.07-2.14.54-2.17.93-.37 4.5-.54 9-.76 13.54l9.26 2c.25.04.6.17.74.06.62-.46 1.6-.93 1.7-1.52.5-3.2.75-6.47 1.2-10.74zM180 787c3-.3 5.37-.68 7.7-.7s3.14-1.06 3.2-3.2c.1-4.37.43-8.73.28-13.1 0-.7-1.92-1.78-3.07-2-1.42-.2-4.16 0-4.3.57-1.46 6.02-2.53 12.02-3.8 18.5zm-45.58-11.5c-3.24-7.15-6.16-13.65-9.15-20.1-.2-.42-.9-.6-1.37-.88-.33.55-.9 1.07-.95 1.64-.63 6-1.23 12-1.65 18.07 0 .7 1.1 2.15 1.66 2.13 3.58-.02 7.15-.42 11.46-.8zm38.34-318.65l-23.92 7v.75l23.06 4.87zm-65.7 385h.58c.63-4.25 1.8-8.5 1.7-12.74a7.5 7.5 0 0 1 2.36-6.1c.62-.62.85-2.76.4-3.13-2.46-2-1.58-4.47-1.83-6.94-.66-6.67 3.37-12.12 4.32-18.34.3-1.95-2.67-5.37-4.5-4.92A2 2 0 0 0 109 791a36.1 36.1 0 0 0-.47 4.77q-.76 20.34-1.46 40.68c-.07 1.84 0 3.64 0 5.44zm134-263.8l-1.06-.22c0-2.54.3-5.13-.16-7.6-.16-.86-2.05-1.64-3.28-2a3.18 3.18 0 0 0-2.78.66c-1.8 2.38-.4 9.92 2.1 11.86a5.2 5.2 0 0 0-1.3.17c-.75.32-1.46.74-2.18 1.13a7.2 7.2 0 0 0 2.17 1 42 42 0 0 0 6.53.15c.73-.04 2-1 2-1.52a68.1 68.1 0 0 0-.93-7.32zm92.06 57.77l43.88-8.34c-2.2-3.07-16.8 0-18.08 2.42-1.62-.18-3-.64-4.22-.42-4.9.9-9.75 2-14.6 3-3.9.84-7.8 1.72-11.7 2.58v1.06l5.52 1.23zm-223.68 287.8l-.9-.1a12.77 12.77 0 0 0-.45 1.8c-1.1 11.4-2.23 22.8-3.17 34.2-.07.8 1.27 1.74 2 2.62.58-.78 1.6-1.53 1.65-2.34q.6-10.84.87-21.7c.1-4.82 0-9.65 0-14.48zm79.8-157c.78-.7 2.16-1.36 2.24-2.15a77.77 77.77 0 0 0 .5-11.33c0-.9-1.67-2.1-2.8-2.45-.6-.2-2.2 1-2.43 1.78-.8 2.74-1 5.65-1.78 8.4-1.02 3.5-.6 5.64 4.28 5.72zM150 810l-1.48.18v14.45c0 .84.52 2.3 1 2.4a75.93 75.93 0 0 0 7.9.8 2.34 2.34 0 0 0 .1-1.15c-2.46-5.53-5-11.08-7.52-16.68zm111.67-249.13c-2.32-5.4-4.37-10.7-7-15.77-.54-1.06-3-1.1-5.2-1.82 1.83 4.37 3.35 7.73 4.63 11.2s2.7 6.52 7.57 6.4zm-73.2 230.6c-3.4.5-5.8.62-8 1.3a3.77 3.77 0 0 0-2.28 2.7c0 .9 1.35 2.3 2.37 2.6 2.06.62 4.3.56 6.45 1 4.9.9 2.8-3 3.17-4.92.15-.85-1.2-2-1.73-2.68zm-24.54-219c.55-5.57-5.57-9.33-14.76-9.3 3.72 5.37 8.68 7.98 14.76 9.35zm41.87 12.14c-1 3.54-2.4 5.3-6.06 3.75-.22-.1-.72.46-1.1.72.4.5.67 1.32 1.16 1.47a47.82 47.82 0 0 0 7.54 1.94c3.3.45 6.67.48 10 .6.4 0 .8-.52 1-.67l-10.4-5-.7 2.12zM97.1 957.2c.84-9.66 1.87-21.37 2.8-33.1.06-.76-.6-1.6-.94-2.4-.48.77-1.3 1.52-1.38 2.33-.28 3.43-.42 6.9-.45 10.34-.06 8.28-.02 16.57-.02 22.84zm168.33-513.76h.3v-65.88h-.3zM177.76 736.9l.9.54c-.9 3.6.77 5.3 4 4.76 3.7-.63 1.75-4.4 2.92-6.5-1.62-.7-3.25-2-4.84-1.9-1.02.03-1.98 2-2.98 3.1zm.3 25.92l1.15 1.7c.5-.66 1.27-1.27 1.44-2 .74-3.27 1.28-6.6 2-9.88.35-1.7.6-3.1-1.83-3.46s-2.6 1.3-2.67 2.87c-.13 3.3-.08 6.67-.08 10.77zm-26.6 31.42c7.5 1 13.76 1.94 20 2.65.75.07 1.6-.96 2.42-1.47-.8-.7-1.58-2-2.4-2-5.7-.14-11.42 0-17.14 0a16.8 16.8 0 0 0-2.87.8zm112.3-417.17l-.37.07v65.8h.35zm6.53 188.2l.05-.74c-2.55-.62-5.1-1.36-7.67-1.83a29.85 29.85 0 0 0-4.8 0c.57 1.47 1.33 3.6 2.24 5.68.3.7 1.13 1.77 1.47 1.7a8.1 8.1 0 0 0 2.64-1.58 23.42 23.42 0 0 1 2.74-2.28 14.58 14.58 0 0 1 3.3-.94zm2.6 176.67v-.57c-4.4-.7-8.77-1.43-13.16-2.1-2.38-.38-2.6 1.33-2.2 2.83.23.88 1.53 2.23 2.18 2.14 4.43-.58 8.8-1.5 13.18-2.3zm-15.64-366.38l-.43.06v66.24h.43zm4.45 3.2h-.43v63.68h.44zm-104.4 180.8c-1.4-7-1.4-7-7.45-5.48a9.34 9.34 0 0 0-1.94.5 9.36 9.36 0 0 0-1.6 1.26c.48.53.86 1.4 1.42 1.53 3.06.8 6.16 1.42 9.6 2.2zm-10.3 92.9c1-1.75 2.32-2.9 2.2-3.9-.4-3.95-4.08-2.06-6.22-2.9-.36-.14-1.67 2.13-2.55 3.3zm-32.6 106.48h-.4c-1.17 5.52-2.4 11-3.42 16.56-.1.5 1 1.24 1.47 1.87 1-1.9 2.45-3.72 3-5.76.4-1.4-.54-3.1-.6-4.7-.13-2.63-.04-5.3-.04-7.96zm30.23-30.26v-.8c-3.87-.64-7.73-1.4-11.63-1.76-.5 0-1.4 1.88-1.67 3-.1.46 1.07 1.8 1.5 1.72 3.95-.6 7.87-1.4 11.8-2.16zm32.77-70.3h-14.64A3.24 3.24 0 0 0 165 660c3 .55 6 .82 9 1.57 3.26.86 3.9-.5 3.4-3.2zM145.2 546.8c1 1.3 1.94 3.08 2.27 3a71.6 71.6 0 0 0 7-3.08 61 61 0 0 0-6.92-2.68c-.42-.15-1.35 1.53-2.36 2.76zm114-104.8h.42v-66.22h-.42zm-18.7 300h-.07a20.7 20.7 0 0 0 .05 3.52 6.94 6.94 0 0 0 1.18 2c.65-.62 1.8-1.2 1.86-1.85a44.82 44.82 0 0 0 0-7.55c0-.6-1.16-1.1-1.78-1.66-.42.57-1.1 1.1-1.2 1.72a25.1 25.1 0 0 0-.06 3.73zm-44.35-267.22c.48.6.87 1.4 1.1 1.35 2.83-.5 5.63-1.1 8.4-1.78.4-.1.6-.86.9-1.32-.47-.3-.96-.87-1.38-.83-3.85.4-7.7.85-11.52 1.4-.44.07-.78.87-1.16 1.33.6.27 1.25.8 1.84.75a5.2 5.2 0 0 0 1.8-.9zM55 614.73c1.93-.27 3.78-.6 5.65-.8 1.58-.16 3.17-.2 4.76-.3 3-.17 3.33-2 2.82-5-2.07 1.12-3.8 2.07-5.54 2.94a2 2 0 0 1-1.4 0c-3.02-.97-5.7.56-6.28 3.16zm242.2 2.34l-.1-.78-12.1-2.44-.82 1c1.16 1.35 2.32 3.84 3.5 3.85 3.2.03 6.38-1 9.56-1.63zm-42.58-175.7h.47v-64.1h-.48zM121.27 752.28c-6.87 1.82-7.72 3.58-4.45 9.78-.44-3-.23-4.74 2.6-3.23.2.1 1.22-.66 1.3-1.12.28-1.67.36-3.4.55-5.44zm4.4-108c-1.37-.9-2.13-1.8-2.67-1.68-2.26.5-4.45 1.33-6.67 2a43.82 43.82 0 0 0 6.45 2.62c.55.2 1.57-1.5 2.9-2.9zm14.27 12.26c-.32.34-1.28.93-1.47 1.7-.1.46.9 1.54 1.6 1.77a14.76 14.76 0 0 0 4.92.9c.8 0 1.58-1.17 2.37-1.8-.56-.65-1-1.7-1.7-1.87a42.2 42.2 0 0 0-5.74-.66zM176.4 926.2l-.25-.8a17.36 17.36 0 0 0-2.55 1.5c-.17.15.2 1.46.4 1.48 3 .3 6.06.54 9.1.55.36 0 .9-1.43 1-2.24 0-.27-1.08-.95-1.66-.94-2.03.02-4.03.24-6.04.44zm5.15-267.7c.44 1.52.55 4.13 1.37 4.37a70.26 70.26 0 0 0 11.1 2c.45.06 1-1.1 1.56-1.67-.62-.4-1.24-1.13-1.86-1.14a11.27 11.27 0 0 0-3.7.64c-4.38 1.55-6.28-1.06-8.47-4.2zm3.45 74.14c.8-1.42 1.63-2.33 1.78-3.33.08-.55-1.12-1.92-1.46-1.83-2.23.6-4.4 1.47-6.57 2.26zm32-163.92c-2.24 5.2-.3 11.6 3.9 11.75zm12.58 5.84h1.27v-14h-1.27zm-205 42.7l1.5 1.74a11 11 0 0 0 1.28-2.72 50.72 50.72 0 0 0 .62-6.4c0-.56-.52-1.15-.8-1.73-.53.44-1.4.8-1.52 1.33-.4 2.25-.66 4.52-1.05 7.78zm167.95 120.37l-1.1-2.34c-.6 1.04-1.2 2.1-1.77 3.15a1.22 1.22 0 0 0-.15.73c.27 1.46.58 2.9.87 4.36.72-1.34 1.45-2.67 2.14-4a8.3 8.3 0 0 0 .03-1.9zm-70.72-.1l2.4 8.73.5-.22-.93-11.67a20.43 20.43 0 0 0-2.9 1.65c-.4.3-.38 1.2-.67 2.23zm22-190.46a6 6 0 0 0 0-1.74 14.87 14.87 0 0 0-1.06-2.17 8 8 0 0 0-1.24 2.08 14.4 14.4 0 0 0-.43 4c0 .72.65 1.42 1 2.13a9.32 9.32 0 0 0 1.66-2 6 6 0 0 0 .1-2.3zm32.77 24.8c-1.62-1.2-3.08-2.37-4.63-3.38a8.1 8.1 0 0 0-2.17-.68c.06.94-.25 2.2.24 2.76 1.65 1.92 3.72 2.94 6.58 1.28zm-67.67 341l1.3.1.94-19h-.7zm58.88 14.74v-1.26h-14.22v.4zm42.77 32.27a44.5 44.5 0 0 0 5.2-.08c.5-.07 1.18-1 1.23-1.58a2.65 2.65 0 0 0-.74-2.16c-1.5-.96-5.68 2.24-5.68 3.76zM134.2 787.13l.04-.42c-2.65-.36-5.33-.63-8-1.16a7.33 7.33 0 0 1-2.54-1.58c-.7-.52-1.3-1.15-2-1.74-.5.6-1.5 1.48-1.4 1.7.48.8 1.27 1.87 2 2 4.04.55 7.97.83 11.9 1.2zm42.4-59.23a22.73 22.73 0 0 1 .13-2.3 19.45 19.45 0 0 1 .57-2.2 21.55 21.55 0 0 0-2.4.1 6.76 6.76 0 0 0-2.15.6 8.16 8.16 0 0 0-1.53 1.33 10.6 10.6 0 0 0 1.72 1.15c1.18.52 2.43.9 3.65 1.32zm15-5.1c1-.92 1.9-2.37 2.93-2.48 1.7-.2 3.46.57 5.22.78a10.18 10.18 0 0 0 2.42-.3c-.17-.47-.36-1.37-.52-1.37-3.82.08-7.63.26-12.3.45zm-59.86-75l2.33 1.84a23.3 23.3 0 0 0 1.9-3.9c.12-.4-1-1.14-1.5-1.73zm28.53-87.3l1.32-.52c-.58-2.34-1.1-4.7-1.75-7a1.37 1.37 0 0 0-1-.82c-.35 0-1 .67-1 .88.8 2.45 1.64 4.96 2.46 7.42zm16 91.55c-3.34-.26-6.74-3.25-10-1.18v1.18zm-8.93-91.2l1.58-.12-1-10.4-1 .1zm-5.22-9.25c-1 4 .7 8.6 3.3 9.2zM28.36 607.38l-.85-8-1.36-.12a52 52 0 0 0-.13 5.93c.07.6 1.14 1.1 2.36 2.18zm214.8 7.7h-1.47v8l1 .07zm-186.68-7.45l-.23-1.53-7.78 1.9.3 1.36zm186.1 121.15l1.48-.75-1.46-4-1.9.83zm-15.8-165.4c-1.12-1-1.95-2-2.24-1.9a9.85 9.85 0 0 0-2.26 1.94c.72.54 1.38 1.35 2.17 1.52.55.06 1.2-.77 2.32-1.57zM183.1 174h-1v7.63h1zm33.16 390l-3-2.5c-.44.54-1.36 1.3-1.23 1.6a4.63 4.63 0 0 0 1.83 2.1c.32.16 1.2-.6 2.4-1.2zm-29.46-152h.14v-19h-.14zm6.07 458l1 .1v-5.42h-1zm-82.5-86.77v.6a14 14 0 0 0 3 .6 6.36 6.36 0 0 0 2.44-.84 1.9 1.9 0 0 0-.13-1.06 9.13 9.13 0 0 0-2.28 0c-1 .15-2 .46-3.02.7zm4 46.3l1 .05.44-7.27-1.12-.06zm92.86-257.47l.64.07v-10.47h-.64zM128 754.9h3.5a1.62 1.62 0 0 0 1.1-.33c.17-.23.12-1 0-1.06a6.32 6.32 0 0 0-2.95-.77c-.65.08-1.03 1.27-1.65 2.18zM156.36 651l1.14 1.2 3-2.88-1.14-1.2zm12 76.6l-.6 1.12c.66.5 1.35 1.45 1.94 1.4.75-.1 1.42-1 2.12-1.52zM25.93 592.17l-1.1.4 1.6 4.6 1.25-.46zM321.55 710l.95-1.1-2.77-2.45c-.18.48-.65 1.2-.5 1.4a20.86 20.86 0 0 0 2.32 2.15zm-51.2-63.15l.14 1.05 6.4-1.48-.15-.85zm-87.12-480.2l-1.23.15c0 1.2-.05 2.4 0 3.6 0 .3.45.65.78.8.16.1.75-.26.74-.4-.03-1.4-.17-2.8-.3-4.15zM300.25 642l-.42-1.2-3.2 1.08.5 1.3zM194.13 848.4l-.58.04v4.5h.93zm3-377.35l.17.93 4.74-.75-.2-1.05zm.4 125.6l.17-1.4h-3.34l-.14.93zm45.05 16.14l1.14-.15-.55-3.86-1.07.12zm-51.52 119.65l1.3.22.28-3.55-1-.13zM36 615.5l-1.38.25.63 3 1.12-.2zm-10.46-89.14h-1.17l.3 3.35h.87zm290.63 112.2l.16.84 3.24-.66-.35-1zm-193.1 107.66h-1.2c.1 1 .17 1.9.3 2.85a4.14 4.14 0 0 0 .86 0c.05-.94.04-1.9.04-2.85zm73.72-157.7l-.3-1.2-3.5.68.1.75zm-9.1-462.22l-1.4-.06v2.6a3.88 3.88 0 0 0 1.06 0c.2-.84.26-1.68.34-2.54zm-55.78 532l1.27.2c.05-.86.13-1.7.14-2.57a3 3 0 0 0-.84-.1c-.23.82-.4 1.65-.58 2.48zm33.5-107.7l-1 .2.8 3.58.62-.1zm76.24-4.28l.9.23v-4.84h-.2zm-24.3 42.44l-.4.75 2.77 1.47.42-.8zM282 644.18l-.14.9 3.62.7.16-.78zm-102.3-73.84l.25-.94-3.52-.83-.17.68zm-.06 196.78l-.87-.1v3.82h.36zm142.92-52.18h.95v-2.8a9 9 0 0 0-.9 0c-.1.98-.08 1.86-.08 2.8zm-209 126.3l.78.1.36-3.7-.77-.07zm73.25-452.07h.2v-6.4h-.14zM11 621.77l-.6.88 1.68 1 .5-.73zm96.54 158.63l-1-.38-.45 2.18.8.22zm79-658l.87-.22-.58-2.3-.74.2zm.24 308.74h.22v-5.92h-.15zm0-10.65h.22v-5.42h-.14zm-7.36 540.2v.47h2.66v-.47zm.58-369.14l-.15.75 2.47.53.15-.75zM142 735.5v.47h2.6l-.06-.76zm-4.78-192.27l.25-.9-2.28-.5-.17.56zm-11.82 199.6l.8.42.77-1.66-.76-.36zm78.5-272.77l.14.9 1.68-.3-.1-.77zm-37.5 105.18l-.8.05.2 2h.6zm-8.86-27.64l.86-1a3.43 3.43 0 0 0-.9-.66c-.14 0-.63.38-.6.53a4 4 0 0 0 .64 1.13zm130.37 43.57l-.18.67 2.44.45.12-.48zM26.1 550.82l-.7-.8-.72.7c.2.2.4.53.64.6s.44-.32.8-.5zm148.8-154.4l-.4-.14-.5 2.72h.64zm-.7 49.65h.47v-2.66h-.27zM33.45 616.72l-.64-.1.1 2h.55zM187 438.42h-.15v3.4h.15zm-67.47 323.2c-.5-.2-.8-.47-1-.4s-.35.42-.52.66c.25.16.5.46.74.45s.38-.33.77-.7zM150.3 926l.07-.23h-3v.23zm66.14-199.83l-.65-.1v1.58h.43zm-97.9 64.5l-.5-.17-.44 1.3.54.18zm75.96 83.1c-.32-.3-.52-.58-.62-.55a2.68 2.68 0 0 0-.7.47c.14.15.3.45.43.44a3.12 3.12 0 0 0 .9-.4zm11.8 83l.76-.12-.34-1.8-.62.12zm98.06-226.17l-.68-.46-.68 1.26.52.35zm118.48-117.83c.2-.55.43-.85.36-1.06s-.44-.3-.7-.35c-.08 0-.34.38-.3.53s.3.44.64.9zm-305.48 182.7l.63.1.08-1.32-.44-.06zm167.3-67.63l-.6-.06v1.68h.33zm33.77-175a8.2 8.2 0 0 0-.5 1.58 5.94 5.94 0 0 0 1 .52zM27.77 507c-.23-.2-.4-.43-.58-.45s-.3.26-.46.4l.6.58zm275 135.5l.23.55 1.4-.5-.13-.45zM126.12 751l-.18-.54-1.16.44.1.33zM217 565.62c-.17.3-.37.5-.36.7s.26.3.4.45c.14-.18.36-.35.37-.54s-.16-.34-.4-.6zm-49.3 2.58l.55-.4-.84-1-.42.35zm-1.32 4.67l.35-.52c-.3-.17-.6-.34-.93-.48a1.2 1.2 0 0 0-.2.36l.82.63zm10.87-113.4l-.35-.54c-.27.25-.56.5-.8.76a1.2 1.2 0 0 0 .24.33c.35-.18.66-.38.95-.57zm48 123c0-.16 0-.36-.07-.36-.47 0-.94-.05-1.42-.08v.34zm-2 7.5v.5h1.57v-.32zm20.2 62.85l-.05-.38-1.83.32.05.3zm64.68-12l.08.38 1.26-.26-.1-.4zM242.63 627l-.54-.27-.52 1.08.36.2zm-67.9-237h-.37l.1 1.93h.27zM384.6 623.55c-.4-.28-.63-.52-.86-.53s-.48.35-.45.47a2.37 2.37 0 0 0 .47.7zm-163.9 147.6l-.36-.3-.3.52c.14.06.3.18.42.15s.16-.24.24-.37zM25.76 511.9c-.12.1-.3.2-.32.3s.13.27.2.4l.47-.38zm118 44.6l.07-.45-1.12-.17-.06.44zM26.1 564.4l-.58-.6a1.85 1.85 0 0 0-.3.55c0 .1.17.35.27.35s.33-.15.6-.3zm352.07 59.7l.36.24.67-1-.35-.24zM240.3 587.34l.35-.25a2.94 2.94 0 0 0-.5-.3l-.24.34zm-36 6.72c1 .68 1.2.87 1.28.84a2.68 2.68 0 0 0 .53-.44zm-43.05 1.24c-1-.68-1.22-.88-1.3-.84a2.67 2.67 0 0 0-.53.45zm92.28 282.78zm-22.16-290.42zm-59.2 8.06c-.1-.1-.28-.3-.3-.26a2.2 2.2 0 0 0-.38.4c.12.05.26.17.38.15s.2-.17.3-.28zm13.74 2.56a2.53 2.53 0 0 0-.8-.25c-.1 0-.17.3-.25.46.14.05.3.17.42.14a2.82 2.82 0 0 0 .65-.35zm58.76 26.63c-.18.42-.3.55-.27.67a6.22 6.22 0 0 0 .16.8zM231 938.45l.3.28c0-.06.14-.16.13-.18a2.56 2.56 0 0 0-.27-.3zm8.3-428.1l.34-.25c-.1-.1-.2-.27-.3-.3s-.23.14-.34.22zM174.8 466h-.4l-.15.76.3.07zM191 565.15c-.32.4-.5.6-.48.63a3.92 3.92 0 0 0 .48.55zm24 24.26l-.32.3c.1.1.22.25.32.25s.2-.16.32-.25zm-28.2-153.9h.2l-.1-.83c-.04 0-.14 0-.14.08l.03.75zM40 619.57c-.12-.1-.23-.24-.34-.24s-.22.15-.32.24c.1.08.2.23.32.23s.2-.14.34-.23zm273.06 20.13c.54-.23.27-.12 0 0 .26.07.52.15 0 0zm-51.74-263.64l-.28-.3a2.07 2.07 0 0 0-.2.32s.1.17.1.16a2.6 2.6 0 0 0 .38-.18zm-8.12-1.83c-.1.12-.26.23-.25.34s.16.23.26.34l.36-.42zm-11.1 347.34l.2-.14a2.48 2.48 0 0 0-.28-.28l-.18.12zm-43.55.12c-.1.1-.28.22-.3.34s.2.2.3.3c.1-.1.27-.2.3-.3s-.18-.2-.3-.35zm-26.9-472.54l-.35.2c.08.1.15.28.26.33s.22-.12.34-.18zm4.52-86.93L176 162a3.14 3.14 0 0 0-.32.2.68.68 0 0 0 .1.18 3.14 3.14 0 0 0 .38-.15zM314.77 967.1l-2.8-.78v-.56h11.77v.65l-4.4.7z" fill="#328ecd"/><path d="M285 484.54l-1.83-.1-.15.64c2.35.68 4.67 1.45 7.05 2 10.5 2.46 21.05 4.83 31.56 7.32a9.56 9.56 0 0 1 2.56 1.6 19.2 19.2 0 0 1-2.56 1.66 33.72 33.72 0 0 1-5.35 2.06c-.88.23-1.94-.25-3-.12h-3.7l1.25 14.66-.55.06a32.78 32.78 0 0 1-.54-5.74c.28-3.7-1.3-4-4.36-3.16-11 2.95-22 5.76-33.1 8.5a10.88 10.88 0 0 1-4.93.14c-7.72-1.82-15.4-3.85-23.08-5.8-5.35-1.34-8.2-4.84-8.26-10.46-.05-4.8.1-9.62.12-14.44 0-1.44 0-2.22-2.18-2.3a6.76 6.76 0 0 1-4.9-3.48c-.8-1.83-.86-5.42.28-6.32 1.6-1.25 4.6-.72 7-.28l-5.08.24-.16 1.12c15.23 3.5 30.07 8.63 45.56 10.26l-1.07.36v.5h9.4zm-42.43-1.2l-.27.55a25.28 25.28 0 0 0-3.48-1.48c-.3-.1-.88.74-1.33 1.14.3.32.58.82 1 .93 4 1.12 7.9 2.26 11.9 3.25 9.23 2.27 18.54 4.3 27.73 6.73 9 2.4 18.26 3.5 27.16 6.27a16 16 0 0 0 2.28.37l.5-1c-1.18-.8-2.28-2-3.6-2.32-5.06-1.4-10.2-2.54-15.32-3.82-6.3-1.58-12.6-3.3-18.93-4.8-6.76-1.64-13.54-3.15-20.33-4.63-2.4-.55-4.9-.8-7.3-1.2zM346.07 965l-9.75-120.14c.36 3.5 3.17 2.94 5.32 3.64 1.17.38 2.75 1.78 2.84 2.83 2 23.77 3.86 47.56 5.78 71.34.9 11.17 1.9 22.34 2.87 33.5.26 2.95.92 5.82-3.85 5.6-1.1-.04-2.28 2.28-3.2 3.23z" fill="#328ecd"/><path d="M351.24 476.6c7.4 2.42 14.67 5.25 22.2 7.14 7.05 1.77 14.4 2.43 21.56 3.83 2 .4 3.76 1.7 5.65 2.56a9.7 9.7 0 0 0 2.35.87c4.38.72 8.77 1.4 13.17 2a22 22 0 0 0 3.25 0 23.5 23.5 0 0 1 3.17 2 11.5 11.5 0 0 1 2.85 3.3c4 8.43 2.7 17.35 2.3 26.22-.3 6.55 0 13.13.07 19.7a30.4 30.4 0 0 1-.3 3.1l1.54.1-.66 2.66 1.33.62c-.1 4-3.1 1.13-4.52 1.78.24-2.67.6-5 .6-7.3q.1-18.1 0-36.2c0-4.28-1.73-5.74-5.9-4.75q-37.95 9-75.85 18.13c-6.4 1.54-12.76 3.25-19.2 4.6-1.76.38-3.73-.27-5.6-.45v-1.33L422.85 500l.23-1.16c-1.56-.93-3-2.3-4.7-2.73-13.08-3.4-26.2-6.62-39.3-9.9q-33.76-8.46-67.53-16.9-15.2-3.8-30.44-7.45c-.4-.1-1.32.67-1.5 1.2-.26.8-.07 1.72-.07 3.8a15 15 0 0 1-1.07-2.88c-.16-3-1.3-4.3-4.36-2.93a2.43 2.43 0 0 1-1.45-.1c-5.56-1.5-11.13-3-16.68-4.55a47.32 47.32 0 0 1-4.64-1.95l.7 14.1h-3.65c.7-1.94 1.65-3.5 1.84-5.18 1-8.5.65-8.94-7.56-11.18-3.43-.95-6.9-1.75-10.35-2.6l.2-1.2c4 .52 8 .73 11.9 1.67 5.33 1.3 10.52 3.12 15.77 4.73 3.86 1.2 7.67 2.52 11.56 3.56 4.7 1.25 9.45 2.28 14.2 3.38 6.7 1.56 13.43 3 20.1 4.66 8.14 2 16.2 4.37 24.34 6.4 5.45 1.36 11 2.5 16.46 3.62a29.35 29.35 0 0 0 4.44.25l-.1.06zM229.5 0c.13 2.7.37 5.42.4 8.13q.23 23.65.4 47.3a4.4 4.4 0 0 0 4 4.73 5.17 5.17 0 0 1 2.86 1.36c-1.73 0-3.47-.1-5.2 0a8.86 8.86 0 0 0-3.8.85c-1 .6-1.6 1.93-2.37 2.93 1 .25 2.05.48 3.07.76 5 1.38 10.16 2.33 14.9 4.3 4 1.66 4.33 5.4 1.44 7.38-5-8.12-18.77-8.42-24.88-.8-1.24 1.55-4.92 3.3-5.6 2.7a11.73 11.73 0 0 1-3.36-6.38c-.93-4.6 1.3-8.73 2.95-12.9 1.2-3 3.1-3 5.53-1.2 1.4 1.05 4.16 1.1 5.94.52 1.12-.37 2.2-2.75 2.23-4.25.22-9.53.15-19.06.17-28.6v-24a27.32 27.32 0 0 1 .28-2.83zM216 61.14l.75.65a14 14 0 0 0 1-1.28 2.57 2.57 0 0 0-.58-.54c-.4.36-.76.77-1.17 1.16zM211.5 469l-1.38-9.23 1.3-.34a11.4 11.4 0 0 1 1.1 3.14c.17 3.4 2.34 4.28 5.17 4.44 1.17.08 2.35 0 3.53 0 3.93 0 4.5.9 3.64 4.72-.2.9.38 1.94.3 2.9a16.72 16.72 0 0 1-.76 3.34c-.4 1.4-1.2 2.74-1.27 4.14-.14 3-1.66 3.82-4.38 4.17-1 .13-1.7 2.05-2.66 3s-2 1.72-3.74 3.2l4.2 4.37-1.8 1.94h1.28l.8 10.78h3.67c-4.36 1.88-2.64 5.7-3.35 8.85l4.46.52c-6.73 3-2.85 8.53-5.08 12.66l-1.27-13.16-.5 2.23-.82.1-1-7.63a8.45 8.45 0 0 1-.87-2.5c-.07-2.6.34-5.24 0-7.8-.18-1.4-1.45-2.68-2.27-4.1l2.16-4-3.94 1.3 3.26-7.58-3.65 1.56c4-6.1.77-13.22 5.2-18.3l-1.22-.42.07-.5h8.17a14.9 14.9 0 0 0 2.75.18c.58-.1 1.07-.82 1.6-1.26a5.73 5.73 0 0 0-1.8-.7c-3.82-.08-7.63 0-10.9 0zM170.3 120.93c-4.3-10.72-1.55-20 7.62-24.9 5.45-2.92 11.5-4.72 17.34-6.9a4.1 4.1 0 0 1 2.5.43 11.8 11.8 0 0 1 2.08 1.3l.32-2.85a88.33 88.33 0 0 0 9.65 1.2c4.17.07 8.33-.56 12.5-.57 20.62 0 41.1.83 59.37 12.2 5.23 3.27 7.14 6.86 6.53 11.92-1.3-8.42-7.12-12.1-13.56-14.9-13.3-5.72-27.4-7.88-41.77-7.47-10.3.3-20.73.6-30.8 2.45-8.13 1.5-15.92 5.1-23.63 8.33-2.14.9-3.2 4.06-5.17 5.72-4.42 3.75-2.27 8.8-2.98 14.05zM204.84 444.2c.13-6.35.12-6.53 6.18-7 6.22-.4 12.46-.54 18.7-.5 1 0 2.87 1.75 2.75 2.37-.25 1.28-1.5 3.27-2.5 3.36-8.36.77-16.77 1.18-25.17 1.7zM207.92 446l21.4-1 .4 1.52c-2.58.93-5.1 2.26-7.74 2.7a49.3 49.3 0 0 1-10.56.46c-1.4-.08-2.7-1.46-4-2.25z" fill="#328ecd"/><path d="M228.93 467c2.23 0 4.46.06 6.68 0 .78 0 1.9-.26 2.2-.78s-.37-1.45-.62-2.2-.93-1.68-.7-2.26a9 9 0 0 1 2-2.33 17.85 17.85 0 0 1 .7 1.95c.5 2 .92 3.95 1.37 5.93l1.4.33 4.1-9.74c.34 3 .77 6.3 1.08 9.64 0 .3-.7 1-1.1 1h-16c-.4 0-.82-.37-1.24-.57zM240.6 413.67c-2.85-.86-6.08.9-5.82-3.14.1-1.5.57-4.2.94-4.22a22.77 22.77 0 0 1 7.9.88c.66.22 1.1 3.38.5 4.57s-2.73 1.54-3.5 1.92zM210.5 455.5c-.66-1.85.24-2.9 2.57-3s4.7-.3 7.07-.33c5.62-.1 6 .4 5.3 6.8-3.9-7.23-9.92-.97-14.95-3.47zM214.88 379.84a4.34 4.34 0 0 1-1.74 0 13.37 13.37 0 0 1-2.1-1.57c.62-.63 1.2-1.72 1.9-1.8a97.3 97.3 0 0 1 10.28-.56c.76 0 1.52 1 2.28 1.6-.7.63-1.35 1.7-2.1 1.8-2.83.34-5.68.36-8.52.5zM182.3 208.58c-.67 2.6-1.7 5.17-2 7.82-.26 3 .25 6 .26 9a7.43 7.43 0 0 1-.84 2.73c-.06.15-1 .13-1.06.05a12.72 12.72 0 0 1-.56-3.06c0-1 .77-2.12.46-2.9-2.14-5.27 1.6-9.28 2.57-13.88zM240.23 456.63l-1 1.77a15.35 15.35 0 0 0-1.7-1.83 7.37 7.37 0 0 0-2.48-1.5c-1-.26-2.2 0-3.23-.17a21.83 21.83 0 0 1-3.26-1.23 14.7 14.7 0 0 1 3.47-1.44 24.63 24.63 0 0 1 4.78.07c3.13.15 3.47.53 3.43 4.33zM335.58 829.75c-.58-6.2-1.23-12.4-1.74-18.6-1.05-12.85-2-25.7-2.35-38.6l4.05 57.22zM261.68 466.3c-2.1 1.53-3.9 3.34-4.35 3.05-1.5-.94-2.5-2.65-3.7-4.07 1.17-.92 2.47-2.7 3.5-2.55 1.37.2 2.53 1.9 4.55 3.57zm-5.58 2.32l1.57-1c.4-.6 1.27-1.4 1.12-1.78-.27-.68-1.18-1.57-1.78-1.54a2.42 2.42 0 0 0-1.66 1.67c-.12.8.47 1.76.74 2.66zM243.88 395.14l-3-3.32a24.6 24.6 0 0 1 4.08-2.38c.3-.12 1.9 1.62 1.74 2.1-.42 1.12-1.5 2-2.82 3.6zM185.9 204.4l.37 8.25c-3.8-1.96-4.1-4.65-.37-8.25zM228 503.8c-2.5-.07-3.84-5.84-2.33-11.23zM235 501.8l-1.3.1-2.44 4-1.35-.7 1.5-5.3 3.76 1.2zM191.3 141.24l-2.1 3.76c-.42-.72-1.3-1.54-1.18-2.15a23.45 23.45 0 0 1 1.7-4.16zM189.54 146.13a32.77 32.77 0 0 1 .58 4.76c0 .56-.92 1.12-1.42 1.7-.28-.56-.78-1.1-.8-1.67-.12-1.72-2.04-4.12 1.64-4.8zM370.47 538.92l10.9 2.8-.3 1.14-10.9-2.76zM211.2 517.83l-.8-2.15-.77 4.66-1 .12c-.13-1.35-.58-2.77-.28-4 .18-.74 1.54-1.2 2.37-1.78l1.36 2.47zM309.18 524.78a9.37 9.37 0 0 0 1.6-2.57c.28-1.18.07-2.5.4-3.83a43.56 43.56 0 0 1 1.4 5.95c.07.66-1.07 1.46-1.66 2.2l-1.7-1.77zM281.77 463.4l.83 5.38-1.6.22-.74-5.32zM181.3 255.65l2.9-4.16 1.25.83-2.47 4.4zM184 244c.25 1.46.56 2.9.7 4.38a4.68 4.68 0 0 1-.47 1.62c-.56-.32-1.64-.74-1.6-.93.35-1.7.9-3.36 1.4-5zM269 474.6l-15.22-2.3.06-.45 15.2 2.15zM198.35 134.77l3.55-3.33.7.34a12.85 12.85 0 0 1-.83 3.3c-.16.28-1.58-.08-3.42-.3zM278.08 468.18l1.33 4.3-1.2.5-1.3-4.4zM429.4 586.92v6.6h-.6v-6.6zM240.2 60.8c.75-.2 1.64-.74 2.23-.52s1.2 1.2 1.28 2.5l-3.47-1.17zM189.43 256.46l2.7 1.3-.45 1.12-2.87-1.1z" fill="#328ecd"/><path d="M335.55 829.77l1.3 10.62-.74.05-.53-10.7zM191.57 318.44l1.27-3c.33.28 1 .67.94.83a25.23 25.23 0 0 1-1.2 2.7zM233.57 494.66c.55.92 1.12 1.48 1 1.78a5.82 5.82 0 0 1-1.27 1.56c-.3-.34-.88-.73-.82-1a11.6 11.6 0 0 1 1.1-2.34zM185.2 274.72l-2.08 1.65c-.2-.48-.65-1.26-.5-1.4a10.93 10.93 0 0 1 2-1.27zM184.3 202.24l.72-3.38 1.1.26a13.94 13.94 0 0 0-.5 1.65 13.27 13.27 0 0 0-.12 1.7zM194.32 108.78l1.12-2.47 1 .46-1.13 2.62zM185.7 292.77l-.33 2.3-1.2 1c-.18-.66-.6-1.37-.47-2a6.65 6.65 0 0 1 1.2-1.92zM273.52 467.87c.36.6.87 1.13.76 1.3a4.66 4.66 0 0 1-1.22 1c-.22-.4-.63-.8-.6-1.18s.54-.62 1.06-1.13zM182.93 235.32l1-2 1 .4-.86 2.2zM184.58 191.5l-.2-2.48a7.72 7.72 0 0 1 1 0c.05.8 0 1.63 0 2.44zM201.6 138.87l-2.7.48-.1-.85 2.72-.3zM183.9 220.8l.43 1.73-1.12.24-.13-1.86zM184.08 244.07l.3-2.64 1.2.6L184 244zM225.54 510.4l1.06 1.74-.65.45-1.22-1.66zM187.94 319.24c-.3-.53-.64-.88-.6-1.15s.5-.55.75-.8c.22.26.65.54.63.8s-.4.6-.8 1.14zM242.52 86.62h-2.8v-.74l2.8.15zM180.64 247.6l-.38 1.92-.72-.08.15-2zM192.77 253.42l-.52 1.94-.8-.2.57-1.94zM231.18 484.66l-1-2.5.83-.32c.2.9.4 1.78.58 2.68a3.43 3.43 0 0 1-.4.14zM343.18 532.83l-4.64-.6.16-.83 4.45 1.46zM226.93 451.46a15.52 15.52 0 0 1-1.4-.82 2.47 2.47 0 0 1 .4-.73 12.78 12.78 0 0 1 1.47.63zM265.4 477.32l.44 2.4-.85.18-.5-2.43zM231.3 493.55V489h.23v4.58zM179.4 230.2l-.33 1.77-.7-.15.35-1.78zM192.85 222.7l-1.3 1.3-1-.9 1.16-1.42zM195.05 252.6l1.38-.82.4.58-1.26 1zM197.1 435.3l2.5-.2.06.44-2.42.5zM349.2 964.86l1.13 1.3c-.2.13-.38.3-.42.3l-1.38-1.08zM190.95 251.63l-.48-1.73.82-.2.36 1.75zM326.94 749.47L326 748l.55-.38 1 1.33zM177 360.1l.7 1.48-.5.32c-.33-.44-.64-.9-.95-1.35zM429.47 518.33l.14-1.44h.4v1.46zM247.64 135.9l-.6 1.66-.78-.3.66-1.64zM181.1 316.67l-1.18-1.34.5-.43 1.15 1.37zM192.76 134.54c-.3.14-.6.36-.68.3a2.56 2.56 0 0 1-.47-.7c.23-.06.47-.22.66-.17s.3.32.5.57zM330.5 764.4l.6 4.27h-.6v-4.33zM195.58 143.23c-.38.34-.56.6-.8.67s-.52-.23-.5-.36a2.44 2.44 0 0 1 .3-.8zM283.53 411.22v1.9H283v-1.9zM225.7 528.4l.2 1.24-.43.1-.4-1.22zM177.16 148l.14 1.37h-.43l-.16-1.37zM223.46 490.87l-.17 1.6-.43-.04.25-1.6zM395.12 545.3l1.52.56-.1.36c-.52-.13-1-.25-1.53-.4l.12-.5zM255.35 462.17c-.47.13-.9.35-1 .25a3.07 3.07 0 0 1-.43-1c.28-.07.6-.25.83-.17s.33.5.6.92zM190.2 261.44c-.32.15-.53.34-.7.3s-.27-.28-.4-.45c.2-.12.37-.32.55-.32s.35.25.55.46zM187.56 163.88c.2-.23.34-.5.5-.5s.36.2.55.3c-.1.18-.2.48-.34.5s-.4-.18-.7-.3zM143.75 524.1l1.23-.34.1.36-1.22.37zM254.9 513.56l-1.54-.3.07-.38 1.54.32zM335.9 531.32l-1.1-.25.1-.4 1.1.33zM250.24 471.92h-1.64v-.2h1.64zM193.6 208.25a2.2 2.2 0 0 1-.67.24c-.1 0-.3-.28-.26-.36a1.9 1.9 0 0 1 .37-.5zM403 490l-.8-.85.54-.53.84.82zM225.12 465.75c-.08.13-.13.32-.23.35s-.28-.1-.42-.14l.3-.5zM183.8 225.88l.48 1.66c-.2.06-.46.2-.56.14a.84.84 0 0 1-.27-.58 5.7 5.7 0 0 1 .35-1.22zM189.82 245.5l-.57.38-.3-.5a3.77 3.77 0 0 1 .6-.28l.27.4zM270.64 481.17l-.44-.72.53-.2.26.76zM209.7 524.77c-.1.1-.22.25-.3.23s-.27-.27-.25-.3a2.1 2.1 0 0 1 .4-.33zM274.2 475.54l-1.16-.12v-.28h1.13zM260.56 957h.06v-.06zM414.86 550.17c-.12.08-.23.22-.34.22s-.25-.14-.37-.2a2.6 2.6 0 0 1 .44-.35l.26.32z" fill="#328ecd"/><path d="M260.6 956.94l-1.4-.24.18-.45 1.2.73zM224.26 462.44l.23-.43c.1.1.3.17.33.27s-.12.28-.2.42zM208.08 87.1c.1-.12.17-.3.3-.34s.27.1.4.16c-.08.12-.15.32-.26.35s-.28-.1-.44-.16zM195.85 257.7l-.43.2c-.06-.12-.2-.3-.16-.37a.48.48 0 0 1 .4-.2c.07.02.12.24.2.38zM198.43 237.1c-.06.15-.07.35-.17.4s-.28 0-.43-.08l.2-.55zM233.83 79.6l.38.2a2.52 2.52 0 0 1-.26.3s-.18-.05-.18-.1a2.1 2.1 0 0 1 .07-.4zM212.54 94.6l.36.2c-.08.13-.13.32-.23.35s-.23-.12-.35-.2zM186.8 107.47l-.3.23c0-.06-.12-.15-.1-.17a2.3 2.3 0 0 1 .25-.25zM205.34 126.73c-.12.1-.23.26-.33.25s-.2-.17-.3-.27l.42-.34zM225.57 483.74a1.45 1.45 0 0 1 .2.1 3.38 3.38 0 0 1-.15.35 1 1 0 0 1-.18-.1 3 3 0 0 1 .13-.36zM223.24 498.44c-.15.6-.07.3 0 0 .1.32.2.64 0 0zM279 476.75l-.82-.17v-.3l.82.15zM209.43 528.64l.1-.8h.22v.87zM391.6 545c-.14.06-.28.17-.4.14s-.14-.2-.2-.32c.12-.05.27-.16.38-.14s.15.24.23.32zM198.78 387.06h.9v.3h-.9zM189.33 254.07l-.32.32-.27-.3c.1-.1.2-.25.32-.28s.18.18.28.25zM177.18 249.13c.13.08.3.14.34.24s-.1.23-.17.34c-.12-.06-.3-.1-.34-.22s.12-.22.18-.35zM188.58 193.92l.2.1a3.34 3.34 0 0 1-.16.33 1 1 0 0 1-.18-.1 3 3 0 0 1 .14-.33zM276.82 850.7l-1.4 2.17-.5-.38 1.92-2.24a1.74 1.74 0 0 0-.02.44zM221.37 717.48l-4.5 2.8 1.48-4zM229.15 964.37l.56 1.6-.62.32-.7-1.65zM258.53 721.37l3.33-.93.16.9h-3.52zM229.65 955.45l-1.2-.7.55-.75 1.06 1zM318.56 732.25v1.42h-.36v-1.42zM225.92 717.54l.28 1.2-.5.12-.28-1.2zM226.6 872.82l-1.1.18-.1-.43 1.1-.2zM253.75 956.32c-.1.13-.17.33-.3.35s-.27-.1-.4-.16c.08-.1.15-.3.26-.34s.3.1.45.16zM226.77 714.93l-.84-.26.05-.27.84.1zM288.87 548.44l-4.2-2.44.62-1c1.78 1.4 5.36 0 5.5 4.12 0 .53 1.17 1.53 1.6 1.42.83-.2 1.53-1 2.68-1.88l-3.6-.86.44-1.4c3.06 1.07 6.13 2.1 9.17 3.23.6.22 1.4 1.2 1.6 1.08 4.92-3.17 4.6 1.84 7.06 4.4l-43.1-9.44.17-1.1c3.52.55 7.07 1 10.56 1.7 3.77.8 7.5 1.86 11.25 2.8zM308.48 583.87c2.9-1.2 5.78-1.5 6.74-3s.23-4.37.5-6.65c.23 3 .58 6.06.62 9.1 0 .54-1.22 1.6-1.85 1.57a45.57 45.57 0 0 1-6.02-1.03zM416.78 615l-3.4-.56.1-.83 3.3.7z" fill="#328ecd"/><path d="M272.92 542.73l-.45 2.07-.84-.17.4-2.2zM317.9 542.9l-.53-1.72.82-.23.48 1.74zM315.24 567.6v3.82H315v-3.82zM403.57 604.83l2.1.55c-.32.22-.44.4-.54.37-.55-.1-1.1-.23-1.64-.37a5.08 5.08 0 0 1 .07-.55zM411.1 611.7l.46 1.7-.46.17-.66-1.68zM314.4 564.08V562h.24l.13 2zM375.1 605.7c-.25.2-.44.43-.6.42s-.33-.26-.5-.4c.17-.17.3-.44.48-.45s.35.23.63.43zM276 543.6l-.44.16-.14-.53c.15 0 .33-.07.45 0s.13.23.13.36zM244.84 525.15l-.4.22c-.05-.12-.2-.28-.16-.36s.23-.15.35-.22zM263.06 544.57h.08-.06zM71.53 602.32c2.35-3.07 5.58-3.5 9.12-3a33.2 33.2 0 0 1-5 2.92c-1.2.45-2.7.1-4.08.12zM92.3 601.24l3.43-2.34.6.28a14.25 14.25 0 0 1-1.6 2.82c-.18.18-1.26-.4-2.42-.76zM80.65 599.28l4.44-1.7c-1 4-2.8 2.46-4.43 1.67zM108.86 602.4l-.4.2-.15-.52c.15 0 .32-.1.43 0s.1.2.13.32zM214.88 822l.28-1.15.44.1-.3 1.16zM108.26 533.1l-1.12.25-.14-.35 1.13-.45zM258.74 886.06l-1.38 2.43-.6-.35 1.42-2.5zM300 795.76l1.65-1.46.42.4-1.43 1.7zM312.36 775.33l-.4.22c-.06-.13-.2-.28-.17-.37s.22-.15.35-.23z" fill="#328ecd"/></svg>