<svg xmlns="http://www.w3.org/2000/svg" viewBox="0 0 738.02 317.82"><title>hackend-logo</title><polygon points="9.53 315.14 76.96 315.14 76.96 293.26 57.75 293.26 57.75 247.93 129.87 247.93 129.87 293.26 110.67 293.26 110.67 315.14 178.1 315.14 178.1 293.26 159.12 293.26 159.12 178.72 178.1 178.72 178.1 156.61 110.67 156.61 110.67 178.72 129.87 178.72 129.87 224.49 57.75 224.49 57.75 178.72 76.96 178.72 76.96 156.61 9.53 156.61 9.53 178.72 28.51 178.72 28.51 293.26 9.53 293.26 9.53 315.14" fill="#cd334d"/><path d="M250.88,240.79l15.18-44.88a93.64,93.64,0,0,0,2.9-13.84h.67a68,68,0,0,0,2.9,13.84l15,44.88ZM190.6,315.14H250V293.26H234.36l9.82-29.7h50l9.82,29.7H288.39v21.88H348V293.26H333.49L285.94,156.61H252.67L205.11,293.26H190.6Z" fill="#cd334d"/><path d="M348.45,235.21c0,46.22,34.83,82.61,82.83,82.61,21.88,0,62.74-7.59,62.74-31.26V264.9H467.46v12.28c0,12.5-24.78,15.63-34.38,15.63-31.26,0-54.48-23.22-54.48-58.94,0-33.49,22.33-54.92,52.92-54.92,12.95,0,33.94,4,33.94,15.85v12.28H492V185.64c0-25-42.64-31.7-61.85-31.7C384.18,153.94,348.45,188.32,348.45,235.21Z" fill="#cd334d"/><path d="M510.24,315.14h66.53V293.26H558.46v-48h10c6.25,0,9.38,1.56,11.83,5.81L608,303.3c4.69,8.48,8.93,11.83,22.33,11.83h20.32V293.26h-7.37c-5.36,0-8.48-1.79-10.49-5.58l-24.34-44.21c-4.91-9.38-10.27-11.83-10.27-11.83v-.45l38.18-52.47h14.29v-22.1H592.62v22.1h13.62L576.1,221.81H558.46V178.72h15.18v-22.1H510.24v22.1h19V293.26h-19Z" fill="#cd334d"/><path d="M0,43.45H12l28,83.81h7.64L73.27,52.54c.91-2.73,1.64-6,1.64-6h.36s.73,3.27,1.64,6l25.64,74.72h7.64l28-83.81h12V36.36H115.27v7.09H130L107.81,112a33.78,33.78,0,0,0-1.27,5.82h-.36a47.44,47.44,0,0,0-1.45-5.82L79.27,36.73H70.91L45.45,112A47.44,47.44,0,0,0,44,117.81h-.36A33.78,33.78,0,0,0,42.36,112L20.18,43.45H34.91V36.36H0Z" fill="#d9e1e8"/><path d="M162.68,73.45c3.27-21.27,18.73-32.18,35.45-32.18,15.09,0,28.36,10,29.27,32.18ZM154.14,82c0,28.91,21.27,47.45,46.91,47.45a49.54,49.54,0,0,0,32.36-12.54l-4.18-6.36A41.16,41.16,0,0,1,201,122c-21.09,0-38.91-15.09-38.91-41.45H235s.36-2.91.36-4.91c0-22-12.36-41.45-37.09-41.45C175,34.18,154.14,51.27,154.14,82Z" fill="#d9e1e8"/><path d="M258.66,73.45c3.27-21.27,18.73-32.18,35.45-32.18,15.09,0,28.36,10,29.27,32.18ZM250.12,82c0,28.91,21.27,47.45,46.91,47.45a49.54,49.54,0,0,0,32.36-12.54l-4.18-6.36A41.16,41.16,0,0,1,297,122c-21.09,0-38.91-15.09-38.91-41.45H331s.36-2.91.36-4.91c0-22-12.36-41.45-37.09-41.45C271,34.18,250.12,51.27,250.12,82Z" fill="#d9e1e8"/><path d="M342.24,127.27H382.6v-7.09H366.24V79.27h10.54c4.91,0,7.09.55,9.27,4l20.73,34.36c4.73,7.82,6.73,9.64,16.54,9.64h7.09v-7.09h-6.73c-5.45,0-6.73-.73-8.73-4l-20.36-34c-3.64-6-5.82-6.91-6-6.91v-.36l27.27-31.45h12.91V36.36H391.87v7.09h14.18L381.51,72.18H366.24V0H341.33V7.09H358.6V120.18H342.24Z" fill="#d9e1e8"/><path d="M443.14,73.45c3.27-21.27,18.73-32.18,35.45-32.18,15.09,0,28.36,10,29.27,32.18ZM434.6,82c0,28.91,21.27,47.45,46.91,47.45a49.54,49.54,0,0,0,32.36-12.54l-4.18-6.36A41.16,41.16,0,0,1,481.5,122c-21.09,0-38.91-15.09-38.91-41.45H515.5s.36-2.91.36-4.91c0-22-12.36-41.45-37.09-41.45C455.51,34.18,434.6,51.27,434.6,82Z" fill="#d9e1e8"/><path d="M528.08,127.27h40.36v-7.09H552.08v-38c0-22,16.54-40.54,38.18-40.54,20.36,0,22.36,14.91,22.36,30.73v54.91h24v-7.09H620.26V69.63c0-21.45-6.36-35.45-30-35.45-22.73,0-35.45,17.09-38.54,25.64h-.36a38.16,38.16,0,0,0,.73-7.45v-6c0-6.91-3.09-10-10.54-10H527.17v7.09h13.27c2.55,0,4,1.27,4,4v72.72H528.08Z" fill="#d9e1e8"/><path d="M651.66,81.81c0-25.45,14.54-40.18,32.36-40.18,21.27,0,31.63,19.82,31.63,40,0,28.54-15.64,40.36-32.36,40.36C664.75,122,651.66,106.36,651.66,81.81Zm-8,0c0,28.18,14.91,47.63,39.27,47.63,25.09,0,32.91-20.54,32.91-20.54h.36a22.13,22.13,0,0,0-.73,6.36v2c0,6.91,3.09,10,10.54,10h12v-7.09H727.11c-2.55,0-4-1.27-4-4V0H698.2V7.09h17.27V46.73a38.16,38.16,0,0,0,.73,7.45h-.36s-8.55-20-31.45-20C660.57,34.18,643.66,52.91,643.66,81.81Z" fill="#d9e1e8"/></svg>