<svg xmlns="http://www.w3.org/2000/svg" viewBox="0 0 883.83 240.3"><title>overlay</title><path d="M883.74 239.92l-.66-.1c-.17-.36-.3-.77-.3-.77s-.2.37-.3.68l-.52-.05a1.66 1.66 0 0 0 .1.33c.14.3.28 0 .4-.27l.62.08a1.23 1.23 0 0 0 .28.44c-10.14-.3-32.54-1.2-41.26-1.15-1.37 0-3.37-.27-4.8-.25-2.1 0-3.8.4-5.74.48-1.5.06-2.76-.26-4.8-.24-.94 0-2.1.23-3.83.23-2 0-3.9-.26-5.75-.24-7.35.06-15.28.65-22 .7-1 0-2.94.1-3.83 0s-.57-.44-1.92-.47c-1.16 0-1.34.44-1.92.48a5.52 5.52 0 0 1-1.9-.23c-8.94.3-19.8-.06-31.63.24-3.28.1-6.48.48-9.58.5-9.26 0-17.65-.7-24-.5-1.42.06-5.3.55-6.72.5-.46 0-.63-.45-1-.5-2.25-.24-3.57 0-5.75-.47a22.72 22.72 0 0 0-5.75-1c-2.65-.07-5.54.08-8.62 0-2.3-.06-4.45-.4-6.7-.48-6.16-.25-12.17.12-18.22 0-2.05 0-4.3-.4-6.7-.48-3.5-.12-7.4.1-11.5 0-1.6 0-4.07-.4-5.75-.48-5.27-.22-6.35.26-8.64-.5-.13 0-.83-.46-1-.47-1.27-.13-3.64.18-4.8 0-.44-.07-.46-.62-1-.72-.25-.04-4.66-.62-5.74-.7-1.55-.13-4 .06-6.7 0-4.14-.12-5.87-.57-11.5-.5a13.7 13.7 0 0 1-1.92.25c-1.13-.07-7.15-.3-10.55-.24-1.87 0-3.88.42-5.74.5-2.52.1-6.17-.1-9.58 0-9.84.2-15.78 1.58-22 .47-1.1-.2-1.18 0-1.92-.24s0-.28-1-.48a22.87 22.87 0 0 0-6.7-.24 11.3 11.3 0 0 1-1.93.25c-.25 0 0-.32-1-.24-1.88.15-3.72.62-5.75.73-4 .2-8.23 0-11.5.24-1.64.13-3.4.63-4.8.72-2.67.16-5.84.07-8.6.23s-5.83.5-8.64.72c-1.37.1-2.9.1-4.8.24-1.3.08-2.83.43-3.82.47-3.62.14-7.23-.1-10.54 0-.72-.74 2.62-.46 1.9-1.2-4.3.12-1.34 1.34-2.86 1.68-5.92-.1-12.3 0-17.25-.24a37.87 37.87 0 0 1-7.66-1.2 15.3 15.3 0 0 1-5.75-1.9 19.52 19.52 0 0 0-1.93-1.2c-1.47-.27-4.9 0-8.62-.25-1.77-.1-3.57-.45-4.8-.48-6.68-.16-15 .34-23 .48-4.17.07-8.2-.08-11.5 0-2.3.06-4.9.48-6.7.48-2.24 0-4.34-.43-6.7-.48a85.57 85.57 0 0 0-9.6.24 26.43 26.43 0 0 1-2.87.47c-1.84 0-4.3-.53-5.75-.48-3.53.1-7 .83-10.54 1-9.2.3-23-1-31.63 0-2.35.26-14.9-.3-18.2.47-2 .46-.3.32-4.8.24a78.72 78.72 0 0 0-11.5.73c-3.22.37-1.9-.17-4.8-.24-.52 0-5.54.3-7.66.47-1.4.1-2.53.43-3.82.48-2.6.1-6.06-.13-8.63 0-2.73.14-5.13.62-7.67.72-1.64.07-2.9-.3-5.74-.24-1.5 0-1.7.35-3.84.48-1.37.1-4.38-.08-5.75 0-1.53.1-3.28.32-4.8.5-4.9.55-13 .58-22 1-1.86.07-2.6.35-4.78.47-3.4.18-9.68.1-15.33.24-2.86.1-6.2.33-10.55.25h-3.84c-1.1-.07-1.25-.4-1.92-.48-2.68-.27-2.77-.1-4.8-.72-.23-.08-1.85-.45-1.9-.48-1.38-.88 0-2.52 1-2.88.36-.15 3.23.1 3.83 0 1-.18 1.52-.9 2.87-1.2.65-.16 2.2-.12 2.88-.25s1.12-.33 1.9-.48c3-.55 6.08-.92 8.64-1.44s4.76-1.17 6.7-1.68c-3.4-.54-7.5-.1-11.5-.24-1.73-.05-4-.46-5.74-.47-2.43 0-4.25.4-6.7.48-3.93.14-8.33-.24-12.47-.23-3.5 0-8.56.12-12.46.24-2.37.08-4.64.46-6.72.5s-3.74-.33-5.75-.25c-1.4.06-3.2.1-4.8.24-1.15.1-2.42.43-3.82.47-2.48.08-5.1-.27-7.66-.24-2.1 0-3.32.37-5.75.48-5.55.26-11.8-.27-16.3.25-1.13.13-1.58.4-2.88.48-3 .16-6.23-.07-9.58 0-2.3.05-3.52.37-5.75.48a25.82 25.82 0 0 1-2.88-.23c-1 0-4 .46-5.75.48-1.47 0-1.78-.28-2.88-.24-1.88.1-3.22.46-4.8.5s-2.8-.25-4.8-.25c-1.32 0-3.42.24-4.78.24-3.23 0-6.36-.25-9.58-.25-2 0-3.76.27-5.76.24-1.85 0-3.88-.26-5.74-.25-3.32 0-6.84.16-10.3.26l-2.82.07L22 233c-2.58 0-5.08 0-7.4-.1-1.18 0-5.58-.22-5.83-.25-2.77 0-4.88.38-7.83.48h-.7c-.24-7.5 0-14.3 0-21.92v-2.78V206c0-1.2-.06-2.43-.08-3.64-.08-2.46-.16-4.88-.16-7.18 0-8.42.22-17.1.24-25.88 0-7.06-.44-12.17 0-18.2.2-2.9 1.06-4.9 1.2-8.63.1-2.23-.44-13.47-.44-17.25v-9.58c-.1-5.8-.62-13.17-.28-15.34.26-1.67 2-1.62 2.16-2.87.26-1.6 0-15.73-.24-17.25s-.06-4-.24-7.67c-.06-1.33-.43-2.67-.48-3.82-.18-4.3 0-9.2-.24-13.42-.15-2.76-.57-5.13-.72-7.67-.1-1.5.05-3.26 0-4.8-.08-2.52-.47-4.4-.48-5.75 0-.92.1-5.64.24-6.7l.56-2.36c.14-.6.28-1.1.4-1.87s.2-1.14.24-1.2c.38-.8.66 0 .88.6s.4 1 .56-.5a127.22 127.22 0 0 0 .24-13.1c-.06-2.72-.53-3.8-.72-7.26V3.1c1.94 0 4.9.1 8 0 2.48-.08 4.08-.4 6.6-.48 2.35-.07 5 0 7.72 0H28.63c1 0 2.1-.08 3.18-.16.46 0 1.64-.46 1.93-.48 1.5-.1 3.25 0 4.8 0 1.85-.06 3.25-.4 4.78-.48 6.86-.32 12.87-.36 19.18-.72 2.76-.22 5.7-.53 7.6-.54 2.32 0 3.9.28 5.74.24 3.66-.1 4.6-.48 6.7-.48 1.93 0 3.84.24 5.76.24S92 0 94 0c1.53 0 3.75.24 5.75.24 1.72 0 2-.27 3.83-.24 2.5 0 4.8.4 7.67.48 1.5 0 3.3-.24 4.8-.24 2.8 0 7 .44 10.53.48 1.74 0 3.43-.3 4.8-.24 1.86.07 3.64.33 5.75.48 2.7.18 5.8.32 5.8.26 3.15.57 4.9 2 4.74 3.1-.1.6-1.72 1-2.88 1.68-.67.4-.42.65-1 1a2.85 2.85 0 0 0-1.8 2.36c-.3 1-1.35 1 1.9 1.44 2.7.34 1.55-.26 5.76-.24 2.4 0 4.8.27 7.67.24 2.23 0 4.82-.3 6.7-.24s3.3.5 4.8.48c2.5 0 7.54-.4 10.54-.72a28.4 28.4 0 0 1 2.88-.24c2.66-.1 4.14.27 6.7.24 1.33 0 3.88-.3 5.75-.48s4.74-.32 5.75-.48 2-.8 3.84-1c5.78-.47 9.62.2 15.32-.48 1.1-.13 2.07-.06 2.88-.24.23-.06.73-.46 1-.48 1.42-.15 1.76.3 2.88.24.62 0 .62-.4 1.82-.4 9.53-.3 19.82.28 16.3 3.12a10.28 10.28 0 0 1-1 .72l-.4.33a2.88 2.88 0 0 1-.57.4c-.56.17-4.3.4-4.8.7-.06 0 1 .67 1 1s-1.8.63-1 1 1.56 0 2.88.25c.26 0 .8.47 1 .48 2.5.16 9.12.2 12.47.24 2.08 0 4.6-.25 7.67-.24 3.6 0 7.8.08 13.4-.24 1.4-.08 3.36-.13 4.8-.24 1.23-.1 2.66-.42 3.84-.48 8.07-.44 15.8-.43 19.16-.72s5.58-1 7.67-1.2c.3 0 2.76.12 5.76 0 .85 0 2.46-.47 2.88-.48 1.4 0 1.88.32 2.87.24 1.37-.1.82-.4 2.9-.72 1.48-.24 3.24 0 4.78-.24 1.33-.2 2.6-.47 3.83-.72.72-.14 2.18-.64 2.9-.72 1-.12 2.72.08 3.82 0 .52 0 1.53-.45 1.92-.48 1.66-.14 4.07-.07 5.74-.24 3.94-.4 7.12-1.1 10.55-1.44 5-.5 9.27-.87 11.5-.48 1.25.2.18.6 1 1 .47.2 1.67.14 1.9.48 1 1.37-3.2 2.94-3.82 3.84 4.37.06 7.4-.9 10.55-1.2 2.64-.27 5.42-.23 7.67-.48 3.28-.37 6-1 8.62-1.44 1-.16 2-.1 2.88-.24.66-.1 1.3-.38 1.9-.48s2.1-.1 2.9-.24c1.8-.34.76-.37 5.74-.72 4.4-.3 4.23-.35 5.75.48 1.3.7-.18 3.76 2.88 4.32 2.63.48 5.45-.38 9.6-.48a6.35 6.35 0 0 0 1.9.24 10 10 0 0 1 3.84 0c2.62.46.06.83 2.87 1.68 5.6-.1 10.47.14 15.32 0 1.46 0 2.4-.4 3.84-.48 2.74-.18 6.1-.1 9.58-.24 6.24-.27 12.56-.8 21.08-1a6.13 6.13 0 0 1 1.92-.24c.37 0-.1.28 1 .24 1.53-.06 2.34-.38 3.83-.48 1.9-.13 16.15-.53 19.17-.24.33 0 1.38.4 1.9.48 3.47.57 4.94 2.36 1.93 4.08-1.37.78-1.46 1.1 3.83 1.2a27.6 27.6 0 0 1 2.88-.24 65.44 65.44 0 0 0 6.7 0c3.48-.22 5.6-.7 6.7-.72 6-.1 3.16.85 7.68 0 3.46-.65 12.4-.68 19.17-1.2 3.62-.28 7.2-.67 11.5-1 1.77-.12 4.18-.1 5.75-.24 1.37-.13.08-.6 1-.72.23 0 3.84-.1 5.75-.24 2.9-.24 6.42-.64 11.5-.72 2.15 0 3.32.24 4.8.24 4.86 0 8.63-.4 12.44.72.18 0 .78.46 1 .48 2.5.28 1.06.22 2.88 1 .35.14 1.78.4 1.92.48 1.5.9.12 1.84 2.87 2.16s15.35-.88 20.13-1.2c5.14-.35 6.6-.1 9.58-.72 2.1-.43 2.64-.15 6.7-.48.7-.06 1.44-.36 2.88-.48s2.2-.43 2.88-.48c1.44-.12 3.37.12 4.8 0 .88-.08 1.77-.37 2.87-.48 1.45-.14 2.34-.1 3.84-.24 2.22-.22 4.82-.68 5.76-.72 1.57-.07 1.64.26 2.87.24 2.2 0 5.36-.57 6.7.48.7.53 1.87.77 1.93 1 .27.92-1.74 1.25-5.75 2.4-.24.07-7.9 1.43-6.7 1.92 2.5 1 7-.4 12.46-1 4.73-.48 12.6-.4 15.33-1.44 1.67-.64 4.16-.07 7.66-.72.3-.06 1.85-.48 1.9-.48 1.37-.1 3.55.16 4.8 0s.5-.6 1.92-.72c1.08-.1 3.65-.23 3.83-.24 2.77-.15 6.26.1 7.68 0s0-.56 1-.72 5-.1 6.7-.24a14.22 14.22 0 0 1 5.76-.48c2.38 1.1 1 1.85-1.92 2.4a7.35 7.35 0 0 1-1.9.48 12.93 12.93 0 0 0-1.93-.24c-.55.12-.53.57-1 .72-1 .33-4.52.7-4.8 1.44a30.3 30.3 0 0 0 5.75-.48c.4-.06 1.6.08 1.92 0 .82-.2.84-.57 1.9-.72 1.24-.17 3.48 0 4.8-.24 3-.46 5.18-1.5 9.58-1.68 1.87-.08 3.9.33 4.8.24 1.93-.2 2.55-.82 4.8-1.2 1.46-.25 16.44-1.82 21.07-1.2 0 0 .73.28 1.43.6a4.5 4.5 0 0 1 1.45.84c.13.55-1.32.44-1.92.72a1.83 1.83 0 0 1-.3.13.43.43 0 0 1 .3.1c1.07.92-2.58.5-4.8 1-.76.17-1 .93-1.9 1.2-.24.08-1.62.17-1.92.25-2.93.73-9.4 1.4-13.42 2.16-1.8.34-3.16.86-4.8 1.2-.9.18-4.07.32-4.8.72-.13.08.27.43 0 .48-2.2.4-5.7.33-7.65.72-2.42.48-1.9 1-3.84 1.44.75.9 3.35 0 4.8.48-.23.34-2.87.08-2.9.48 1.14.43 3.4 0 2.9-.48-1.14-1 5.3-.35 6.7-.48 1-.1.7-.4 1.9-.48 1.5-.1 3.3.1 4.8 0 2.7-.18 6-.7 9.6-1 2.4-.18 13.07-.16 15.32-.72.54-.14.22-.65 1-.72 1-.1 3.37.1 5.75 0s4.64-.83 6.7-1c1.24-.08 3.72.33 4.8.24s1.8-.33 2.87-.48c.6-.08 2-.1 2.88-.24.4-.06.62-.44 1-.48.5-.06 1.43.07 1.9 0 2.33-.33 2.2-.34 6.72-.72 1.78-.15 7.38-.84 13-1.3 2.8-.23 5.6-.4 7.9-.4 1.15 0 2.18 0 3 .1a2.6 2.6 0 0 1 1.27.4c.66.5.8.85.5 1.15a2.53 2.53 0 0 1-.8.46l-.62.27a7.27 7.27 0 0 1-1.27.3 15.65 15.65 0 0 0-1.92.23c-.8.26-3 .14-3.83.72a33.25 33.25 0 0 0 6.5-.17 2.34 2.34 0 0 0 .5-.1l.36-.1.73-.2c.5-.14 1-.28 1.52-.4.95-.2 2.2-.52 3.36-.7s2.25-.34 3.4-.5c.2 1.14.42 2.32.73 3.64.2.82.6 1.77.72 2.73s-.1 2.2 0 3.15c.05.63.47 1.63.48 1.87.12 2.66-.1 5.7 0 8.62-.82.27-1.38 1.53-2.4 1a37.9 37.9 0 0 0 .48 4.8c.18 1.15.54 1.53.73 2.87s.07 3.46.24 4.8c.14 1.12.58 1.87.72 2.87.34 2.54.56 5 1 7.67s1 5.2 1.2 6.7c.1 1-.13 4.13 0 5.76a6.05 6.05 0 0 1 .47 3.83c-.4 2.62-1 2.48-1.68 1.92-1-.88-1-8.3-1.93-8.63-.26.3-.1 1 0 1.92 0 .48.13 1.92.24 2.88.24 2.13.6 3.7 1 5.75.17.92.07 1.2.25 1.9.56 2.37 2.3 12.9 2.16 17.26a12.77 12.77 0 0 1-.47 3.83 6.44 6.44 0 0 0-.48 2.87c0 4.9 1.1 5.94 1.68 9.58.1.7.3 3.44.48 4.8.36 2.8.73 4.2.25 6.7a6.46 6.46 0 0 0-.48 1.92c.16 3.2 1.2 7.3 1.92 11.5.33 2 .67 3.82 1 5.75s.45 4.3.7 5.75c.53 2.95 1.5 5.73 2.17 9.58.16.93.06 2.1.24 2.88.5 2.07 1 6.67 1.7 9.58-.12 4-.36-1.4-.5 3.84 0 2-.28 2 .5 3.84.5.16.1-3.4.23-4.8.78 1.37.74 5 1.2 7.67.32 1.87 1.64 5.46 1.68 7.67 0 2.4-.3.4.25 2.87.2.93.42 1.5.72 2.87.6 2.75 1.18 8.43 1.92 12.46.17 1 .6 2 .7 2.87s.8 18.9.9 19.68a13.8 13.8 0 0 1 .14 5.54z" fill="#fff" fill-rule="evenodd"/></svg>