<svg xmlns="http://www.w3.org/2000/svg" viewBox="0 0 883.83 240.3"><title>overlay</title><path d="M883.74,239.92l-.66-.11c-.17-.35-.29-.76-.31-.76s-.18.37-.3.68l-.51-.05a1.66,1.66,0,0,0,.09.33c.15.3.29,0,.42-.28l.61.08a1.23,1.23,0,0,0,.28.43c-10.14-.29-32.54-1.19-41.26-1.15-1.37,0-3.37-.26-4.8-.24-2.1,0-3.79.4-5.74.48-1.51.06-2.76-.26-4.8-.24-.94,0-2.09.24-3.83.24-2,0-3.9-.26-5.75-.24-7.35.07-15.28.66-22,.72-1,0-2.94.09-3.83,0s-.57-.45-1.92-.48c-1.16,0-1.34.44-1.92.48a5.52,5.52,0,0,1-1.92-.24c-8.93.3-19.79-.06-31.62.24-3.28.08-6.48.47-9.58.48-9.25,0-17.64-.7-24-.48-1.41.05-5.29.54-6.71.48-.46,0-.63-.44-1-.48-2.25-.25-3.57,0-5.75-.48a22.72,22.72,0,0,0-5.75-1c-2.65-.07-5.54.08-8.62,0-2.29-.06-4.45-.39-6.71-.48-6.15-.25-12.16.12-18.21,0-2.05,0-4.29-.4-6.71-.48-3.48-.12-7.38.1-11.5,0-1.6,0-4.06-.41-5.74-.48-5.26-.21-6.34.27-8.63-.48-.13,0-.83-.47-1-.48-1.27-.13-3.64.18-4.79,0-.45-.07-.47-.62-1-.72-.26-.05-4.67-.63-5.75-.72-1.55-.12-4,.07-6.71,0-4.13-.11-5.86-.56-11.5-.48a13.69,13.69,0,0,1-1.91.24c-1.13-.07-7.15-.31-10.55-.24-1.87,0-3.88.41-5.74.48-2.53.1-6.18-.08-9.59,0-9.84.22-15.78,1.59-22,.48-1.1-.2-1.18,0-1.92-.24s0-.28-1-.48a22.87,22.87,0,0,0-6.71-.24,11.3,11.3,0,0,1-1.92.24c-.25,0,0-.32-1-.24-1.88.14-3.72.61-5.75.72-4,.21-8.23,0-11.5.24-1.64.13-3.39.63-4.79.72-2.68.17-5.85.08-8.62.24s-5.82.5-8.63.72c-1.37.11-2.9.11-4.79.24-1.3.09-2.84.44-3.83.48-3.62.14-7.23-.1-10.54,0-.72-.74,2.62-.46,1.91-1.2-4.3.12-1.35,1.34-2.87,1.68-5.92-.1-12.31,0-17.25-.24a37.87,37.87,0,0,1-7.67-1.2,15.29,15.29,0,0,1-5.75-1.92,19.52,19.52,0,0,0-1.92-1.2c-1.47-.26-4.9,0-8.62-.24-1.77-.09-3.57-.45-4.79-.48-6.69-.16-15,.34-23,.48-4.18.07-8.2-.08-11.5,0-2.31.06-4.91.48-6.71.48-2.24,0-4.34-.43-6.71-.48a85.57,85.57,0,0,0-9.58.24,26.43,26.43,0,0,1-2.88.48c-1.84,0-4.29-.53-5.75-.48-3.53.12-7,.84-10.54,1-9.19.31-23-1-31.62,0-2.35.27-14.89-.29-18.21.48-2,.46-.29.32-4.79.24a78.72,78.72,0,0,0-11.5.72c-3.22.37-1.91-.17-4.79-.24-.53,0-5.55.31-7.67.48-1.42.11-2.54.43-3.83.48-2.59.11-6.06-.13-8.63,0-2.73.14-5.13.62-7.67.72-1.64.07-2.89-.29-5.74-.24-1.51,0-1.69.35-3.84.48-1.37.08-4.38-.09-5.75,0-1.53.1-3.28.31-4.79.48-4.9.56-13,.59-22,1-1.87.08-2.6.36-4.79.48-3.39.18-9.68.09-15.33.24-2.86.08-6.19.32-10.55.24-1.34,0-3.75,0-3.83,0-1.1-.07-1.25-.41-1.92-.48-2.68-.27-2.77-.1-4.79-.72-.24-.08-1.86-.45-1.92-.48-1.37-.88,0-2.52,1-2.88.37-.14,3.24.1,3.84,0,1-.17,1.52-.88,2.87-1.2.65-.15,2.19-.11,2.88-.24s1.12-.33,1.91-.48c3-.55,6.07-.92,8.63-1.44s4.76-1.17,6.71-1.68c-3.41-.54-7.51-.1-11.51-.24-1.73-.06-4-.47-5.74-.48-2.43,0-4.25.4-6.71.48-3.92.13-8.32-.25-12.46-.24-3.51,0-8.56.12-12.46.24-2.36.07-4.63.45-6.71.48s-3.74-.32-5.75-.24c-1.41.06-3.2.1-4.79.24-1.16.1-2.43.44-3.83.48-2.49.08-5.11-.27-7.67-.24-2.1,0-3.32.37-5.75.48-5.54.25-11.8-.28-16.29.24-1.13.13-1.58.41-2.88.48-3,.16-6.23-.07-9.58,0-2.31.05-3.52.37-5.75.48a25.82,25.82,0,0,1-2.87-.24c-1,0-4,.46-5.75.48-1.47,0-1.78-.28-2.88-.24-1.87.08-3.21.45-4.79.48s-2.79-.24-4.79-.24c-1.33,0-3.43.24-4.79.24-3.23,0-6.36-.24-9.58-.24-2,0-3.76.27-5.76.24-1.85,0-3.88-.25-5.74-.24-3.32,0-6.84.16-10.29.26l-2.83.06L22,233c-2.58,0-5.08,0-7.39-.11-1.19,0-5.59-.21-5.84-.24-2.77,0-4.88.38-7.83.48l-.7,0c-.24-7.51,0-14.31,0-21.92,0-.92,0-1.85,0-2.79s0-1.61,0-2.42c0-1.21-.06-2.43-.08-3.64C.08,199.9,0,197.48,0,195.18c0-8.42.22-17.11.24-25.88,0-7.06-.44-12.17,0-18.21.21-2.9,1.06-4.88,1.2-8.62C1.53,140.24,1,129,1,125.22v-9.58C.9,109.83.38,102.47.72,100.3c.26-1.67,2-1.62,2.16-2.87.26-1.6,0-15.73-.24-17.25s-.06-4-.24-7.67c-.06-1.34-.43-2.68-.48-3.83-.18-4.29,0-9.2-.24-13.42-.15-2.76-.57-5.13-.72-7.67-.09-1.5.05-3.25,0-4.79C.88,40.28.49,38.39.48,37.05c0-.92.11-5.64.24-6.71,0,0,.28-1.18.56-2.35.14-.59.28-1.08.4-1.86s.21-1.14.24-1.21c.38-.79.66,0,.88.6s.39,1,.56-.48A127.22,127.22,0,0,0,3.6,11.92c-.06-2.71-.53-3.8-.72-7.25,0-.41,0-.94,0-1.57,1.94,0,4.9.11,8,0,2.48-.08,4.08-.41,6.59-.48,2.36-.07,5,0,7.73,0h1.93l1.51,0c1,0,2.08-.08,3.17-.16.45,0,1.63-.46,1.92-.48,1.5-.09,3.25,0,4.79,0,1.86-.06,3.26-.41,4.79-.48,6.85-.32,12.86-.36,19.17-.72C65.24.56,68.17.25,70.07.24c2.33,0,3.9.28,5.75.24C79.48.39,80.42,0,82.53,0c1.92,0,3.83.24,5.75.24S92,0,94,0c1.53,0,3.75.24,5.75.24,1.72,0,2-.27,3.83-.24,2.5,0,4.79.41,7.67.48,1.49,0,3.29-.24,4.79-.24,2.8,0,7,.44,10.54.48,1.74,0,3.43-.29,4.8-.24,1.86.07,3.64.33,5.75.48,2.69.18,5.81.32,5.81.26,3.14.57,4.89,2,4.73,3.1-.1.6-1.72,1-2.88,1.68-.66.39-.41.65-1,1A2.85,2.85,0,0,0,142,9.36c-.29,1-1.35,1,1.91,1.44,2.69.34,1.54-.26,5.75-.24,2.4,0,4.81.27,7.67.24,2.23,0,4.82-.29,6.71-.24s3.3.5,4.79.48c2.5,0,7.54-.39,10.54-.72a28.41,28.41,0,0,1,2.88-.24c2.66-.1,4.14.27,6.7.24,1.33,0,3.88-.31,5.75-.48s4.74-.32,5.75-.48,2-.81,3.84-1c5.79-.47,9.63.2,15.33-.48,1.1-.13,2.07-.06,2.88-.24.23-.06.73-.46,1-.48,1.42-.15,1.76.3,2.88.24C227,7.4,227,7,228.2,7c9.53-.31,19.82.28,16.29,3.12a10.28,10.28,0,0,1-1,.72l-.4.33a2.88,2.88,0,0,1-.56.39c-.56.18-4.3.4-4.79.72-.07,0,1,.66,1,1s-1.8.62-1,1,1.55,0,2.87.24c.25,0,.8.47,1,.48,2.49.16,9.11.21,12.46.24,2.08,0,4.61-.25,7.67-.24,3.59,0,7.81.08,13.41-.24,1.38-.08,3.35-.13,4.79-.24,1.23-.09,2.66-.42,3.84-.48,8.07-.44,15.79-.43,19.16-.72s5.58-1,7.67-1.2c.29,0,2.75.12,5.75,0,.85,0,2.46-.47,2.88-.48,1.41,0,1.88.32,2.87.24,1.36-.11.81-.4,2.88-.72,1.49-.24,3.25,0,4.79-.24,1.33-.2,2.6-.47,3.83-.72.71-.14,2.17-.64,2.88-.72,1-.12,2.73.08,3.83,0,.52,0,1.53-.45,1.92-.48,1.66-.14,4.07-.07,5.74-.24,3.94-.4,7.12-1.11,10.55-1.44,5-.49,9.27-.87,11.5-.48,1.25.21.18.6,1,1,.47.21,1.67.14,1.91.48,1,1.37-3.22,2.94-3.83,3.84,4.36.06,7.39-.89,10.54-1.2,2.64-.27,5.42-.23,7.67-.48,3.28-.37,6-1,8.62-1.44,1-.16,2-.1,2.88-.24.66-.11,1.31-.38,1.91-.48s2.1-.1,2.88-.24c1.81-.34.77-.37,5.75-.72,4.41-.31,4.23-.35,5.75.48,1.3.71-.19,3.76,2.87,4.32,2.63.48,5.45-.38,9.59-.48a6.35,6.35,0,0,0,1.91.24,10,10,0,0,1,3.84,0c2.62.46.06.83,2.87,1.68,5.62-.11,10.48.14,15.33,0,1.46,0,2.39-.39,3.84-.48,2.74-.18,6.11-.09,9.58-.24,6.24-.27,12.56-.81,21.08-1a6.13,6.13,0,0,1,1.92-.24c.37,0-.09.28,1,.24,1.53-.06,2.34-.38,3.83-.48,1.91-.13,16.15-.53,19.17-.24.33,0,1.38.39,1.91.48,3.46.57,4.93,2.36,1.92,4.08-1.37.78-1.46,1.1,3.83,1.2a27.59,27.59,0,0,1,2.88-.24,65.44,65.44,0,0,0,6.71,0c3.47-.22,5.59-.71,6.7-.72,6-.09,3.15.85,7.67,0,3.46-.65,12.39-.68,19.17-1.2,3.62-.28,7.21-.67,11.5-1,1.77-.12,4.18-.09,5.75-.24,1.37-.13.08-.59,1-.72.23,0,3.84-.09,5.75-.24,2.9-.24,6.42-.64,11.5-.72,2.15,0,3.32.24,4.79.24,4.87,0,8.64-.39,12.45.72.18,0,.78.46,1,.48,2.5.28,1.06.22,2.88,1,.35.14,1.78.39,1.92.48,1.49.9.12,1.84,2.87,2.16s15.35-.88,20.13-1.2c5.14-.35,6.61-.11,9.58-.72,2.11-.43,2.64-.15,6.71-.48.7-.06,1.43-.36,2.87-.48s2.19-.43,2.88-.48c1.43-.12,3.36.12,4.79,0,.88-.08,1.77-.37,2.87-.48,1.45-.14,2.34-.09,3.84-.24,2.21-.22,4.81-.68,5.75-.72,1.57-.07,1.64.26,2.87.24,2.2,0,5.36-.57,6.71.48.69.53,1.86.77,1.92,1,.27.92-1.74,1.25-5.75,2.4-.25.07-7.92,1.43-6.71,1.92,2.51,1,7-.41,12.46-1,4.73-.48,12.6-.41,15.33-1.44,1.68-.64,4.17-.07,7.67-.72.29-.06,1.85-.48,1.91-.48,1.36-.11,3.54.16,4.79,0s.51-.6,1.92-.72c1.08-.09,3.65-.23,3.83-.24,2.76-.15,6.25.11,7.67,0s0-.56,1-.72,5-.1,6.71-.24a14.22,14.22,0,0,1,5.75-.48c2.38,1.11,1,1.85-1.92,2.4a7.35,7.35,0,0,1-1.91.48,12.93,12.93,0,0,0-1.92-.24c-.54.12-.52.57-1,.72-1,.33-4.51.71-4.79,1.44a30.29,30.29,0,0,0,5.75-.48c.4-.06,1.6.08,1.92,0,.82-.21.84-.57,1.91-.72,1.23-.17,3.47,0,4.79-.24,3-.46,5.18-1.51,9.58-1.68,1.87-.08,3.9.33,4.8.24,1.93-.2,2.55-.82,4.79-1.2,1.47-.25,16.45-1.82,21.08-1.2,0,0,.73.28,1.43.6a4.5,4.5,0,0,1,1.45.84c.13.55-1.32.44-1.92.72a1.83,1.83,0,0,1-.3.13.43.43,0,0,1,.3.11c1.07.91-2.58.49-4.79,1-.77.16-1,.92-1.92,1.2-.23.07-1.61.16-1.91.24-2.93.73-9.4,1.39-13.42,2.16-1.8.34-3.16.86-4.79,1.2-.92.18-4.08.32-4.8.72-.14.08.26.43,0,.48-2.21.39-5.72.33-7.66.72-2.41.48-1.89,1-3.83,1.44.75.9,3.35,0,4.79.48-.22.34-2.86.08-2.88.48,1.13.43,3.39,0,2.88-.48-1.13-1,5.31-.35,6.7-.48,1-.1.71-.41,1.92-.48,1.5-.09,3.3.1,4.79,0,2.7-.18,6-.7,9.59-1,2.41-.18,13.08-.16,15.33-.72.54-.14.22-.65,1-.72,1-.1,3.37.11,5.75,0s4.64-.83,6.71-1c1.23-.08,3.71.33,4.79.24s1.79-.33,2.87-.48c.59-.08,2-.11,2.88-.24.4-.06.62-.44,1-.48.51-.06,1.43.07,1.91,0,2.32-.33,2.19-.34,6.71-.72,1.78-.15,7.38-.84,13-1.3,2.79-.23,5.59-.4,7.9-.41,1.15,0,2.18,0,3,.1a2.61,2.61,0,0,1,1.27.41c.66.51.79.85.49,1.15a2.53,2.53,0,0,1-.78.46l-.63.26a7.27,7.27,0,0,1-1.27.29,15.65,15.65,0,0,0-1.92.24c-.81.26-3,.14-3.83.72a33.25,33.25,0,0,0,6.5-.17,2.34,2.34,0,0,0,.5-.09l.36-.1.74-.21c.49-.14,1-.28,1.52-.39.95-.21,2.19-.53,3.36-.72s2.24-.33,3.4-.48c.2,1.13.41,2.31.72,3.63.19.83.59,1.78.72,2.74s-.11,2.2,0,3.15c.05.63.47,1.63.48,1.87.12,2.66-.09,5.69,0,8.62-.82.27-1.38,1.53-2.4,1a37.9,37.9,0,0,0,.48,4.79c.17,1.16.53,1.54.72,2.88s.07,3.46.24,4.79c.14,1.13.58,1.88.72,2.88.35,2.53.57,5,1,7.66s1,5.19,1.2,6.71c.1,1-.12,4.12,0,5.75a6.05,6.05,0,0,1,.48,3.83c-.39,2.62-1,2.48-1.68,1.92-1-.88-1-8.31-1.92-8.63-.26.29-.09,1,0,1.92,0,.48.13,1.92.24,2.88.23,2.13.59,3.7,1,5.75.16.92.06,1.19.24,1.91.56,2.36,2.29,12.9,2.16,17.25a12.77,12.77,0,0,1-.48,3.83,6.44,6.44,0,0,0-.48,2.88c0,4.91,1.11,5.94,1.68,9.58.1.7.31,3.44.48,4.8.35,2.81.72,4.2.24,6.7a6.46,6.46,0,0,0-.48,1.92c.16,3.19,1.19,7.31,1.92,11.5.34,2,.68,3.82,1,5.75s.46,4.3.72,5.75c.52,2.95,1.49,5.73,2.16,9.58.16.93.06,2.1.24,2.88.48,2.07,1,6.67,1.68,9.58-.11,4-.35-1.4-.48,3.83,0,2-.29,2,.48,3.84.52.16.1-3.4.24-4.79.78,1.36.74,5,1.2,7.66.32,1.87,1.64,5.46,1.68,7.67,0,2.4-.3.4.24,2.87.2.94.42,1.52.72,2.88.59,2.75,1.18,8.43,1.92,12.46.18,1,.6,2,.72,2.87s.79,18.91.88,19.68A13.81,13.81,0,0,1,883.74,239.92Z" fill="#fff" fill-rule="evenodd"/></svg>